<svg xmlns="http://www.w3.org/2000/svg" width="100" height="99" viewBox="0 0 100 99"><g transform="translate(0.124 -0.404)"><ellipse cx="50" cy="49.5" rx="50" ry="49.5" transform="translate(-0.124 0.404)" fill="#2c9eff"/><g transform="translate(30.616 23.628)"><g transform="translate(0 0)"><g transform="translate(0.816)"><path d="M394.834,697.1a4.021,4.021,0,0,1-2.228-.679,3.246,3.246,0,0,0-3.315.009,4.193,4.193,0,0,1-2.145.589,3.974,3.974,0,0,1-3.546-2.063,3.009,3.009,0,0,0-2.892-1.66c-.087.005-.163.007-.239.007a3.854,3.854,0,0,1-2.83-1.219,3.929,3.929,0,0,1-1.068-2.906,3,3,0,0,0-1.652-2.906,3.815,3.815,0,0,1-2.017-2.461,4,4,0,0,1,.547-3.242,3.153,3.153,0,0,0-.009-3.319,4.215,4.215,0,0,1-.434-3.275,3.876,3.876,0,0,1,1.9-2.416,3.023,3.023,0,0,0,1.662-2.89,3.914,3.914,0,0,1,4.126-4.14c.091.007.171.011.249.011a3.012,3.012,0,0,0,2.649-1.662,4.051,4.051,0,0,1,3.547-2.121,3.9,3.9,0,0,1,2.164.656,3.247,3.247,0,0,0,3.313-.01,4.175,4.175,0,0,1,2.148-.593,3.969,3.969,0,0,1,3.542,2.06,3,3,0,0,0,2.892,1.66c.088-.005.161-.007.234-.007a3.865,3.865,0,0,1,2.837,1.222,3.93,3.93,0,0,1,1.066,2.912,3.029,3.029,0,0,0,1.652,2.9,3.825,3.825,0,0,1,2.02,2.471,4,4,0,0,1-.554,3.241,3.181,3.181,0,0,0,.011,3.32,4.2,4.2,0,0,1,.438,3.271A3.86,3.86,0,0,1,407,686.266a3.008,3.008,0,0,0-1.662,2.9,3.908,3.908,0,0,1-4.125,4.131c-.085-.007-.162-.009-.237-.009a3.018,3.018,0,0,0-2.661,1.662A3.861,3.861,0,0,1,394.834,697.1Zm-3.878-2.006a4.093,4.093,0,0,1,2.113.6,3.179,3.179,0,0,0,1.766.545,3,3,0,0,0,2.707-1.672,3.862,3.862,0,0,1,3.734-2.128c.051,0,.111,0,.171,0a3.054,3.054,0,0,0,2.206-.956,3.007,3.007,0,0,0,.823-2.256A3.874,3.874,0,0,1,406.6,685.5a3,3,0,0,0,1.469-1.875,3.329,3.329,0,0,0-.346-2.594,4.041,4.041,0,0,1,0-4.229,3.147,3.147,0,0,0,.448-2.555,2.975,2.975,0,0,0-1.57-1.919,3.856,3.856,0,0,1-2.128-3.732,3.058,3.058,0,0,0-.832-2.256,2.993,2.993,0,0,0-2.381-.946c-.091.008-.194.012-.3.012a3.883,3.883,0,0,1-3.423-2.139,3.1,3.1,0,0,0-2.773-1.592,3.3,3.3,0,0,0-1.7.469,4.111,4.111,0,0,1-4.224,0,3.049,3.049,0,0,0-1.7-.521,3.171,3.171,0,0,0-2.778,1.653,3.861,3.861,0,0,1-3.73,2.117c-.046,0-.1,0-.162,0a3.062,3.062,0,0,0-2.212.957,3.022,3.022,0,0,0-.827,2.263,3.845,3.845,0,0,1-2.128,3.719,3.018,3.018,0,0,0-1.469,1.88,3.343,3.343,0,0,0,.342,2.6,4.01,4.01,0,0,1,0,4.229,3.145,3.145,0,0,0-.441,2.555,2.964,2.964,0,0,0,1.568,1.911,3.873,3.873,0,0,1,2.127,3.741,3.055,3.055,0,0,0,.834,2.25,3,3,0,0,0,2.38.944c.089-.007.189-.011.288-.011a3.89,3.89,0,0,1,3.433,2.137,3.111,3.111,0,0,0,2.777,1.595,3.316,3.316,0,0,0,1.7-.466A4.094,4.094,0,0,1,390.956,695.092Z" transform="translate(-372.769 -660.753)" fill="#fff" stroke="#fff" stroke-width="1"/></g><g transform="translate(6.14 5.295)"><path d="M393.626,694.428a12.862,12.862,0,1,1,12.86-12.861A12.876,12.876,0,0,1,393.626,694.428Zm0-24.857a12,12,0,1,0,11.994,12A12.01,12.01,0,0,0,393.626,669.57Z" transform="translate(-380.764 -668.704)" fill="#fff" stroke="#fff" stroke-width="1"/></g><g transform="translate(11.475 10.63)"><path d="M400.675,691.768H400.2a.432.432,0,0,1-.216-.058l-3.688-2.126-3.645,1.987a.815.815,0,0,1-1.036-.059.764.764,0,0,1-.228-.89l.669-4.336-2.955-2.96c-.167-.079-.326-.274-.326-.737a.751.751,0,0,1,.382-.583.988.988,0,0,0,.1-.081.443.443,0,0,1,.24-.125l4.153-.668,1.911-3.94a.428.428,0,0,1,.086-.121.971.971,0,0,1,.657-.36.843.843,0,0,1,.768.535l1.885,3.885,4.133.665a.811.811,0,0,1,.741.791,1.057,1.057,0,0,1-.256.781l-3.026,3.034.67,4.392a1.137,1.137,0,0,1-.228.836A.431.431,0,0,1,400.675,691.768Zm-.36-.866h.041v-.041l-.7-4.543a.432.432,0,0,1,.122-.371l3.187-3.2a.607.607,0,0,1,0-.1l-4.368-.7a.432.432,0,0,1-.32-.238l-1.973-4.067-1.972,4.067a.432.432,0,0,1-.32.238l-4.253.685c-.021.018-.044.035-.067.052l3.135,3.141a.434.434,0,0,1,.122.372l-.711,4.611h0l3.861-2.1a.427.427,0,0,1,.423,0Z" transform="translate(-388.774 -676.714)" fill="#fff" stroke="#fff" stroke-width="1"/></g><g transform="translate(0 31.658)"><path d="M381.6,729.342h-.015a.431.431,0,0,1-.385-.268l-2.565-6.274-6.547,1.745a.433.433,0,0,1-.5-.6l.051-.109,7.611-15.307a.436.436,0,0,1,.44-.236,2.98,2.98,0,0,0,.553.017c.089-.007.188-.011.287-.011a3.89,3.89,0,0,1,3.433,2.137,3.111,3.111,0,0,0,2.777,1.6h0a3.315,3.315,0,0,0,1.7-.466,4.006,4.006,0,0,1,1.839-.585.419.419,0,0,1,.389.192.435.435,0,0,1,.027.433l-8.7,17.5A.434.434,0,0,1,381.6,729.342Zm-2.709-7.493a.434.434,0,0,1,.4.27l2.346,5.74L389.523,712a3.229,3.229,0,0,0-.639.3,4.192,4.192,0,0,1-2.147.591h0a3.974,3.974,0,0,1-3.546-2.063,3.009,3.009,0,0,0-2.893-1.66,3.468,3.468,0,0,1-.407,0l-7.1,14.286,5.994-1.6A.425.425,0,0,1,378.892,721.849Z" transform="translate(-371.544 -708.287)" fill="#fff" stroke="#fff" stroke-width="1"/></g><g transform="translate(18.82 31.658)"><path d="M408.93,729.342a.433.433,0,0,1-.388-.24l-8.7-17.5a.435.435,0,0,1,.027-.434.455.455,0,0,1,.389-.191,4.042,4.042,0,0,1,1.836.588,3.178,3.178,0,0,0,1.763.543,3,3,0,0,0,2.707-1.672,3.862,3.862,0,0,1,3.734-2.128,3.234,3.234,0,0,0,.539-.018.431.431,0,0,1,.441.237l7.623,15.328a.43.43,0,0,1,.095.27.425.425,0,0,1-.439.434.458.458,0,0,1-.119-.015l-6.548-1.745-2.564,6.274a.431.431,0,0,1-.385.268ZM401.014,712l7.878,15.854,2.346-5.74a.434.434,0,0,1,.511-.255l6,1.6-7.106-14.286a3.7,3.7,0,0,1-.394,0c-.087-.007-.164-.01-.239-.01a3.018,3.018,0,0,0-2.661,1.662,3.861,3.861,0,0,1-3.48,2.151,4.021,4.021,0,0,1-2.228-.679A3.108,3.108,0,0,0,401.014,712Z" transform="translate(-399.802 -708.287)" fill="#fff" stroke="#fff" stroke-width="1"/></g></g></g></g></svg>