<svg xmlns="http://www.w3.org/2000/svg" width="99.9" height="99.9" viewBox="0 0 99.9 99.9"><g transform="translate(0 0)"><path d="M49.95,0A49.95,49.95,0,1,1,0,49.95,49.95,49.95,0,0,1,49.95,0Z" transform="translate(0 0)" fill="#2c9eff"/><g transform="translate(22.644 19.98)"><g transform="translate(0 0)"><g transform="translate(0 0)"><g transform="translate(0 0)"><path d="M647.793,146.506a15.9,15.9,0,1,1-17.366,14.284A15.953,15.953,0,0,1,647.793,146.506Z" transform="translate(-626.378 -142.466)" fill="none" stroke="#fff" stroke-linecap="round" stroke-linejoin="round" stroke-width="2"/><path d="M629.362,159.728a15.9,15.9,0,1,0,17.366-14.284A15.941,15.941,0,0,0,629.362,159.728Zm13.892,21.316a19.866,19.866,0,1,1,21.7-17.851A19.844,19.844,0,0,1,643.254,181.044Z" transform="translate(-625.313 -141.403)" fill="none" stroke="#fff" stroke-linecap="round" stroke-linejoin="round" stroke-width="2"/></g><g transform="translate(0 0)"><path d="M644.7,178.147a15.9,15.9,0,1,1,17.365-14.267A15.941,15.941,0,0,1,644.7,178.147Z" transform="translate(-626.378 -142.466)" fill="none" stroke="#fff" stroke-linecap="round" stroke-linejoin="round" stroke-width="2"/><path d="M647.113,141.5a19.866,19.866,0,1,0,17.842,21.694A19.836,19.836,0,0,0,647.113,141.5Z" transform="translate(-625.313 -141.403)" fill="none" stroke="#fff" stroke-linecap="round" stroke-linejoin="round" stroke-width="2"/></g></g><g transform="translate(7.461 24.23)"><path d="M637.085,179.171h0a1.566,1.566,0,0,1-1.52-1.183,1.573,1.573,0,0,1,1.135-1.906,1.594,1.594,0,0,1,1.907,1.132,1.565,1.565,0,0,1-1.137,1.909A1.52,1.52,0,0,1,637.085,179.171Zm0-2a.448.448,0,0,0-.1.013.426.426,0,0,0,.1.84h0a.388.388,0,0,0,.1-.015.423.423,0,0,0,.263-.193.417.417,0,0,0,.046-.323A.432.432,0,0,0,637.085,177.176Z" transform="translate(-635.516 -176.036)" fill="#fff"/></g><g transform="translate(12.358 27.141)"><path d="M643.782,183.156h0a1.575,1.575,0,1,1,.385-.049A1.6,1.6,0,0,1,643.782,183.156Zm0-2a.441.441,0,0,0-.109.014.433.433,0,0,0-.309.516.44.44,0,0,0,.519.31.419.419,0,0,0,.261-.2.425.425,0,0,0,.047-.322A.419.419,0,0,0,643.784,181.158Z" transform="translate(-642.21 -180.015)" fill="#fff"/></g><g transform="translate(19.934 14.414)"><path d="M654.133,165.749a1.566,1.566,0,0,1-1.347-2.369,1.582,1.582,0,0,1,1.351-.763,1.566,1.566,0,0,1,.388,3.083A1.54,1.54,0,0,1,654.133,165.749Zm0-1.988a.431.431,0,0,0-.11.013.405.405,0,0,0-.257.191.423.423,0,0,0,.473.628.423.423,0,0,0-.105-.832Z" transform="translate(-652.565 -162.617)" fill="#fff"/></g><g transform="translate(15.769 21.697)"><path d="M648.421,174.839a1.428,1.428,0,0,1-.349-2.813,1.429,1.429,0,1,1,.7,2.77A1.515,1.515,0,0,1,648.421,174.839Zm0-1.816a.4.4,0,0,0-.093.011.389.389,0,1,0,.093-.011Z" transform="translate(-646.991 -171.981)" fill="#fff"/></g><g transform="translate(9.264 12.572)"><path d="M641.764,176.286a.578.578,0,0,1-.291-.08l-3.214-1.915a.571.571,0,1,1,.585-.98l3.214,1.913a.572.572,0,0,1-.294,1.063Zm1.4-.356a.567.567,0,0,1-.291-.08.573.573,0,0,1-.2-.781l2.452-4.127a.572.572,0,0,1,.985.584l-2.452,4.126A.57.57,0,0,1,643.168,175.931Zm3.487-5.855a.564.564,0,0,1-.293-.08.571.571,0,0,1-.2-.783l3.07-5.168a.571.571,0,1,1,.983.583l-3.072,5.169A.567.567,0,0,1,646.656,170.075Zm4.521-6.354a.571.571,0,0,1-.2-1.106l6.682-2.48a.571.571,0,0,1,.4,1.072l-6.682,2.479A.551.551,0,0,1,651.177,163.722Z" transform="translate(-637.98 -160.1)" fill="#fff"/></g><g transform="translate(28.524 11.234)"><path d="M665.875,161.4h0a1.565,1.565,0,0,1-1.519-1.184,1.562,1.562,0,0,1,1.141-1.9,1.635,1.635,0,0,1,.384-.048,1.567,1.567,0,0,1-.006,3.133Zm.006-1.99a.445.445,0,0,0-.109.014.413.413,0,0,0-.26.192.422.422,0,0,0-.048.318.429.429,0,0,0,.516.311.423.423,0,0,0-.1-.834Z" transform="translate(-664.307 -158.27)" fill="#fff"/></g><g transform="translate(31.664 33.971)"><g transform="translate(0)"><path d="M664.618,186.834a19.654,19.654,0,0,0,2.874-2.357l2.873,3.5-2.865,2.357Z" transform="translate(-664.618 -184.477)" fill="none" stroke="#fff" stroke-linecap="round" stroke-linejoin="round" stroke-width="2"/><path d="M680.605,210.863l-13.189-17.527a1.279,1.279,0,0,1,.184-1.849l3.753-3.088a1.29,1.29,0,0,1,1.857.177l14.622,16.47a4.531,4.531,0,0,1,1.125,3.435,4.689,4.689,0,0,1-5.062,4.159A4.8,4.8,0,0,1,680.605,210.863Z" transform="translate(-665.143 -185.24)" fill="none" stroke="#fff" stroke-linecap="round" stroke-linejoin="round" stroke-width="2"/></g><g transform="translate(0)"><path d="M688.956,208.482a4.689,4.689,0,0,1-5.062,4.159,4.8,4.8,0,0,1-3.29-1.779l-13.189-17.527a1.279,1.279,0,0,1,.184-1.849l3.753-3.088a1.29,1.29,0,0,1,1.857.177l14.622,16.47A4.531,4.531,0,0,1,688.956,208.482Z" transform="translate(-665.143 -185.24)" fill="none" stroke="#fff" stroke-linecap="round" stroke-linejoin="round" stroke-width="2"/><path d="M664.618,186.834l2.882,3.5,2.865-2.357-2.873-3.5A19.654,19.654,0,0,1,664.618,186.834Z" transform="translate(-664.618 -184.477)" fill="none" stroke="#fff" stroke-linecap="round" stroke-linejoin="round" stroke-width="2"/></g></g></g></g></g></svg>