<svg xmlns="http://www.w3.org/2000/svg" width="99.9" height="99.9" viewBox="0 0 99.9 99.9"><g transform="translate(0 0)"><path d="M49.95,0A49.95,49.95,0,1,1,0,49.95,49.95,49.95,0,0,1,49.95,0Z" transform="translate(0 0)" fill="#2c9eff"/><g transform="translate(28.638 20.034)"><g transform="translate(0 0)"><g transform="translate(0 6.383)"><g transform="translate(-241.697 -539.272)" fill="#fff"><path d="M 281.1361083984375 592.5382080078125 L 244.7823028564453 592.5382080078125 C 242.8880767822266 592.5382080078125 241.3470001220703 590.9974975585938 241.3470001220703 589.1036376953125 L 241.3470001220703 542.3580322265625 C 241.3470001220703 540.4634399414062 242.8880767822266 538.9220581054688 244.7823028564453 538.9220581054688 L 252.3899078369141 538.9220581054688 C 252.8514251708984 538.9220581054688 253.2268981933594 539.2974853515625 253.2268981933594 539.759033203125 C 253.2268981933594 540.2205810546875 252.8514251708984 540.5960083007812 252.3899078369141 540.5960083007812 L 244.7823028564453 540.5960083007812 C 243.8111114501953 540.5960083007812 243.02099609375 541.386474609375 243.02099609375 542.3580322265625 L 243.02099609375 589.1036376953125 C 243.02099609375 590.0744018554688 243.8111114501953 590.8641357421875 244.7823028564453 590.8641357421875 L 281.1361083984375 590.8641357421875 C 282.1060485839844 590.8641357421875 282.8951721191406 590.0744018554688 282.8951721191406 589.1036376953125 L 282.8951721191406 542.3580322265625 C 282.8951721191406 541.386474609375 282.1060485839844 540.5960083007812 281.1361083984375 540.5960083007812 L 273.1973876953125 540.5960083007812 C 272.73583984375 540.5960083007812 272.3603515625 540.2205810546875 272.3603515625 539.759033203125 C 272.3603515625 539.2974853515625 272.73583984375 538.9220581054688 273.1973876953125 538.9220581054688 L 281.1361083984375 538.9220581054688 C 283.0295104980469 538.9220581054688 284.5699157714844 540.4634399414062 284.5699157714844 542.3580322265625 L 284.5699157714844 589.1036376953125 C 284.5699157714844 590.9974975585938 283.0295104980469 592.5382080078125 281.1361083984375 592.5382080078125 Z" stroke="none"/><path d="M 281.1361083984375 592.188232421875 C 282.8361206054688 592.188232421875 284.2199096679688 590.8043212890625 284.2199096679688 589.1036376953125 L 284.2199096679688 542.3580322265625 C 284.2199096679688 540.6558227539062 282.8361206054688 539.2720336914062 281.1361083984375 539.2720336914062 L 273.1973876953125 539.2720336914062 C 272.9284057617188 539.2720336914062 272.7103576660156 539.4900512695312 272.7103576660156 539.759033203125 C 272.7103576660156 540.0279541015625 272.9284057617188 540.2460327148438 273.1973876953125 540.2460327148438 L 281.1361083984375 540.2460327148438 C 282.2996520996094 540.2460327148438 283.2451782226562 541.1929931640625 283.2451782226562 542.3580322265625 L 283.2451782226562 589.1036376953125 C 283.2451782226562 590.2671508789062 282.2996520996094 591.214111328125 281.1361083984375 591.214111328125 L 244.7823028564453 591.214111328125 C 243.6179962158203 591.214111328125 242.6709899902344 590.2671508789062 242.6709899902344 589.1036376953125 L 242.6709899902344 542.3580322265625 C 242.6709899902344 541.1929931640625 243.6179962158203 540.2460327148438 244.7823028564453 540.2460327148438 L 252.3899078369141 540.2460327148438 C 252.6588897705078 540.2460327148438 252.8768920898438 540.0279541015625 252.8768920898438 539.759033203125 C 252.8768920898438 539.4900512695312 252.6588897705078 539.2720336914062 252.3899078369141 539.2720336914062 L 244.7823028564453 539.2720336914062 C 243.0808258056641 539.2720336914062 241.6970062255859 540.6558227539062 241.6970062255859 542.3580322265625 L 241.6970062255859 589.1036376953125 C 241.6970062255859 590.8043212890625 243.0808258056641 592.188232421875 244.7823028564453 592.188232421875 L 281.1361083984375 592.188232421875 M 281.1361083984375 592.8882446289062 L 244.7823028564453 592.8882446289062 C 242.6950836181641 592.8882446289062 240.9970092773438 591.1904907226562 240.9970092773438 589.1036376953125 L 240.9970092773438 542.3580322265625 C 240.9970092773438 540.2704467773438 242.6950836181641 538.572021484375 244.7823028564453 538.572021484375 L 252.3899078369141 538.572021484375 C 253.0444183349609 538.572021484375 253.5768890380859 539.1044921875 253.5768890380859 539.759033203125 C 253.5768890380859 540.4135131835938 253.0444183349609 540.946044921875 252.3899078369141 540.946044921875 L 244.7823028564453 540.946044921875 C 244.0041046142578 540.946044921875 243.3710021972656 541.5794677734375 243.3710021972656 542.3580322265625 L 243.3710021972656 589.1036376953125 C 243.3710021972656 589.8814086914062 244.0041046142578 590.5140991210938 244.7823028564453 590.5140991210938 L 281.1361083984375 590.5140991210938 C 281.9130554199219 590.5140991210938 282.545166015625 589.8814086914062 282.545166015625 589.1036376953125 L 282.545166015625 542.3580322265625 C 282.545166015625 541.5794677734375 281.9130554199219 540.946044921875 281.1361083984375 540.946044921875 L 273.1973876953125 540.946044921875 C 272.5428466796875 540.946044921875 272.0103454589844 540.4135131835938 272.0103454589844 539.759033203125 C 272.0103454589844 539.1044921875 272.5428466796875 538.572021484375 273.1973876953125 538.572021484375 L 281.1361083984375 538.572021484375 C 283.2225036621094 538.572021484375 284.919921875 540.2704467773438 284.919921875 542.3580322265625 L 284.919921875 589.1036376953125 C 284.919921875 591.1904907226562 283.2225036621094 592.8882446289062 281.1361083984375 592.8882446289062 Z" stroke="none" fill="#fff"/></g></g><g transform="translate(4.283 16.497)"><g transform="translate(-247.413 -552.771)" fill="#fff"><path d="M 257.0997009277344 572.481689453125 C 256.5835266113281 572.481689453125 256.0954895019531 572.4473876953125 255.6491546630859 572.379638671875 C 250.7550659179688 571.664794921875 247.0630035400391 567.3943481445312 247.0630035400391 562.446533203125 C 247.0630035400391 556.91845703125 251.5654449462891 552.4210815429688 257.0997009277344 552.4210815429688 C 257.5612487792969 552.4210815429688 257.9367370605469 552.7965087890625 257.9367370605469 553.258056640625 L 257.9367370605469 561.6094970703125 L 266.2889404296875 561.6094970703125 C 266.7508544921875 561.6094970703125 267.1266784667969 561.9849853515625 267.1266784667969 562.446533203125 C 267.1266784667969 567.97998046875 262.6286010742188 572.481689453125 257.0997009277344 572.481689453125 Z M 256.261962890625 554.1365356445312 C 252.0126342773438 554.558349609375 248.7362518310547 558.1394653320312 248.7362518310547 562.446533203125 C 248.7362518310547 566.569091796875 251.8136749267578 570.1275634765625 255.8946075439453 570.7238159179688 C 256.2584838867188 570.7791137695312 256.6632690429688 570.8070068359375 257.0997009277344 570.8070068359375 C 261.4076538085938 570.8070068359375 264.9890441894531 567.5315551757812 265.4104919433594 563.2842407226562 L 257.0997009277344 563.2842407226562 C 256.6377563476562 563.2842407226562 256.261962890625 562.908447265625 256.261962890625 562.446533203125 L 256.261962890625 554.1365356445312 Z" stroke="none"/><path d="M 257.0997009277344 572.1317138671875 C 262.4356384277344 572.1317138671875 266.7766723632812 567.7877197265625 266.7766723632812 562.446533203125 C 266.7766723632812 562.1775512695312 266.5586547851562 561.95947265625 266.2889404296875 561.95947265625 L 257.5867309570312 561.95947265625 L 257.5867309570312 553.258056640625 C 257.5867309570312 552.98828125 257.36865234375 552.7710571289062 257.0997009277344 552.7710571289062 C 251.7577667236328 552.7710571289062 247.4129943847656 557.112060546875 247.4129943847656 562.446533203125 C 247.4129943847656 567.2221069335938 250.9770660400391 571.343505859375 255.7016448974609 572.0336303710938 C 256.1309509277344 572.0987548828125 256.6015014648438 572.1317138671875 257.0997009277344 572.1317138671875 M 256.6119689941406 553.758544921875 L 256.6119689941406 562.446533203125 C 256.6119689941406 562.7162475585938 256.8299560546875 562.9342651367188 257.0997009277344 562.9342651367188 L 265.7884521484375 562.9342651367188 C 265.5359802246094 567.51123046875 261.7351379394531 571.156982421875 257.0997009277344 571.156982421875 C 256.6494140625 571.156982421875 256.2283325195312 571.1285400390625 255.8440093994141 571.0701293945312 C 251.5929260253906 570.4490356445312 248.3862457275391 566.7418212890625 248.3862457275391 562.446533203125 C 248.3862457275391 557.8118896484375 252.0342102050781 554.0117797851562 256.6119689941406 553.758544921875 M 257.0997009277344 572.8317260742188 C 256.5660095214844 572.8317260742188 256.060302734375 572.7960205078125 255.5966491699219 572.7257080078125 C 250.5337829589844 571.9862060546875 246.7129974365234 567.5668334960938 246.7129974365234 562.446533203125 C 246.7129974365234 556.7254638671875 251.3724517822266 552.071044921875 257.0997009277344 552.071044921875 C 257.7542419433594 552.071044921875 258.2867431640625 552.603515625 258.2867431640625 553.258056640625 L 258.2867431640625 561.2594604492188 L 266.2889404296875 561.2594604492188 C 266.94384765625 561.2594604492188 267.4766540527344 561.7919921875 267.4766540527344 562.446533203125 C 267.4766540527344 568.1729736328125 262.8215637207031 572.8317260742188 257.0997009277344 572.8317260742188 Z M 255.9119720458984 554.5324096679688 C 252.0294494628906 555.1076049804688 249.0862426757812 558.4511108398438 249.0862426757812 562.446533203125 C 249.0862426757812 566.3966064453125 252.0349578857422 569.8062133789062 255.9452056884766 570.3775024414062 C 256.2937316894531 570.430419921875 256.6808166503906 570.4569702148438 257.0997009277344 570.4569702148438 C 261.0962524414062 570.4569702148438 264.4400634765625 567.5151977539062 265.0147094726562 563.63427734375 L 257.0997009277344 563.63427734375 C 256.4447937011719 563.63427734375 255.9119720458984 563.1014404296875 255.9119720458984 562.446533203125 L 255.9119720458984 554.5324096679688 Z" stroke="none" fill="#fff"/></g></g><g transform="translate(17.261 13.464)"><g transform="translate(-261.735 -550.723)" fill="#fff"><path d="M 271.4142150878906 561.2451782226562 L 262.2227783203125 561.2451782226562 C 261.7608337402344 561.2451782226562 261.3849792480469 560.869384765625 261.3849792480469 560.407470703125 L 261.3849792480469 551.2099609375 C 261.3849792480469 550.7484741210938 261.7608337402344 550.373046875 262.2227783203125 550.373046875 C 267.7528991699219 550.373046875 272.2519836425781 554.8744506835938 272.2519836425781 560.407470703125 C 272.2519836425781 560.869384765625 271.8761596679688 561.2451782226562 271.4142150878906 561.2451782226562 Z M 263.0597839355469 559.5704956054688 L 270.5356140136719 559.5704956054688 C 270.3443908691406 557.6587524414062 269.49755859375 555.8695068359375 268.12744140625 554.49853515625 C 266.757568359375 553.1277465820312 264.9698791503906 552.2803955078125 263.0597839355469 552.0887451171875 L 263.0597839355469 559.5704956054688 Z" stroke="none"/><path d="M 271.4142150878906 560.8952026367188 C 271.6839599609375 560.8952026367188 271.9019775390625 560.6771850585938 271.9019775390625 560.407470703125 C 271.9019775390625 555.0676879882812 267.5594787597656 550.7230224609375 262.2227783203125 550.7230224609375 C 261.9530334472656 550.7230224609375 261.7349853515625 550.9410400390625 261.7349853515625 551.2099609375 L 261.7349853515625 560.407470703125 C 261.7349853515625 560.6771850585938 261.9530334472656 560.8952026367188 262.2227783203125 560.8952026367188 L 271.4142150878906 560.8952026367188 M 262.7097778320312 551.7105102539062 C 267.1226806640625 551.9555053710938 270.6694946289062 555.5037841796875 270.9137268066406 559.9204711914062 L 262.7097778320312 559.9204711914062 L 262.7097778320312 551.7105102539062 M 271.4142150878906 561.59521484375 L 262.2227783203125 561.59521484375 C 261.5678100585938 561.59521484375 261.0349731445312 561.0623779296875 261.0349731445312 560.407470703125 L 261.0349731445312 551.2099609375 C 261.0349731445312 550.5554809570312 261.5678100585938 550.0230102539062 262.2227783203125 550.0230102539062 C 267.9458923339844 550.0230102539062 272.6019897460938 554.6814575195312 272.6019897460938 560.407470703125 C 272.6019897460938 561.0623779296875 272.0691528320312 561.59521484375 271.4142150878906 561.59521484375 Z M 263.4097900390625 559.220458984375 L 270.1393737792969 559.220458984375 C 269.8874816894531 557.5344848632812 269.1003723144531 555.9672241210938 267.8798828125 554.7459106445312 C 266.6597290039062 553.5250244140625 265.0940551757812 552.7374267578125 263.4097900390625 552.485107421875 L 263.4097900390625 559.220458984375 Z" stroke="none" fill="#fff"/></g></g><g transform="translate(10.263)"><g transform="translate(-255.395 -530.752)" fill="#fff"><path d="M 276.560546875 540.482177734375 L 255.8820343017578 540.482177734375 C 255.4205017089844 540.482177734375 255.0450134277344 540.1064453125 255.0450134277344 539.64453125 L 255.0450134277344 536.5584716796875 C 255.0450134277344 534.9871826171875 256.0010986328125 533.75634765625 257.2216186523438 533.75634765625 L 260.6270141601562 533.75634765625 C 261.9046020507812 531.6519775390625 263.9837646484375 530.4020385742188 266.2257995605469 530.4020385742188 C 268.4676513671875 530.4020385742188 270.5462646484375 531.6519775390625 271.8231201171875 533.75634765625 L 275.2291870117188 533.75634765625 C 276.4455261230469 533.75634765625 277.3983154296875 534.9871826171875 277.3983154296875 536.5584716796875 L 277.3983154296875 539.64453125 C 277.3983154296875 540.1064453125 277.0224914550781 540.482177734375 276.560546875 540.482177734375 Z M 256.7190246582031 538.8075561523438 L 275.7235717773438 538.8075561523438 L 275.7235717773438 536.5584716796875 C 275.7235717773438 535.8261108398438 275.3726806640625 535.4310302734375 275.2291870117188 535.4310302734375 L 271.3347778320312 535.4310302734375 C 271.0213317871094 535.4310302734375 270.7371826171875 535.2587890625 270.5932922363281 534.9815673828125 C 269.63916015625 533.1632080078125 268.0061645507812 532.0767822265625 266.2257995605469 532.0767822265625 C 264.4452209472656 532.0767822265625 262.8116455078125 533.1632690429688 261.8560485839844 534.9830322265625 C 261.7113647460938 535.25927734375 261.4274597167969 535.4310302734375 261.1153259277344 535.4310302734375 L 257.2216186523438 535.4310302734375 C 257.0757446289062 535.4310302734375 256.7190246582031 535.8261108398438 256.7190246582031 536.5584716796875 L 256.7190246582031 538.8075561523438 Z" stroke="none"/><path d="M 276.560546875 540.1322021484375 C 276.8302917480469 540.1322021484375 277.0483093261719 539.9135131835938 277.0483093261719 539.64453125 L 277.0483093261719 536.5584716796875 C 277.0483093261719 535.1837158203125 276.2488708496094 534.1063232421875 275.2291870117188 534.1063232421875 L 271.6231994628906 534.1063232421875 C 270.4169311523438 532.000244140625 268.4187927246094 530.7520141601562 266.2257995605469 530.7520141601562 C 264.0328063964844 530.7520141601562 262.0338745117188 532.000244140625 260.8268737792969 534.1063232421875 L 257.2216186523438 534.1063232421875 C 256.1974487304688 534.1063232421875 255.3950042724609 535.1837158203125 255.3950042724609 536.5584716796875 L 255.3950042724609 539.64453125 C 255.3950042724609 539.9135131835938 255.6130218505859 540.1322021484375 255.8820343017578 540.1322021484375 L 276.560546875 540.1322021484375 M 257.2216186523438 535.0810546875 L 261.1153259277344 535.0810546875 C 261.2958984375 535.0810546875 261.4622192382812 534.9805908203125 261.5461730957031 534.8203125 C 262.5635986328125 532.8828125 264.312255859375 531.726806640625 266.2257995605469 531.726806640625 C 268.1385192871094 531.726806640625 269.8872680664062 532.8828125 270.9039306640625 534.8203125 C 270.9871215820312 534.9805908203125 271.1541748046875 535.0810546875 271.3347778320312 535.0810546875 L 275.2291870117188 535.0810546875 C 275.6285400390625 535.0810546875 276.0735778808594 535.6878662109375 276.0735778808594 536.5584716796875 L 276.0735778808594 539.1575317382812 L 256.3690185546875 539.1575317382812 L 256.3690185546875 536.5584716796875 C 256.3690185546875 535.6878662109375 256.8185424804688 535.0810546875 257.2216186523438 535.0810546875 M 276.560546875 540.8322143554688 L 255.8820343017578 540.8322143554688 C 255.2275085449219 540.8322143554688 254.6950073242188 540.2994384765625 254.6950073242188 539.64453125 L 254.6950073242188 536.5584716796875 C 254.6950073242188 534.7908935546875 255.8048248291016 533.4063110351562 257.2216186523438 533.4063110351562 L 260.4327697753906 533.4063110351562 C 261.7819213867188 531.2981567382812 263.92041015625 530.052001953125 266.2257995605469 530.052001953125 C 268.5310363769531 530.052001953125 270.6689453125 531.298095703125 272.0173950195312 533.4063110351562 L 275.2291870117188 533.4063110351562 C 276.6417846679688 533.4063110351562 277.7483215332031 534.7908935546875 277.7483215332031 536.5584716796875 L 277.7483215332031 539.64453125 C 277.7483215332031 540.2994384765625 277.2154846191406 540.8322143554688 276.560546875 540.8322143554688 Z M 257.0690307617188 538.45751953125 L 275.3735656738281 538.45751953125 L 275.3735656738281 536.5584716796875 C 275.3735656738281 536.1294555664062 275.2275085449219 535.866455078125 275.1470642089844 535.7810668945312 L 271.3347778320312 535.7810668945312 C 270.89013671875 535.7810668945312 270.4869689941406 535.5364990234375 270.2826232910156 535.1427612304688 C 269.3907775878906 533.4431762695312 267.8736572265625 532.4268188476562 266.2257995605469 532.4268188476562 C 264.5776672363281 532.4268188476562 263.0599365234375 533.4432373046875 262.1659240722656 535.145751953125 C 261.9607849121094 535.537353515625 261.55810546875 535.7810668945312 261.1153259277344 535.7810668945312 L 257.2996520996094 535.7810668945312 C 257.2185363769531 535.8641967773438 257.0690307617188 536.1266479492188 257.0690307617188 536.5584716796875 L 257.0690307617188 538.45751953125 Z" stroke="none" fill="#fff"/></g></g><g transform="translate(19.455 2.569)"><g transform="translate(-267.664 -534.181)" fill="#fff"><path d="M 269.3025817871094 537.810302734375 C 268.2060852050781 537.810302734375 267.3139953613281 536.9176025390625 267.3139953613281 535.8203125 C 267.3139953613281 534.723388671875 268.2060852050781 533.8310546875 269.3025817871094 533.8310546875 C 270.3986511230469 533.8310546875 271.2904052734375 534.723388671875 271.2904052734375 535.8203125 C 271.2904052734375 536.9176025390625 270.3986511230469 537.810302734375 269.3025817871094 537.810302734375 Z M 269.3025817871094 535.5050048828125 C 269.1295471191406 535.5050048828125 268.98876953125 535.646484375 268.98876953125 535.8203125 C 268.98876953125 535.9942016601562 269.1295471191406 536.1356811523438 269.3025817871094 536.1356811523438 C 269.4752197265625 536.1356811523438 269.6156311035156 535.9942016601562 269.6156311035156 535.8203125 C 269.6156311035156 535.646484375 269.4752197265625 535.5050048828125 269.3025817871094 535.5050048828125 Z" stroke="none"/><path d="M 269.3025817871094 537.4603271484375 C 270.2053833007812 537.4603271484375 270.9403991699219 536.723876953125 270.9403991699219 535.8203125 C 270.9403991699219 534.916748046875 270.2053833007812 534.1810302734375 269.3025817871094 534.1810302734375 C 268.3989868164062 534.1810302734375 267.6640014648438 534.916748046875 267.6640014648438 535.8203125 C 267.6640014648438 536.723876953125 268.3989868164062 537.4603271484375 269.3025817871094 537.4603271484375 M 269.3025817871094 535.155029296875 C 269.6681823730469 535.155029296875 269.9656372070312 535.4539184570312 269.9656372070312 535.8203125 C 269.9656372070312 536.1866455078125 269.6681823730469 536.4856567382812 269.3025817871094 536.4856567382812 C 268.9361877441406 536.4856567382812 268.6387634277344 536.1866455078125 268.6387634277344 535.8203125 C 268.6387634277344 535.4539184570312 268.9361877441406 535.155029296875 269.3025817871094 535.155029296875 M 269.3025817871094 538.1603393554688 C 268.0130920410156 538.1603393554688 266.9640197753906 537.110595703125 266.9640197753906 535.8203125 C 266.9640197753906 534.5304565429688 268.0130920410156 533.4810180664062 269.3025817871094 533.4810180664062 C 270.5916442871094 533.4810180664062 271.640380859375 534.5304565429688 271.640380859375 535.8203125 C 271.640380859375 537.110595703125 270.5916442871094 538.1603393554688 269.3025817871094 538.1603393554688 Z" stroke="none" fill="#fff"/></g></g><g transform="translate(2.311 41.061)"><g transform="translate(-244.782 -583.557)" fill="#fff"><path d="M 281.1605529785156 602.3199462890625 L 245.2689819335938 602.3199462890625 C 244.8074645996094 602.3199462890625 244.4320068359375 601.9441528320312 244.4320068359375 601.482177734375 L 244.4320068359375 600.1793212890625 C 244.4320068359375 598.999755859375 245.3919677734375 598.0401611328125 246.5718994140625 598.0401611328125 L 248.5178527832031 598.0401611328125 C 248.8348846435547 596.7512817382812 249.3227081298828 595.5073852539062 249.9709320068359 594.3349609375 L 248.6492919921875 593.0140380859375 C 247.8149566650391 592.1788330078125 247.8150177001953 590.8208618164062 248.6492156982422 589.9866333007812 L 251.2115783691406 587.4242553710938 C 251.5974426269531 587.0397338867188 252.1490783691406 586.8194580078125 252.7254638671875 586.8194580078125 C 253.3019866943359 586.8194580078125 253.8533172607422 587.0398559570312 254.2380523681641 587.4241333007812 L 255.4640350341797 588.6507568359375 C 256.6470336914062 587.9434814453125 257.9235229492188 587.4022216796875 259.265869140625 587.038818359375 L 259.265869140625 585.34619140625 C 259.265869140625 584.1666870117188 260.2254943847656 583.2070922851562 261.405029296875 583.2070922851562 L 265.0170593261719 583.2070922851562 C 266.2015380859375 583.2070922851562 267.1651916503906 584.1666870117188 267.1651916503906 585.34619140625 L 267.1651916503906 587.039306640625 C 268.5013732910156 587.4035034179688 269.7763366699219 587.9448852539062 270.9625549316406 588.651611328125 L 272.1842041015625 587.425537109375 C 272.5753784179688 587.0386352539062 273.1278076171875 586.8177490234375 273.70166015625 586.8177490234375 C 274.2733764648438 586.8177490234375 274.8241882324219 587.0369873046875 275.212890625 587.419189453125 L 277.773193359375 589.98779296875 C 278.1762390136719 590.3899536132812 278.3987426757812 590.9268798828125 278.3990173339844 591.4989624023438 C 278.3993225097656 592.0718383789062 278.1769104003906 592.60986328125 277.7727966308594 593.0139770507812 L 276.4524230957031 594.3336791992188 C 277.099365234375 595.4971313476562 277.5868835449219 596.7415161132812 277.904541015625 598.0401611328125 L 279.8493957519531 598.0401611328125 C 281.0338745117188 598.0401611328125 281.9975280761719 598.999755859375 281.9975280761719 600.1793212890625 L 281.9975280761719 601.482177734375 C 281.9975280761719 601.9441528320312 281.6220703125 602.3199462890625 281.1605529785156 602.3199462890625 Z M 246.1059875488281 600.6451416015625 L 280.3227844238281 600.6451416015625 L 280.3227844238281 600.1793212890625 C 280.3227844238281 599.9232177734375 280.1104125976562 599.71484375 279.8493957519531 599.71484375 L 277.2323608398438 599.71484375 C 276.8333740234375 599.71484375 276.4879150390625 599.4306640625 276.4109191894531 599.0390625 C 276.101806640625 597.469970703125 275.5231628417969 595.9891967773438 274.691162109375 594.6380004882812 C 274.4868774414062 594.3057861328125 274.536376953125 593.8818359375 274.8114013671875 593.6068725585938 L 276.5885009765625 591.8297119140625 C 276.6739807128906 591.7444458007812 276.7208862304688 591.6275634765625 276.7209167480469 591.5003662109375 C 276.7209167480469 591.3731079101562 276.6739807128906 591.2561645507812 276.5888061523438 591.171142578125 L 274.0332946777344 588.6073608398438 C 273.9551391601562 588.5303955078125 273.8338317871094 588.4849853515625 273.7027282714844 588.4849853515625 C 273.5704040527344 588.4849853515625 273.4469299316406 588.5315551757812 273.3639221191406 588.61279296875 L 271.6768188476562 590.3058471679688 C 271.5203247070312 590.4645385742188 271.3095703125 590.5526733398438 271.0846862792969 590.5526733398438 C 270.9203186035156 590.5526733398438 270.7607116699219 590.504638671875 270.6231079101562 590.4137573242188 C 269.2530212402344 589.5127563476562 267.7454833984375 588.871826171875 266.1430053710938 588.5090942382812 C 265.7591247558594 588.4219360351562 265.4911804199219 588.0862426757812 265.4911804199219 587.6927490234375 L 265.4911804199219 585.34619140625 C 265.4911804199219 585.0896606445312 265.2785034179688 584.8809814453125 265.0170593261719 584.8809814453125 L 261.405029296875 584.8809814453125 C 261.1489562988281 584.8809814453125 260.9406127929688 585.0896606445312 260.9406127929688 585.34619140625 L 260.9406127929688 587.6927490234375 C 260.9406127929688 588.0879516601562 260.67138671875 588.4237670898438 260.2859191894531 588.5093994140625 C 258.6741027832031 588.872802734375 257.1661376953125 589.5133666992188 255.8050079345703 590.4129638671875 C 255.6664276123047 590.50390625 255.5070953369141 590.5516357421875 255.3432769775391 590.5516357421875 C 255.1199645996094 590.5516357421875 254.9098510742188 590.4644775390625 254.7516479492188 590.3062133789062 L 253.0545806884766 588.607666015625 C 252.9759063720703 588.5291748046875 252.8558197021484 588.4839477539062 252.7255554199219 588.4839477539062 C 252.5949249267578 588.4839477539062 252.474365234375 588.5294799804688 252.394775390625 588.6088256835938 L 249.8327484130859 591.1708984375 C 249.6573028564453 591.3463745117188 249.6572875976562 591.6542358398438 249.8327484130859 591.8297119140625 L 251.6099243164062 593.6068725585938 C 251.8832855224609 593.8814697265625 251.9335784912109 594.3038940429688 251.7328033447266 594.6346435546875 C 250.8964385986328 596.0057983398438 250.3172912597656 597.48779296875 250.0110626220703 599.0400390625 C 249.9338836669922 599.4310913085938 249.5884246826172 599.71484375 249.1896667480469 599.71484375 L 246.5718994140625 599.71484375 C 246.3149871826172 599.71484375 246.1059875488281 599.9232177734375 246.1059875488281 600.1793212890625 L 246.1059875488281 600.6451416015625 Z" stroke="none"/><path d="M 281.1605529785156 601.969970703125 C 281.4295349121094 601.969970703125 281.6475219726562 601.7518920898438 281.6475219726562 601.482177734375 L 281.6475219726562 600.1793212890625 C 281.6475219726562 599.193359375 280.8406372070312 598.39013671875 279.8493957519531 598.39013671875 L 277.6272277832031 598.39013671875 C 277.300537109375 596.9381713867188 276.7603759765625 595.5573120117188 276.0163879394531 594.274658203125 L 277.5252990722656 592.7664794921875 C 278.2236022949219 592.0682373046875 278.2236022949219 590.931640625 277.5252990722656 590.23486328125 L 274.9674682617188 587.6687622070312 C 274.6280822753906 587.3350219726562 274.1650085449219 587.1677856445312 273.70166015625 587.1677856445312 C 273.2373046875 587.1677856445312 272.7726440429688 587.3358154296875 272.43212890625 587.6725463867188 L 271.0160522460938 589.0938110351562 C 269.7139282226562 588.285400390625 268.3038635253906 587.6867065429688 266.815185546875 587.3091430664062 L 266.815185546875 585.34619140625 C 266.815185546875 584.3594360351562 266.0082397460938 583.5570678710938 265.0170593261719 583.5570678710938 L 261.405029296875 583.5570678710938 C 260.4183349609375 583.5570678710938 259.6158752441406 584.3594360351562 259.6158752441406 585.34619140625 L 259.6158752441406 587.3091430664062 C 258.1189575195312 587.6859741210938 256.7066650390625 588.285400390625 255.4112548828125 589.0930786132812 L 253.9907073974609 587.6717529296875 C 253.6554412841797 587.3368530273438 253.1905364990234 587.16943359375 252.7254638671875 587.16943359375 C 252.2603759765625 587.16943359375 251.7950897216797 587.3368530273438 251.4590606689453 587.6717529296875 L 248.8967132568359 590.234130859375 C 248.1991882324219 590.931640625 248.1991882324219 592.0682373046875 248.8967132568359 592.7664794921875 L 250.4064178466797 594.275390625 C 249.6616821289062 595.5685424804688 249.1207427978516 596.9493408203125 248.7948455810547 598.39013671875 L 246.5718994140625 598.39013671875 C 245.5851593017578 598.39013671875 244.7819976806641 599.193359375 244.7819976806641 600.1793212890625 L 244.7819976806641 601.482177734375 C 244.7819976806641 601.7518920898438 245.0000152587891 601.969970703125 245.2689819335938 601.969970703125 L 281.1605529785156 601.969970703125 M 246.5718994140625 599.3648681640625 L 249.1896667480469 599.3648681640625 C 249.4226837158203 599.3648681640625 249.6227264404297 599.2000732421875 249.6676788330078 598.9722900390625 C 249.9823608398438 597.377197265625 250.5772399902344 595.8569946289062 251.4336090087891 594.4530029296875 C 251.5504760742188 594.260498046875 251.5212554931641 594.013916015625 251.3624267578125 593.8543701171875 L 249.5852661132812 592.0772094726562 C 249.2728271484375 591.7647705078125 249.2728271484375 591.2359008789062 249.5852661132812 590.9234008789062 L 252.1476135253906 588.3610229492188 C 252.2994232177734 588.2095947265625 252.5125579833984 588.1339111328125 252.7255554199219 588.1339111328125 C 252.9382934570312 588.1339111328125 253.1509094238281 588.2094116210938 253.3021850585938 588.3602905273438 L 254.9991912841797 590.0587768554688 C 255.093505859375 590.1531372070312 255.2177581787109 590.20166015625 255.34326171875 590.2015991210938 C 255.4360656738281 590.2015991210938 255.529541015625 590.1751098632812 255.6120300292969 590.1209716796875 C 257.0086059570312 589.1979370117188 258.5549926757812 588.5408935546875 260.2100219726562 588.167724609375 C 260.4325256347656 588.1182861328125 260.5906066894531 587.9205322265625 260.5906066894531 587.6927490234375 L 260.5906066894531 585.34619140625 C 260.5906066894531 584.8973999023438 260.9554748535156 584.531005859375 261.405029296875 584.531005859375 L 265.0170593261719 584.531005859375 C 265.4710693359375 584.531005859375 265.8411865234375 584.8973999023438 265.8411865234375 585.34619140625 L 265.8411865234375 587.6927490234375 C 265.8411865234375 587.9205322265625 265.999267578125 588.1175537109375 266.2202758789062 588.167724609375 C 267.8656005859375 588.5401611328125 269.4112548828125 589.1979370117188 270.8160400390625 590.1217041015625 C 270.8983459472656 590.1760864257812 270.9918518066406 590.20263671875 271.0846862792969 590.20263671875 C 271.2106323242188 590.20263671875 271.3352966308594 590.1536865234375 271.4288940429688 590.0587768554688 L 273.119140625 588.3626098632812 C 273.2746276855469 588.21044921875 273.4890747070312 588.1349487304688 273.7027282714844 588.1349487304688 C 273.9163208007812 588.1349487304688 274.1291198730469 588.21044921875 274.2811889648438 588.3602905273438 L 276.8359985351562 590.9234008789062 C 277.1492004394531 591.2359008789062 277.1492004394531 591.7647705078125 276.8359985351562 592.0772094726562 L 275.0588684082031 593.8543701171875 C 274.8992919921875 594.013916015625 274.8707885742188 594.2619018554688 274.9891967773438 594.4544677734375 C 275.8440551757812 595.8427734375 276.4374389648438 597.3629760742188 276.7543640136719 598.9715576171875 C 276.7992858886719 599.2000732421875 276.9993591308594 599.3648681640625 277.2323608398438 599.3648681640625 L 279.8493957519531 599.3648681640625 C 280.3034362792969 599.3648681640625 280.6727905273438 599.7305297851562 280.6727905273438 600.1793212890625 L 280.6727905273438 600.9951171875 L 245.7559814453125 600.9951171875 L 245.7559814453125 600.1793212890625 C 245.7559814453125 599.7305297851562 246.1223449707031 599.3648681640625 246.5718994140625 599.3648681640625 M 281.1605529785156 602.6699829101562 L 245.2689819335938 602.6699829101562 C 244.6144866943359 602.6699829101562 244.0820007324219 602.1371459960938 244.0820007324219 601.482177734375 L 244.0820007324219 600.1793212890625 C 244.0820007324219 598.8067626953125 245.1989593505859 597.6901245117188 246.5718994140625 597.6901245117188 L 248.2460632324219 597.6901245117188 C 248.5481262207031 596.55078125 248.9814300537109 595.4472045898438 249.5387420654297 594.3978881835938 L 248.4018707275391 593.2615966796875 C 247.4310150146484 592.2897338867188 247.4311370849609 590.7097778320312 248.4017486572266 589.7391357421875 L 250.9640808105469 587.1767578125 C 251.4154815673828 586.7269287109375 252.0571746826172 586.4694213867188 252.7254638671875 586.4694213867188 C 253.3940582275391 586.4694213867188 254.0355377197266 586.7271728515625 254.4853973388672 587.1764526367188 L 255.5204467773438 588.2120971679688 C 256.5872192382812 587.599853515625 257.7252502441406 587.11767578125 258.9158630371094 586.7733764648438 L 258.9158630371094 585.34619140625 C 258.9158630371094 583.9736938476562 260.0325012207031 582.8570556640625 261.405029296875 582.8570556640625 L 265.0170593261719 582.8570556640625 C 266.39453125 582.8570556640625 267.5151672363281 583.9736938476562 267.5151672363281 585.34619140625 L 267.5151672363281 586.7742919921875 C 268.7005004882812 587.1192016601562 269.8368225097656 587.6014404296875 270.9054870605469 588.2130126953125 L 271.9362487792969 587.178466796875 L 271.9380798339844 587.1766357421875 L 271.9399108886719 587.1748657226562 C 272.3942565917969 586.7254638671875 273.036376953125 586.4677734375 273.70166015625 586.4677734375 C 274.3644409179688 586.4677734375 275.0046997070312 586.7235717773438 275.4582824707031 587.169677734375 L 275.4607849121094 587.172119140625 L 275.4632568359375 587.174560546875 L 278.0210571289062 589.7406616210938 C 278.4896850585938 590.208251953125 278.7486877441406 590.8331298828125 278.7490234375 591.498779296875 C 278.7493591308594 592.1652221679688 278.4905700683594 592.7911987304688 278.020263671875 593.261474609375 L 276.885009765625 594.3961791992188 C 277.4413452148438 595.4390258789062 277.8743286132812 596.5430908203125 278.1767272949219 597.6901245117188 L 279.8493957519531 597.6901245117188 C 281.2268676757812 597.6901245117188 282.3475341796875 598.8067626953125 282.3475341796875 600.1793212890625 L 282.3475341796875 601.482177734375 C 282.3475341796875 602.1371459960938 281.8150634765625 602.6699829101562 281.1605529785156 602.6699829101562 Z M 246.4559783935547 600.2951049804688 L 279.9727783203125 600.2951049804688 L 279.9727783203125 600.1793212890625 C 279.9727783203125 600.1173095703125 279.9162902832031 600.0648803710938 279.8493957519531 600.0648803710938 L 277.2323608398438 600.0648803710938 C 276.6665649414062 600.0648803710938 276.1766662597656 599.661865234375 276.0675048828125 599.1065673828125 C 275.7665100097656 597.5787963867188 275.2031555175781 596.136962890625 274.3931274414062 594.8214721679688 C 274.103515625 594.3504638671875 274.173828125 593.7493896484375 274.5639343261719 593.359375 L 276.3410339355469 591.5822143554688 C 276.3680419921875 591.5552978515625 276.3709106445312 591.5159912109375 276.3709106445312 591.5003051757812 C 276.3709106445312 591.4846801757812 276.3680419921875 591.4453125 276.3415832519531 591.4189453125 L 273.789306640625 588.8583374023438 C 273.7791442871094 588.8490600585938 273.74755859375 588.8349609375 273.7027282714844 588.8349609375 C 273.6590576171875 588.8349609375 273.62451171875 588.8486328125 273.6099548339844 588.8617553710938 L 271.9247436523438 590.5529174804688 C 271.7032470703125 590.7775268554688 271.4039916992188 590.9026489257812 271.0846862792969 590.9026489257812 C 270.8515625 590.9027099609375 270.625244140625 590.8345947265625 270.4302062988281 590.7057495117188 C 269.0959167480469 589.828369140625 267.6271057128906 589.203857421875 266.0657348632812 588.8504638671875 C 265.5211791992188 588.726806640625 265.1411743164062 588.2507934570312 265.1411743164062 587.6927490234375 L 265.1411743164062 585.34619140625 C 265.1411743164062 585.2837524414062 265.0843505859375 585.2310180664062 265.0170593261719 585.2310180664062 L 261.405029296875 585.2310180664062 C 261.3429870605469 585.2310180664062 261.2905883789062 585.2837524414062 261.2905883789062 585.34619140625 L 261.2905883789062 587.6927490234375 C 261.2905883789062 588.2532348632812 260.90869140625 588.7295532226562 260.3618469238281 588.85107421875 C 258.7925720214844 589.2048950195312 257.3236389160156 589.8287963867188 255.9980010986328 590.7049560546875 C 255.8012390136719 590.8340454101562 255.5755462646484 590.901611328125 255.3433380126953 590.901611328125 C 255.0264282226562 590.901611328125 254.7284088134766 590.778076171875 254.5041046142578 590.5536499023438 L 252.8069915771484 588.8550415039062 C 252.8009490966797 588.8489990234375 252.7706451416016 588.8339233398438 252.7255554199219 588.8339233398438 C 252.6795806884766 588.8339233398438 252.6493835449219 588.8491821289062 252.6419677734375 588.8566284179688 L 250.0802459716797 591.4183959960938 C 250.0412292480469 591.4573974609375 250.0411987304688 591.543212890625 250.0802459716797 591.5822143554688 L 251.8574066162109 593.359375 C 252.2451782226562 593.7489624023438 252.3164978027344 594.3475952148438 252.031982421875 594.8162231445312 C 251.216796875 596.1527099609375 250.6526489257812 597.59619140625 250.3544464111328 599.1077880859375 C 250.2449645996094 599.662353515625 249.755126953125 600.0648803710938 249.1896667480469 600.0648803710938 L 246.5718994140625 600.0648803710938 C 246.5090637207031 600.0648803710938 246.4559783935547 600.1173095703125 246.4559783935547 600.1793212890625 L 246.4559783935547 600.2951049804688 Z" stroke="none" fill="#fff"/></g></g><g transform="translate(13.027 50.264)"><g transform="translate(-259.084 -597.84)" fill="#fff"><path d="M 274.0386047363281 605.9017333984375 L 274.0236206054688 605.9017333984375 L 259.5711059570312 605.9017333984375 C 259.340087890625 605.9017333984375 259.1170654296875 605.8046875 258.9592590332031 605.6354370117188 C 258.8009643554688 605.4656372070312 258.7197875976562 605.236083984375 258.7365417480469 605.005615234375 C 259.028564453125 600.7918090820312 262.5699768066406 597.4900512695312 266.7988891601562 597.4900512695312 C 268.8225402832031 597.4900512695312 270.7627868652344 598.248779296875 272.2621459960938 599.62646484375 C 273.7505798339844 600.994140625 274.6670837402344 602.8446044921875 274.8456115722656 604.8407592773438 C 274.8655395507812 604.9122924804688 274.8756103515625 604.9871826171875 274.8756103515625 605.0640258789062 C 274.8756103515625 605.5259399414062 274.5001220703125 605.9017333984375 274.0386047363281 605.9017333984375 Z M 260.532470703125 604.22705078125 L 273.0632019042969 604.22705078125 C 272.4389343261719 601.3140258789062 269.8151245117188 599.1647338867188 266.7988891601562 599.1647338867188 C 263.7826843261719 599.1647338867188 261.1579895019531 601.3139038085938 260.532470703125 604.22705078125 Z" stroke="none"/><path d="M 274.0386047363281 605.5517578125 C 274.3075866699219 605.5517578125 274.5256042480469 605.333740234375 274.5256042480469 605.0640258789062 C 274.5256042480469 605.0093383789062 274.5173645019531 604.9576416015625 274.5001525878906 604.9081420898438 C 274.1637268066406 600.9351196289062 270.80419921875 597.8400268554688 266.7988891601562 597.8400268554688 C 262.7530517578125 597.8400268554688 259.3650512695312 600.998779296875 259.0856323242188 605.031005859375 C 259.0758666992188 605.1651611328125 259.123046875 605.2978515625 259.2152404785156 605.396728515625 C 259.307373046875 605.4955444335938 259.4362487792969 605.5517578125 259.5711059570312 605.5517578125 L 274.0236206054688 605.5517578125 L 274.0386047363281 605.5517578125 M 266.7988891601562 598.8147583007812 C 270.1591186523438 598.8147583007812 272.9994506835938 601.306640625 273.48193359375 604.5770263671875 L 260.1135559082031 604.5770263671875 C 260.5975341796875 601.305908203125 263.4385986328125 598.8147583007812 266.7988891601562 598.8147583007812 M 274.0386047363281 606.2517700195312 L 274.0236206054688 606.2517700195312 L 259.5711059570312 606.2517700195312 C 259.2433776855469 606.2517700195312 258.9270629882812 606.1141357421875 258.7032470703125 605.8740844726562 C 258.478759765625 605.63330078125 258.3636779785156 605.3074951171875 258.3874816894531 604.980224609375 C 258.6920471191406 600.5848999023438 262.3868713378906 597.1400146484375 266.7988891601562 597.1400146484375 C 268.9104919433594 597.1400146484375 270.934814453125 597.9315185546875 272.4989624023438 599.3687744140625 C 274.0444946289062 600.7888793945312 274.9989624023438 602.7081909179688 275.1915283203125 604.7802124023438 C 275.2141723632812 604.8720092773438 275.2255859375 604.9671020507812 275.2255859375 605.0640258789062 C 275.2255859375 605.7189331054688 274.693115234375 606.2517700195312 274.0386047363281 606.2517700195312 Z M 260.9819946289062 603.8770141601562 L 272.6138610839844 603.8770141601562 C 271.8721008300781 601.3408203125 269.5022583007812 599.5147705078125 266.7988891601562 599.5147705078125 C 264.0956726074219 599.5147705078125 261.7250366210938 601.3409423828125 260.9819946289062 603.8770141601562 Z" stroke="none" fill="#fff"/></g></g><g transform="translate(13.482 34.883)"><g transform="translate(-259.691 -577.311)" fill="#fff"><path d="M 283.4166564941406 578.6357421875 L 260.1787719726562 578.6357421875 C 259.7168273925781 578.6357421875 259.3410339355469 578.2603149414062 259.3410339355469 577.7987670898438 C 259.3410339355469 577.3367919921875 259.7168273925781 576.9609985351562 260.1787719726562 576.9609985351562 L 283.4166564941406 576.9609985351562 C 283.8786010742188 576.9609985351562 284.25439453125 577.3367919921875 284.25439453125 577.7987670898438 C 284.25439453125 578.2603149414062 283.8786010742188 578.6357421875 283.4166564941406 578.6357421875 Z" stroke="none"/><path d="M 283.4166564941406 578.2857666015625 C 283.6863708496094 578.2857666015625 283.9043884277344 578.0676879882812 283.9043884277344 577.7987670898438 C 283.9043884277344 577.5298461914062 283.6863708496094 577.3109741210938 283.4166564941406 577.3109741210938 L 260.1787719726562 577.3109741210938 C 259.9090270996094 577.3109741210938 259.6910400390625 577.5298461914062 259.6910400390625 577.7987670898438 C 259.6910400390625 578.0676879882812 259.9090270996094 578.2857666015625 260.1787719726562 578.2857666015625 L 283.4166564941406 578.2857666015625 M 283.4166564941406 578.9857788085938 L 260.1787719726562 578.9857788085938 C 259.5238647460938 578.9857788085938 258.9910278320312 578.4533081054688 258.9910278320312 577.7987670898438 C 258.9910278320312 577.143798828125 259.5238647460938 576.6109619140625 260.1787719726562 576.6109619140625 L 283.4166564941406 576.6109619140625 C 284.0715942382812 576.6109619140625 284.6044006347656 577.143798828125 284.6044006347656 577.7987670898438 C 284.6044006347656 578.4533081054688 284.0715942382812 578.9857788085938 283.4166564941406 578.9857788085938 Z" stroke="none" fill="#fff"/></g></g><g transform="translate(27.22 26.96)"><g transform="translate(-278.028 -566.736)" fill="#fff"><path d="M 278.5157165527344 576.0211791992188 C 278.0538024902344 576.0211791992188 277.6780090332031 575.6458129882812 277.6780090332031 575.184326171875 L 277.6780090332031 567.2237548828125 C 277.6780090332031 566.7618408203125 278.0538024902344 566.3861083984375 278.5157165527344 566.3861083984375 C 278.977294921875 566.3861083984375 279.352783203125 566.7618408203125 279.352783203125 567.2237548828125 L 279.352783203125 575.184326171875 C 279.352783203125 575.6458129882812 278.977294921875 576.0211791992188 278.5157165527344 576.0211791992188 Z" stroke="none"/><path d="M 278.5157165527344 575.6712036132812 C 278.7846984863281 575.6712036132812 279.0027770996094 575.4531860351562 279.0027770996094 575.184326171875 L 279.0027770996094 567.2237548828125 C 279.0027770996094 566.9540405273438 278.7846984863281 566.736083984375 278.5157165527344 566.736083984375 C 278.2460021972656 566.736083984375 278.0280151367188 566.9540405273438 278.0280151367188 567.2237548828125 L 278.0280151367188 575.184326171875 C 278.0280151367188 575.4531860351562 278.2460021972656 575.6712036132812 278.5157165527344 575.6712036132812 M 278.5157165527344 576.3712158203125 C 277.8608093261719 576.3712158203125 277.3280029296875 575.8387451171875 277.3280029296875 575.184326171875 L 277.3280029296875 567.2237548828125 C 277.3280029296875 566.56884765625 277.8608093261719 566.0360717773438 278.5157165527344 566.0360717773438 C 279.1702575683594 566.0360717773438 279.7027893066406 566.56884765625 279.7027893066406 567.2237548828125 L 279.7027893066406 575.184326171875 C 279.7027893066406 575.8387451171875 279.1702575683594 576.3712158203125 278.5157165527344 576.3712158203125 Z" stroke="none" fill="#fff"/></g></g><g transform="translate(31.927 21.778)"><g transform="translate(-284.31 -559.82)" fill="#fff"><path d="M 284.7969970703125 574.3880615234375 C 284.3354797363281 574.3880615234375 283.9600219726562 574.0126342773438 283.9600219726562 573.5510864257812 L 283.9600219726562 560.307861328125 C 283.9600219726562 559.8458862304688 284.3354797363281 559.4700927734375 284.7969970703125 559.4700927734375 C 285.2585144042969 559.4700927734375 285.6339721679688 559.8458862304688 285.6339721679688 560.307861328125 L 285.6339721679688 573.5510864257812 C 285.6339721679688 574.0126342773438 285.2585144042969 574.3880615234375 284.7969970703125 574.3880615234375 Z" stroke="none"/><path d="M 284.7969970703125 574.0380859375 C 285.0659790039062 574.0380859375 285.2839660644531 573.820068359375 285.2839660644531 573.5510864257812 L 285.2839660644531 560.307861328125 C 285.2839660644531 560.0381469726562 285.0659790039062 559.820068359375 284.7969970703125 559.820068359375 C 284.5280456542969 559.820068359375 284.3100280761719 560.0381469726562 284.3100280761719 560.307861328125 L 284.3100280761719 573.5510864257812 C 284.3100280761719 573.820068359375 284.5280456542969 574.0380859375 284.7969970703125 574.0380859375 M 284.7969970703125 574.7380981445312 C 284.1424865722656 574.7380981445312 283.6100158691406 574.2056274414062 283.6100158691406 573.5510864257812 L 283.6100158691406 560.307861328125 C 283.6100158691406 559.6528930664062 284.1424865722656 559.1200561523438 284.7969970703125 559.1200561523438 C 285.4515075683594 559.1200561523438 285.9839782714844 559.6528930664062 285.9839782714844 560.307861328125 L 285.9839782714844 573.5510864257812 C 285.9839782714844 574.2056274414062 285.4515075683594 574.7380981445312 284.7969970703125 574.7380981445312 Z" stroke="none" fill="#fff"/></g></g><g transform="translate(35.691 23.894)"><g transform="translate(-289.335 -562.644)" fill="#fff"><path d="M 289.8219909667969 575.0594482421875 C 289.3604736328125 575.0594482421875 288.9849853515625 574.6840209960938 288.9849853515625 574.2225341796875 L 288.9849853515625 563.1309814453125 C 288.9849853515625 562.66943359375 289.3604736328125 562.2940063476562 289.8219909667969 562.2940063476562 C 290.2839050292969 562.2940063476562 290.6597290039062 562.66943359375 290.6597290039062 563.1309814453125 L 290.6597290039062 574.2225341796875 C 290.6597290039062 574.6840209960938 290.2839050292969 575.0594482421875 289.8219909667969 575.0594482421875 Z" stroke="none"/><path d="M 289.8219909667969 574.70947265625 C 290.0917053222656 574.70947265625 290.3097229003906 574.491455078125 290.3097229003906 574.2225341796875 L 290.3097229003906 563.1309814453125 C 290.3097229003906 562.8619995117188 290.0917053222656 562.6439819335938 289.8219909667969 562.6439819335938 C 289.5530395507812 562.6439819335938 289.3349914550781 562.8619995117188 289.3349914550781 563.1309814453125 L 289.3349914550781 574.2225341796875 C 289.3349914550781 574.491455078125 289.5530395507812 574.70947265625 289.8219909667969 574.70947265625 M 289.8219909667969 575.4094848632812 C 289.16748046875 575.4094848632812 288.6349792480469 574.8770141601562 288.6349792480469 574.2225341796875 L 288.6349792480469 563.1309814453125 C 288.6349792480469 562.4764404296875 289.16748046875 561.9439697265625 289.8219909667969 561.9439697265625 C 290.4768981933594 561.9439697265625 291.0097351074219 562.4764404296875 291.0097351074219 563.1309814453125 L 291.0097351074219 574.2225341796875 C 291.0097351074219 574.8770141601562 290.4768981933594 575.4094848632812 289.8219909667969 575.4094848632812 Z" stroke="none" fill="#fff"/></g></g></g></g></g></svg>