<svg xmlns="http://www.w3.org/2000/svg" width="99.9" height="99.9" viewBox="0 0 99.9 99.9"><g transform="translate(0 0)"><path d="M49.95,0A49.95,49.95,0,1,1,0,49.95,49.95,49.95,0,0,1,49.95,0Z" transform="translate(0 0)" fill="#2c9eff"/><g transform="translate(21.978 20.646)"><g transform="translate(0 0)"><path d="M268.958,274.642A10.611,10.611,0,0,0,262.3,293.5h-3.329a12.961,12.961,0,1,1,19.989,0h-3.331a10.606,10.606,0,0,0-6.667-18.859Z" transform="translate(-239.451 -272.287)" fill="none" stroke="#fff" stroke-linecap="round" stroke-linejoin="round" stroke-width="2"/><path d="M267.8,289.965a1.18,1.18,0,1,0,0,2.361h1.176a1.178,1.178,0,0,0,2.356,0,3.538,3.538,0,0,0,0-7.077h-2.356a1.175,1.175,0,1,1,0-2.349h3.533a1.18,1.18,0,0,0,0-2.36h-1.177a1.178,1.178,0,1,0-2.356,0,3.535,3.535,0,1,0,0,7.07h2.356a1.178,1.178,0,0,1,0,2.355Zm-8.249-3.533a10.6,10.6,0,1,1,17.263,8.249H263.482A10.593,10.593,0,0,1,259.547,286.432Z" transform="translate(-240.636 -273.468)" fill="none" stroke="#fff" stroke-linecap="round" stroke-linejoin="round" stroke-width="2"/><path d="M269.564,292.917a1.111,1.111,0,0,1,1.184-1.177h3.532a1.177,1.177,0,0,0,0-2.355h-2.356a3.535,3.535,0,1,1,0-7.07,1.178,1.178,0,1,1,2.356,0h1.177a1.18,1.18,0,0,1,0,2.36h-3.533a1.175,1.175,0,1,0,0,2.349h2.356a3.538,3.538,0,0,1,0,7.077,1.178,1.178,0,0,1-2.356,0h-1.176A1.115,1.115,0,0,1,269.564,292.917Z" transform="translate(-243.588 -275.243)" fill="none" stroke="#fff" stroke-linecap="round" stroke-linejoin="round" stroke-width="2"/><path d="M235.875,313.558h-3.546a1.177,1.177,0,0,1-1.177-1.177c0-.6,4.079-7.162,4.71-8.242h24.751l-5.185,8.366a2.6,2.6,0,0,1-2,1.054Z" transform="translate(-231.152 -282.925)" fill="none" stroke="#fff" stroke-linecap="round" stroke-linejoin="round" stroke-width="2"/><path d="M282.1,304.139h10.968c.638,1.08,4.7,7.644,4.7,8.242a1.171,1.171,0,0,1-1.172,1.177H282.58a2.625,2.625,0,0,1-2.009-1.054l-5.173-8.354v-.012H282.1Z" transform="translate(-245.93 -282.925)" fill="none" stroke="#fff" stroke-linecap="round" stroke-linejoin="round" stroke-width="2"/><path d="M262.982,333.594H239.421a1.108,1.108,0,0,1-1.177-1.171V313.558H255.8a2.6,2.6,0,0,0,2-1.054l5.185-8.366.007.012v29.443Z" transform="translate(-233.521 -282.925)" fill="none" stroke="#fff" stroke-linecap="round" stroke-linejoin="round" stroke-width="2"/><path d="M282.58,313.564h10.481v18.865a1.108,1.108,0,0,1-1.179,1.171H275.4V304.157l5.173,8.354A2.625,2.625,0,0,0,282.58,313.564Z" transform="translate(-245.93 -282.931)" fill="none" stroke="#fff" stroke-linecap="round" stroke-linejoin="round" stroke-width="2"/><path d="M275.4,304.139v29.456" transform="translate(-245.93 -282.925)" fill="none" stroke="#fff" stroke-linecap="round" stroke-linejoin="round" stroke-width="2"/><path d="M262.982,338.321H239.421a1.108,1.108,0,0,1-1.177-1.171V318.291" transform="translate(-233.521 -287.652)" fill="none" stroke="#fff" stroke-linecap="round" stroke-linejoin="round" stroke-width="2"/><path d="M275.388,338.286h16.491a1.108,1.108,0,0,0,1.179-1.171v-18.93" transform="translate(-245.927 -287.617)" fill="none" stroke="#fff" stroke-linecap="round" stroke-linejoin="round" stroke-width="2"/><path d="M277.737,304.139h-2.349l.007.012,5.173,8.354a2.625,2.625,0,0,0,2.009,1.054H296.6a1.171,1.171,0,0,0,1.172-1.177c0-.6-4.067-7.162-4.7-8.242h-7.636" transform="translate(-245.927 -282.925)" fill="none" stroke="#fff" stroke-linecap="round" stroke-linejoin="round" stroke-width="2"/><path d="M257.432,304.139h3.181l-5.185,8.366a2.6,2.6,0,0,1-2,1.054h-21.1a1.177,1.177,0,0,1-1.177-1.177c0-.6,4.079-7.162,4.71-8.242h14.807" transform="translate(-231.152 -282.925)" fill="none" stroke="#fff" stroke-linecap="round" stroke-linejoin="round" stroke-width="2"/><line x2="14.688" transform="translate(7.052 46.689)" fill="none" stroke="#fff" stroke-linecap="round" stroke-linejoin="round" stroke-width="2"/><line x2="8.633" transform="translate(7.052 44.807)" fill="none" stroke="#fff" stroke-linecap="round" stroke-linejoin="round" stroke-width="2"/><line x2="10.701" transform="translate(7.052 42.915)" fill="none" stroke="#fff" stroke-linecap="round" stroke-linejoin="round" stroke-width="2"/><line x2="7.07" transform="translate(7.052 41.035)" fill="none" stroke="#fff" stroke-linecap="round" stroke-linejoin="round" stroke-width="2"/><path d="M285.468,300H288.8a12.888,12.888,0,0,0,2.966-8.249" transform="translate(-249.293 -278.789)" fill="none" stroke="#fff" stroke-linecap="round" stroke-linejoin="round" stroke-width="2"/><path d="M281.923,285.251a12.962,12.962,0,1,0-22.956,8.249H262.3" transform="translate(-239.451 -272.287)" fill="none" stroke="#fff" stroke-linecap="round" stroke-linejoin="round" stroke-width="2"/><path d="M278.915,300h4.364a10.574,10.574,0,0,0,3.944-8.249" transform="translate(-247.105 -278.789)" fill="none" stroke="#fff" stroke-linecap="round" stroke-linejoin="round" stroke-width="2"/><path d="M280.755,286.432a10.6,10.6,0,1,0-17.273,8.249h3.435" transform="translate(-240.636 -273.468)" fill="none" stroke="#fff" stroke-linecap="round" stroke-linejoin="round" stroke-width="2"/><path d="M274.28,287.023h-2.356a1.175,1.175,0,1,1,0-2.349h3.533a1.18,1.18,0,0,0,0-2.36H274.28a1.178,1.178,0,1,0-2.356,0,3.535,3.535,0,1,0,0,7.07h2.356a1.177,1.177,0,0,1,0,2.355h-3.532a1.181,1.181,0,1,0,0,2.361h1.176a1.178,1.178,0,0,0,2.356,0,3.538,3.538,0,0,0,0-7.077Z" transform="translate(-243.588 -275.243)" fill="none" stroke="#fff" stroke-linecap="round" stroke-linejoin="round" stroke-width="2"/></g></g></g></svg>