<svg xmlns="http://www.w3.org/2000/svg" width="99.9" height="99.9" viewBox="0 0 99.9 99.9"><g transform="translate(0 0)"><path d="M49.95,0A49.95,49.95,0,1,1,0,49.95,49.95,49.95,0,0,1,49.95,0Z" transform="translate(0 0)" fill="#2c9eff"/><g transform="translate(23.31 23.31)"><g transform="translate(0 0)"><g transform="translate(0 7.893)"><path d="M512.9,327.414a22.392,22.392,0,1,1,14.869-39.13.433.433,0,1,1-.575.648,21.483,21.483,0,1,0,1.98,2,.445.445,0,0,1-.212-.138.434.434,0,0,1,.053-.611l.053-.044a.434.434,0,0,1,.6.045A22.394,22.394,0,0,1,512.9,327.414Z" transform="translate(-490.502 -282.631)" fill="#fff" stroke="#fff" stroke-width="1"/></g><g transform="translate(39.929)"><path d="M556.614,283.563h0a3.092,3.092,0,0,1-.849-.121l-3.925-.951a.431.431,0,0,1-.318-.319l-.949-3.936a3.012,3.012,0,0,1,.793-2.981l4.35-4.348a.433.433,0,0,1,.726.2l1.292,5.18,5.179,1.291a.434.434,0,0,1,.2.727l-4.349,4.348A3.031,3.031,0,0,1,556.614,283.563Zm-4.313-1.851,3.685.893a2.258,2.258,0,0,0,.628.092h0a2.168,2.168,0,0,0,1.537-.654l3.807-3.808-4.689-1.17a.434.434,0,0,1-.315-.316l-1.17-4.69-3.808,3.808a2.135,2.135,0,0,0-.568,2.148Z" transform="translate(-550.455 -270.78)" fill="#fff" stroke="#fff" stroke-width="1"/></g><g transform="translate(4.062 11.956)"><path d="M514.933,325.388a18.328,18.328,0,1,1,11.937-32.233.433.433,0,0,1-.565.655,17.416,17.416,0,1,0,1.939,1.946.433.433,0,1,1,.659-.56,18.329,18.329,0,0,1-13.971,30.191Z" transform="translate(-496.601 -288.732)" fill="#fff" stroke="#fff" stroke-width="1"/></g><g transform="translate(8.516 16.41)"><path d="M517.167,323.175a13.878,13.878,0,1,1,8.878-24.541.433.433,0,0,1-.555.665,12.964,12.964,0,1,0,1.668,1.661.433.433,0,1,1,.665-.555,13.879,13.879,0,0,1-10.656,22.771Z" transform="translate(-503.289 -295.419)" fill="#fff" stroke="#fff" stroke-width="1"/></g><g transform="translate(13.068 20.961)"><path d="M519.45,320.9a9.323,9.323,0,1,1,5.761-16.648.433.433,0,1,1-.537.679,8.456,8.456,0,1,0,1.368,1.355.433.433,0,0,1,.675-.543,9.234,9.234,0,0,1,2.052,5.84A9.329,9.329,0,0,1,519.45,320.9Z" transform="translate(-510.124 -302.253)" fill="#fff" stroke="#fff" stroke-width="1"/></g><g transform="translate(21.961 1.38)"><path d="M523.91,302.193a.433.433,0,0,1-.415-.556c.395-1.335,5.53-7.477,18.761-20.708a.433.433,0,0,1,.727.2l.307,1.271,1.279.313a.433.433,0,0,1,.2.727C533.716,294.5,525.561,301.857,524,302.185A.5.5,0,0,1,523.91,302.193Zm18.412-20.106c-10.394,10.416-15.249,15.924-17.085,18.362,2.561-1.931,8.422-7.139,18.379-17.074l-.789-.192a.432.432,0,0,1-.318-.319Zm7.56-3.94a.423.423,0,0,1-.1-.013l-1.519-.376a.432.432,0,0,1-.316-.316l-.378-1.519a.434.434,0,0,1,.114-.41l2.145-2.145a1.783,1.783,0,0,1,2.508,0,1.737,1.737,0,0,1,0,2.508l-2.144,2.145A.436.436,0,0,1,549.883,278.147Zm-1.162-1.168,1.028.255,1.971-1.971a.881.881,0,0,0,0-1.285.9.9,0,0,0-1.283,0l-1.971,1.973Z" transform="translate(-523.477 -272.852)" fill="#fff" stroke="#fff" stroke-width="1"/></g><g transform="translate(18.094 25.987)"><path d="M521.97,318.393a4.3,4.3,0,1,1,2.494-7.8.433.433,0,0,1,.081.629c-.522.63-.919,1.132-1.221,1.531.4-.3.9-.693,1.531-1.216a.433.433,0,0,1,.628.083,4.244,4.244,0,0,1,.787,2.478A4.3,4.3,0,0,1,521.97,318.393Zm0-7.728A3.431,3.431,0,1,0,525.4,314.1a3.4,3.4,0,0,0-.382-1.578c-2.287,1.86-2.775,1.962-2.964,2a.435.435,0,0,1-.406-.13.43.43,0,0,1-.1-.413c.089-.312.4-.952,2.009-2.927A3.416,3.416,0,0,0,521.97,310.665Z" transform="translate(-517.67 -309.799)" fill="#fff" stroke="#fff" stroke-width="1"/></g></g></g></g></svg>