<svg xmlns="http://www.w3.org/2000/svg" xmlns:xlink="http://www.w3.org/1999/xlink" width="178" height="218" viewBox="0 0 178 218"><defs><clipPath id="a"><rect width="57.959" height="32.083" transform="translate(301.521 7000.497)" fill="none"/></clipPath></defs><g transform="translate(-240 -7000.497)"><path d="M329,7039.866c49.153,0,89,39.988,89,89.315s-39.847,89.315-89,89.315-89-39.989-89-89.315,39.847-89.315,89-89.315" fill="#fff"/><g style="isolation:isolate"><g clip-path="url(#a)"><g style="isolation:isolate"><g clip-path="url(#a)"><text transform="translate(301.521 7017.788)" fill="#222" font-size="20" font-family="LucidaGrande, Lucida Grande"><tspan x="0" y="0">STEP4</tspan></text></g></g></g></g><rect width="88.708" height="13.07" transform="translate(285.916 7146.106)" fill="#110239"/><path d="M281.493,7084.047h97.553a4,4,0,0,1,3.995,4.009v62.982a4,4,0,0,1-3.995,4.008H281.493a4,4,0,0,1-4-4.008v-62.982a4,4,0,0,1,4-4.009" fill="#110239"/><rect width="95.824" height="60.858" transform="translate(282.358 7088.751)" fill="#fefefe"/><path d="M267.211,7174v1.945c0,1.074,1.164,1.945,2.6,1.945H390.727c1.437,0,2.6-.87,2.6-1.945v-1.941Z" fill="#110239"/><path d="M330.27,7159.025H278.506c-.176.188-8.313,7.5-10.8,12.928-1.062,2.321-.368,3.543,1.611,3.543h121.9c1.977,0,2.672-1.222,1.61-3.543-2.485-5.43-10.624-12.74-10.8-12.928Z" fill="#110239"/><path d="M386.778,7172.722h-110.3l7.643-11.355h95.01Z" fill="#9c9eb9"/><path d="M385.436,7170.73l-.238-.355h-7.361l-1.37-2.754h6.876l-.238-.355H376.29l-1.371-2.755h6.331l-.238-.354h-6.269l-1.388-2.788h-.636l1.366,2.788H366.2l-1.106-2.788h-.636l1.084,2.788h-7.88l-.823-2.788h-.636l.8,2.788h-7.88l-.541-2.788h-.636l.519,2.788h-7.88l-.259-2.788H339.7l.237,2.788h-7.481v-2.788h-.7v2.788H324l.237-2.788H323.6l-.259,2.788h-7.88l.519-2.788h-.636l-.541,2.788h-7.88l.8-2.788h-.636l-.823,2.788h-7.88l1.083-2.788h-.636l-1.1,2.788h-7.88l1.366-2.788h-.636l-1.388,2.788h-6.949l-.24.354h7.012l-1.37,2.755h-7.5l-.24.355h7.558l-1.37,2.754h-8.042l-.24.355h8.1l-.991,1.994h.724l.976-1.994h8.494l-.79,1.994h.724l.774-1.994h8.494l-.587,1.994h.725l.572-1.994h8.494l-.385,1.994h.725l.37-1.994h8.494l-.184,1.994h.724l.169-1.994h8.308v1.994h.7v-1.994h8.037l.169,1.994h.724l-.184-1.994h8.494l.37,1.994h.724l-.385-1.994h8.494l.572,1.994h.724l-.588-1.994h8.494l.775,1.994h.724l-.79-1.994h8.494l.976,1.994h.724L378,7170.73Zm-87.181-6.222h7.912l-.813,2.754h-8.17Zm-8.574,0H297.6l-1.092,2.754h-8.17Zm5.589,5.866h-8.461l1.35-2.755h8.2Zm9.168,0h-8.459l1.07-2.755h8.2Zm9.166,0h-8.461l.791-2.755h8.2Zm.6-3.111h-8.171l.791-2.754h7.914Zm8.563,3.111h-8.458l.513-2.755h8.2Zm.289-3.111h-8.171l.513-2.754h7.912Zm8.7,3.111h-8.277l.233-2.755h8.046Zm0-3.111H323.74l.234-2.754h7.781Zm.7-2.754h7.51l.234,2.754h-7.745Zm0,5.866v-2.755h7.775l.233,2.755Zm41.8-5.866,1.35,2.754h-8.17l-1.092-2.754Zm-8.573,0,1.07,2.754h-8.17l-.813-2.754Zm-25.059,0h7.912l.513,2.754h-8.17Zm.543,5.866-.256-2.755h8.2l.512,2.755Zm8.029-5.866h7.914l.791,2.754H349.73Zm1.137,5.866-.534-2.755H358l.791,2.755Zm9.166,0-.812-2.755h8.2l1.07,2.755Zm9.168,0-1.092-2.755h8.2l1.35,2.755Z" fill="#d0d1de"/><path d="M330.269,7175.5h-5.356a1.106,1.106,0,0,0,.267.744.573.573,0,0,0,.406.151h9.368a.575.575,0,0,0,.406-.151,1.106,1.106,0,0,0,.267-.744Z" fill="#110239"/><rect width="95.816" height="60.853" transform="translate(282.358 7088.756)" fill="#fefefe"/><path d="M332.044,7119.8l-8.646,3.859-10.934-10.975-30.106,23.023v13.9h95.816V7078.1l-40.032,48.618Z" fill="#01c7e2"/><rect width="3.058" height="2.326" transform="translate(301.253 7131.034)" fill="#fefefe"/><rect width="3.058" height="2.326" transform="translate(305.565 7131.034)" fill="#fefefe"/><rect width="3.058" height="2.326" transform="translate(309.878 7131.034)" fill="#fd425f"/><rect width="3.058" height="2.326" transform="translate(314.19 7131.034)" fill="#fefefe"/><rect width="3.058" height="2.326" transform="translate(318.502 7131.034)" fill="#fefefe"/><rect width="3.058" height="2.326" transform="translate(322.814 7131.034)" fill="#fd425f"/><rect width="3.058" height="2.326" transform="translate(301.253 7135.007)" fill="#fefefe"/><rect width="3.058" height="2.326" transform="translate(305.565 7135.007)" fill="#fefefe"/><rect width="3.058" height="2.326" transform="translate(309.878 7135.007)" fill="#fefefe"/><rect width="3.058" height="2.326" transform="translate(314.19 7135.007)" fill="#fefefe"/><rect width="3.058" height="2.326" transform="translate(318.502 7135.007)" fill="#fd425f"/><rect width="3.058" height="2.326" transform="translate(322.814 7135.007)" fill="#fefefe"/><rect width="3.058" height="2.327" transform="translate(301.253 7138.979)" fill="#fefefe"/><rect width="3.058" height="2.327" transform="translate(305.565 7138.979)" fill="#fd425f"/><rect width="3.058" height="2.327" transform="translate(309.878 7138.979)" fill="#fefefe"/><rect width="3.058" height="2.327" transform="translate(314.19 7138.979)" fill="#fefefe"/><rect width="3.058" height="2.327" transform="translate(318.502 7138.979)" fill="#fefefe"/><rect width="3.058" height="2.327" transform="translate(322.814 7138.979)" fill="#fefefe"/><rect width="3.058" height="2.327" transform="translate(301.253 7142.952)" fill="#fefefe"/><rect width="3.058" height="2.327" transform="translate(305.565 7142.952)" fill="#fefefe"/><rect width="3.058" height="2.327" transform="translate(309.878 7142.952)" fill="#fd425f"/><rect width="3.058" height="2.327" transform="translate(314.19 7142.952)" fill="#fefefe"/><path d="M333.08,7124.451l-.307-.3-.389.163-.246-.6.763-.323.607.6Z" fill="#fff"/><path d="M326.113,7126.959l-.247-.6,1.05-.44.246.6Zm2.1-.886-.245-.6,1.046-.439.247.6Zm2.09-.884-.245-.6,1.043-.438.245.6Z" fill="#fff"/><path d="M324.3,7127.721l-.634-.557.4-.5.338.3.4-.171.246.6Z" fill="#fff"/><path d="M322.743,7126.352l-.927-.811.406-.495.926.812Zm-1.855-1.624-.927-.812.406-.494.927.812Zm-1.856-1.625-.927-.813.407-.495.926.814Zm-1.856-1.629-.927-.813.409-.493.927.813Zm-1.855-1.625-.929-.814.409-.491.929.812Z" fill="#fff"/><path d="M313.465,7118.224l-.3-.262-.322.226-.364-.539.721-.506.673.591Z" fill="#fff"/><path d="M284.517,7138.156l-.373-.552,1.114-.785.373.551Zm2.225-1.569-.372-.551,1.11-.783.372.551Zm2.218-1.564-.372-.548,1.107-.78.372.549Zm2.212-1.557-.372-.548,1.1-.776.372.548Zm2.2-1.553-.37-.547,1.1-.774.372.548Zm2.2-1.547-.37-.547,1.1-.769.37.545Zm2.187-1.541-.37-.547,1.091-.768.369.544Zm2.179-1.537-.369-.545,1.087-.764.369.543Zm2.171-1.53-.369-.544,1.083-.763.369.544Zm2.164-1.525-.369-.543,1.079-.758.369.54Zm2.154-1.519-.368-.541,1.074-.757.368.541Zm2.146-1.515-.365-.54,1.072-.754.366.54Zm2.142-1.505-.366-.54,1.066-.751.368.539Z" fill="#fff"/><path d="M340.52,7128.691l-.47-.438.821-.959.47.438Zm1.641-1.919-.469-.438.818-.956.469.438Zm1.636-1.912-.469-.437.816-.954.468.438Zm1.63-1.906-.467-.437.813-.95.467.438Zm1.625-1.9-.467-.437.81-.944.466.434Zm1.618-1.893-.466-.436.808-.943.466.435Zm1.612-1.885-.464-.435.8-.94.466.435Zm1.607-1.879-.464-.434.8-.936.464.431Zm1.6-1.872-.463-.432.8-.936.463.432Zm1.6-1.867-.463-.431.8-.93.463.43Zm1.591-1.858-.462-.432.794-.928.46.431Zm1.585-1.854-.462-.43.791-.924.46.429Zm1.58-1.847-.46-.43.787-.919.46.428Zm1.573-1.84-.459-.43.786-.917.459.427Zm1.57-1.834-.459-.429.783-.914.458.427Zm1.563-1.827-.458-.428.779-.911.458.428Zm1.558-1.821-.458-.427.778-.9.456.427Zm1.552-1.815-.456-.427.773-.9.456.427Zm1.547-1.807-.456-.425.772-.9.455.425Zm1.542-1.806-.455-.424.769-.9.455.425Zm1.536-1.8-.453-.425.767-.894.453.422Zm1.532-1.791-.454-.424.764-.892.454.423Zm1.426-1.7-.453-.422.764-.893.453.424Zm1.426-1.7-.453-.423.764-.893.453.424Z" fill="#fff"/><path d="M339.068,7130.38l-.694-.687.426-.466.222.219.2-.231.471.438Z" fill="#fff"/><path d="M337.319,7128.646l-1.06-1.049.426-.465,1.06,1.048Zm-2.119-2.1-1.061-1.049.428-.465,1.06,1.048Z" fill="#fff"/><path d="M375.628,7071l-37.351,47.516-6.044-7.319-8.846,4.214-11.239-12.034-29.791,24.3v2.923l29.682-24.215,11.07,11.852,8.8-4.185,6.4,7.748,38.762-49.311a15.864,15.864,0,0,1-1.443-1.49" fill="#fd425f"/><path d="M381.415,7066.7l-8.813,2.993,5.829,5.851Z" fill="#fd425f"/><path d="M293.888,7096.5c1.991.148,3.808,1,3.82,3l-3.319.021c-.022-.756-.794-.913-1.279-.91-.3,0-1.291.006-1.288.619.008,1.368,6.117-.091,6.139,3.779.014,2.323-1.792,3.2-4.016,3.374l.158,2.466-2.026.011.11-2.485c-2.063-.2-3.989-1.163-4-3.251l3.319-.021v.072c.023.918,1.047,1.091,1.567,1.088.5,0,1.488-.045,1.484-.71-.008-1.423-6.117-.09-6.139-3.834-.012-2.159,1.651-3,3.712-3.19l-.139-2.481,2.026-.013Z" fill="#fd425f"/><path d="M344.506,7163.458s.138,2.709-.255,3.111-5.735.986-6.234.53-.294-1.305.831-1.718c1.205-.442,1.836-.154,2.582-.536s.447-1.59.447-1.59Z" fill="#110239"/><path d="M362.024,7163.458s-.139,2.709.253,3.111,5.735.986,6.234.53.294-1.305-.829-1.718c-1.207-.442-1.837-.154-2.583-.536s-.447-1.59-.447-1.59Z" fill="#110239"/><path d="M362.316,7147.8c-.583-2.947-3.712-11-4.873-13.789-.466-.158-.976-.314-1.494-.465.135-.628.226-1.17.327-1.643-.908.242-1.874.359-2.85.668-.132.042-.281.087-.434.133-.155-.046-.3-.091-.436-.133-.976-.309-1.941-.426-2.849-.668.1.473.191,1.014.327,1.643-.518.15-1.028.307-1.5.465-1.159,2.792-4.29,10.839-4.873,13.789-.806,4.081-2.154,16.178-2.154,16.178l3.437.454s3.452-16.252,3.945-17.151c.885-1.616,1.813-3.045,2.641-4.31a1.74,1.74,0,0,1,2.914,0c.827,1.265,1.755,2.694,2.641,4.31.493.9,3.945,17.151,3.945,17.151l3.437-.454s-1.344-12.1-2.151-16.178" fill="#fd425f"/><path d="M363.264,7097.51c-.2-1.4-.411-1.617-.88-1.894a1.807,1.807,0,0,1-.59-.443,3.8,3.8,0,0,0-.628-.574,1.528,1.528,0,0,1-.56-.626c-.109-.336.331-.244.614-.14.309.111.888.963,1.215.846s-.441-1.113-.6-1.3c-.369-.461-.806-.4-1.3-.612-.286-.124-.379-.268-.069-.454a.928.928,0,0,1,.757.055,3.188,3.188,0,0,1,1.32.822,3.724,3.724,0,0,0-1.151-.895c-.248-.127-1.4-.482-1.232-.89.33-.82,2.564.726,2.808,1.158a4.363,4.363,0,0,0-1.1-.974c-.237-.171-.813-.545-.33-.742.715-.289,1.58,1.043,2.071,1.569a5.145,5.145,0,0,0-.832-1.126c-.394-.482.1-.6.584-.183a7.08,7.08,0,0,1,.628.693,4.567,4.567,0,0,1,.946,2.85c.05.435.061,1.136.2,2.4.091.724-1.268.351-1.871.467" fill="#f88667"/><path d="M329.813,7117.08c-1.32-.5-1.483-1.027-1.65-1.547a1.811,1.811,0,0,0-.306-.673,3.865,3.865,0,0,1-.425-.737,1.524,1.524,0,0,0-.489-.683c-.3-.179-.308.272-.268.573.044.326.749,1.077.565,1.372s-.987-.67-1.144-.866c-.37-.461-.217-.875-.319-1.4-.06-.308-.181-.431-.426-.167a.933.933,0,0,0-.109.753,3.225,3.225,0,0,0,.519,1.471,3.743,3.743,0,0,1-.625-1.322c-.071-.267-.17-1.472-.6-1.4-.869.146.157,2.668.527,3a4.405,4.405,0,0,1-.715-1.288c-.114-.268-.357-.916-.651-.481-.433.639.678,1.771,1.084,2.366a5.173,5.173,0,0,1-.918-1.058c-.384-.489-.609-.036-.3.533a6.947,6.947,0,0,0,.541.764,4.552,4.552,0,0,0,2.572,1.537,10.937,10.937,0,0,1,2.2.834c.645.322.694-1.014.937-1.582" fill="#f88667"/><path d="M354.685,7114.457a8.17,8.17,0,0,1-2.251.108,3.234,3.234,0,0,1-.789-.169c.033.941.033,3.122-.626,4.014,0,0,.234,1.054,2.148,1.082s2.15-1.082,2.15-1.082a9.812,9.812,0,0,1-.632-3.953" fill="#f88667"/><path d="M362.048,7119.77a10.4,10.4,0,0,0-4.672-2.409,26.252,26.252,0,0,0-8.22,0c-1.676.267-3.343.692-3.865,1.36-.654.838,1.3,5.533,1.627,9.842.27,3.573.754,6.333.754,6.333,1.075,1.979,9.47,2.034,10.543.053,0,0,.2-3.053.784-6.387.76-4.337,3.711-7.946,3.049-8.793" fill="#e5e6ed"/><path d="M348.564,7127.574c.053-1.158.436-3.236.01-4.3-.609-1.52-1.983-2.089-3.255-2.784a63.212,63.212,0,0,1,1.6,8.075c.27,3.574.754,6.334.754,6.334a2.378,2.378,0,0,0,1.272.891c-1.192-2.294-.487-5.957-.381-8.218" fill="#abadc4"/><path d="M357.264,7109.226s-3.967-2.341-4.569-1.765-1.542,2.535-2,2.832-1.168.583-1.1.936.294.375.275.731-.823,2.051-.384,2.553,3.322,1.605,5.054.45,4.677-4.687,2.724-5.737" fill="#f88667"/><path d="M358.138,7110.09l-3.341.054a6.855,6.855,0,0,1-2.055,2.723s.08.494.437.392a1.112,1.112,0,0,0,.817-.516c.24-.377.961-1.356,1.45-.5s-.557,1.153-1,1.145c0,0-1.521,1.852-.338,2.2,0,0,1.32-.2,3.33-2.338s1.6-3.332.7-3.16" fill="#110239"/><path d="M351.819,7106.166s-1.625.989.256,2.974,6.307.937,6.307.937.471-1.292-1.129-2.648c-1.2-1.013-2.507-1.53-3.561-1.043-1.791.828-1.873-.219-1.873-.219" fill="#110239"/><path d="M329.377,7116.446l-1.42,2.27a64.383,64.383,0,0,0,7.856,6.317c2.444,1.627,10.821-.977,12.115-1.366,1.848-.555,3.238-4.482.154-5.942-1.806-.853-9.055,4.674-10.831,3.736-2.225-1.174-7.874-5.015-7.874-5.015" fill="#e5e6ed"/><path d="M362.65,7096.919l2.819-.473s1.862,8.171,1.751,11.114-4.773,13.635-5.837,14.47c-1.279,1-4.823-1.9-2.254-5.025s4.234-9.578,4.3-9.841-.779-10.245-.779-10.245" fill="#e5e6ed"/><rect width="22.743" height="2.053" transform="translate(304.347 7092.259)" fill="#d0d1de"/><rect width="22.743" height="2.052" transform="translate(304.347 7095.502)" fill="#d0d1de"/><rect width="17.213" height="2.053" transform="translate(304.347 7098.747)" fill="#d0d1de"/><path d="M332,7058.933l-18-31.11h36Z" fill="#ff9e19"/></g></svg>