<svg xmlns="http://www.w3.org/2000/svg" xmlns:xlink="http://www.w3.org/1999/xlink" width="178" height="215" viewBox="0 0 178 215"><defs><clipPath id="a"><rect width="57.959" height="32.085" transform="translate(303.521 5848.717)" fill="none"/></clipPath><clipPath id="c"><rect width="61.284" height="36.661" transform="translate(314.002 5981.061)" fill="none"/></clipPath></defs><g transform="translate(-240 -5848.717)"><path d="M329,5885.078c49.153,0,89,39.99,89,89.32s-39.847,89.32-89,89.32-89-39.99-89-89.32,39.847-89.32,89-89.32" fill="#fff"/><g style="isolation:isolate"><g clip-path="url(#a)"><g style="isolation:isolate"><g clip-path="url(#a)"><text transform="translate(303.521 5866.009)" fill="#222" font-size="20" font-family="LucidaGrande, Lucida Grande"><tspan x="0" y="0">STEP1</tspan></text></g></g></g></g><path d="M302.815,5934.294a38.587,38.587,0,1,1-38.448,38.586,38.518,38.518,0,0,1,38.448-38.586" fill="#01c7e2"/><path d="M270.878,5965.392a32.8,32.8,0,1,1,24.478,39.54,32.793,32.793,0,0,1-24.478-39.54" fill="#110239"/><path d="M302.659,5946.009h.374a.459.459,0,0,1,.458.459v26.779a.458.458,0,0,1-.458.459h-.374a.458.458,0,0,1-.458-.459v-26.779a.459.459,0,0,1,.458-.459" fill="#fefefe"/><path d="M303.414,5973.415l-.007.012a.639.639,0,0,1-.864.26h0l-15.6-8.423a.644.644,0,0,1-.259-.869l.007-.012a.635.635,0,0,1,.863-.26h0l15.6,8.424A.641.641,0,0,1,303.414,5973.415Z" fill="#fefefe"/><rect width="69.998" height="43.483" transform="translate(314.002 5974.241)" fill="#d0d1de"/><path d="M349,5997.909l35-21.741v-1.927H314v1.927Z" fill="#110239"/><path d="M349,5995.982l-35-21.741h70Z" fill="#d0d1de"/><g opacity="0.32" style="isolation:isolate"><g clip-path="url(#c)"><rect width="61.284" height="36.666" transform="translate(314.002 5981.057)" fill="#b1b3c8"/></g></g><rect width="69.998" height="43.483" transform="translate(301.906 5984.099)" fill="#d0d1de"/><path d="M336.9,6007.768l35-21.742V5984.1h-70v1.927Z" fill="#110239"/><path d="M336.9,6005.841l-35-21.742h70Z" fill="#d0d1de"/><path d="M352.322,5936.062l2.509-.178,2.507-.177s1.2,6.809,2.57,7.527c0,0,2.183,7.989-3.971,8.423-7.447.527-5.108-7.781-5.108-7.781,1.252-.9,1.493-7.814,1.493-7.814" fill="#e45940"/><path d="M367.019,5974.264l2.721-14.809c-.378-6.683-1.286-13.274-1.286-13.274a32.166,32.166,0,0,0-8.546-2.943l-.043.035a7.7,7.7,0,0,1-8.981.64l-.056-.035s-5.342,1.662-8.516,4.137a34.62,34.62,0,0,0,.412,8.438,77.2,77.2,0,0,0,2.8,11.352l2.154,6.458Z" fill="#fd425f"/><path d="M367.02,5974.264l2.721-14.809c-.078-1.394-.1-2.756-.077-4.047-3.847,5.812-8.375,11.5-15.674,9.639-4.5-1.143-7.545-6.673-10.825-9.529-.241-.209-.478-.405-.713-.6.113.584.224,1.2.329,1.83a72.825,72.825,0,0,0,2.753,11.09l2.144,6.432Z" fill="#e01f41"/><path d="M348.4,5937.687c.638-.851,1.559.311,1.559.311s-1.465-4.455-.458-6.523,4.8-1.285,4.8-1.285,3.647-1.31,4.934.6.457,6.523.457,6.523.749-1.28,1.5-.527-.949,2.91-1.348,3.181c0,0-2.325,5.213-4.48,5.365s-5.185-4.682-5.185-4.682c-.434-.215-2.418-2.107-1.779-2.959" fill="#f88667"/><path d="M355.366,5931.918s2.85.3,3.269,1.793a6.039,6.039,0,0,1,.008,2.274,15.007,15.007,0,0,0-.065,2.517.435.435,0,0,0,.361-.09,5.144,5.144,0,0,0,.871-1.221c.481-.823,1.258-.746,1.514-.264,0,0,.1-7.489-3.017-7.527s-2.941,2.518-2.941,2.518" fill="#110239"/><path d="M353.532,5932.046s-2.78.7-2.988,2.237a6.042,6.042,0,0,0,.311,2.252,15.108,15.108,0,0,1,.415,2.483.429.429,0,0,1-.369-.038,5.11,5.11,0,0,1-1.032-1.088c-.591-.747-1.35-.561-1.536-.049,0,0-1.148-7.4,1.936-7.88s3.263,2.083,3.263,2.083" fill="#110239"/><path d="M361.839,5987.069c-.227.423-1.28,1.01-.975,1.636.153.313,1.106-.243,1.326-.485a34.174,34.174,0,0,0,2.872-4.045c.3-.663.573-1.305.892-1.907a9.872,9.872,0,0,1-1.811-1.719c-1.028.376-2.131.924-3.141,1.273-.542.186-1.128.3-1.676.453-.345.1-1.075.22-1.142.669-.075.491.656.4.944.372.416-.049,1.2-.38,1.452.116.366.719-.975,1.405-1.442,1.84-.433.4-2,1.614-.943,1.807a13.618,13.618,0,0,0,2.094-1.293c-.053.057-1.1.92-1.155.981-.279.319-1.064.966-.876,1.332.4.786,2.165-1.052,2.429-1.3l-.67.727c-.567.547-.933,1.018-.511,1.24.53.27,1.812-1.246,2.333-1.7" fill="#f88667"/><path d="M362.109,5980.969l3.515,2.682s12.228-13.142,11.335-18.328c-1.465-8.519-5.8-18.233-8.366-19.062-1.067-.344-2.287,4.005-.868,10.152,0,0,2.519,9.055,2.358,10s-7.974,14.554-7.974,14.554" fill="#fd425f"/><path d="M348.85,5994.28c.191.44,1.192,1.114.839,1.711-.178.3-1.082-.334-1.283-.593a34.335,34.335,0,0,1-2.531-4.268c-.24-.684-.464-1.351-.733-1.978a9.874,9.874,0,0,0,1.945-1.563c.995.458,2.051,1.1,3.028,1.527.524.23,1.1.392,1.631.589.337.125,1.055.31,1.085.762.033.5-.688.35-.972.292-.411-.082-1.166-.475-1.456,0-.423.688.857,1.486,1.287,1.954.4.433,1.861,1.771.791,1.881a13.648,13.648,0,0,1-1.982-1.462c.049.062,1.024,1,1.073,1.075.251.341.981,1.05.763,1.4-.467.75-2.071-1.226-2.315-1.489l.609.777c.521.591.847,1.092.408,1.278-.551.229-1.708-1.392-2.187-1.89" fill="#f88667"/><path d="M348.638,5988.223l-3.322,2.223s-11.476-14.2-10.338-19.334c1.868-8.429,5.045-21.333,7.614-23.307.89-.685,3.743,4.724,3.531,8.1,0,0-4.252,16.843-4.137,17.8s6.652,14.521,6.652,14.521" fill="#fd425f"/><path d="M359.395,5930.29a2.125,2.125,0,0,0-1.234-1.852,7.007,7.007,0,0,0-5.923,0c-2.044,1.025-2.665,1.258-3.261.916s-.219-.684-.219-.684-1.339-.014-1.275,2.071,2.619,4.675,5.955,4.675c5.1,0,6.746-3.574,5.957-5.126" fill="#110239"/><path d="M332,5907.157l-18-31.111h36Z" fill="#ff9e19"/></g></svg>