<svg xmlns="http://www.w3.org/2000/svg" xmlns:xlink="http://www.w3.org/1999/xlink" width="178" height="220" viewBox="0 0 178 220"><defs><clipPath id="a"><rect width="57.959" height="32.082" transform="translate(303.521 6235.595)" fill="none"/></clipPath></defs><g transform="translate(-240 -6235.595)"><path d="M329,6276.97c49.153,0,89,39.987,89,89.313s-39.847,89.313-89,89.313-89-39.987-89-89.312,39.847-89.313,89-89.313" fill="#fff"/><g style="isolation:isolate"><g clip-path="url(#a)"><g style="isolation:isolate"><g clip-path="url(#a)"><text transform="translate(303.521 6252.886)" fill="#222" font-size="20" font-family="LucidaGrande, Lucida Grande"><tspan x="0" y="0">STEP2</tspan></text></g></g></g></g><rect width="93.794" height="13.819" transform="translate(284.715 6381.069)" fill="#110239"/><path d="M280.1,6315.455H383.128a4.289,4.289,0,0,1,4.28,4.295v66.478a4.288,4.288,0,0,1-4.28,4.3H280.1a4.288,4.288,0,0,1-4.28-4.3V6319.75a4.288,4.288,0,0,1,4.28-4.295" fill="#110239"/><rect width="101.317" height="64.344" transform="translate(280.953 6320.428)" fill="#fefefe"/><path d="M264.938,6410.565v2.051c0,1.136,1.232,2.056,2.751,2.056H395.535c1.519,0,2.751-.92,2.751-2.056v-2.051Z" fill="#110239"/><path d="M331.613,6394.732H276.88c-.185.2-8.789,7.927-11.418,13.669-1.124,2.454-.388,3.746,1.7,3.746h128.9c2.091,0,2.826-1.291,1.7-3.745-2.629-5.743-11.233-13.472-11.418-13.669Z" fill="#110239"/><path d="M391.36,6409.21H274.739l8.082-12.006H383.283Z" fill="#9c9eb9"/><path d="M389.946,6407.1l-.253-.376h-7.787l-1.449-2.909h7.271l-.253-.376h-7.2l-1.449-2.911h6.694l-.254-.376h-6.627l-1.468-2.945H376.5l1.443,2.945h-8.331l-1.168-2.945h-.673l1.146,2.945h-8.332l-.87-2.945h-.672l.847,2.945h-8.331l-.571-2.945h-.673l.548,2.945h-8.334l-.273-2.945h-.672l.25,2.945h-7.909V6397.2h-.741v2.949h-8.2l.25-2.945h-.672l-.269,2.945h-8.331l.548-2.945h-.672l-.572,2.945h-8.331l.847-2.945h-.672l-.87,2.945h-8.332l1.145-2.945h-.672l-1.168,2.945h-8.331l1.443-2.945h-.678l-1.461,2.945h-7.349l-.253.376H288l-1.449,2.911h-7.924l-.254.376h7.992l-1.45,2.909h-8.5l-.253.376h8.569l-1.05,2.108h.768l1.032-2.108h8.981l-.835,2.108h.766l.818-2.108h8.98l-.621,2.108h.766l.6-2.108h8.981l-.409,2.108h.766l.391-2.108h8.984l-.2,2.108h.766l.179-2.108h8.785v2.108h.741V6407.1h8.5l.179,2.108h.766l-.2-2.108h8.981l.391,2.108h.766l-.409-2.108h8.981l.6,2.108h.766l-.621-2.108h8.98l.82,2.108h.766l-.836-2.108h8.989l1.032,2.108h.766l-1.05-2.108Zm-92.18-6.576h8.366l-.859,2.911H296.63Zm-9.065,0h8.366l-1.154,2.911H287.27Zm5.909,6.2h-8.95l1.427-2.909h8.672Zm9.692,0h-8.95l1.132-2.909h8.674Zm9.692,0h-8.948l.837-2.909h8.674Zm.637-3.287h-8.642l.837-2.911h8.366Zm9.055,3.287h-8.949l.543-2.909h8.672Zm.3-3.287h-8.64l.542-2.911h8.366Zm9.2,3.287H324.43l.246-2.909h8.507Zm0-3.287h-8.477l.247-2.911h8.228Zm.741-2.911h7.94l.247,2.911h-8.19Zm0,6.2v-2.91h8.219l.247,2.91Zm44.2-6.2,1.426,2.911h-8.637l-1.154-2.911Zm-9.065,0,1.132,2.911h-8.648l-.859-2.911Zm-26.5,0h8.366l.542,2.911h-8.637Zm.574,6.2-.269-2.91h8.679l.542,2.91Zm8.491-6.2h8.366l.837,2.911h-8.639Zm1.2,6.2-.564-2.91h8.674l.837,2.91Zm9.692,0-.859-2.91h8.674l1.132,2.91Zm9.692,0-1.154-2.91h8.674l1.427,2.91Z" fill="#d0d1de"/><path d="M331.611,6412.147h-5.663a1.184,1.184,0,0,0,.282.787.619.619,0,0,0,.429.16h9.906a.618.618,0,0,0,.429-.16,1.178,1.178,0,0,0,.282-.787Z" fill="#110239"/><path d="M371.573,6378.914H291.651v-48.942h79.922Zm-78.43-1.5h76.938v-45.949H293.143Z" fill="#d0d1de"/><rect width="7.432" height="31.925" transform="translate(352.516 6342.289)" fill="#fd425f"/><rect width="7.432" height="14.68" transform="translate(338.744 6359.534)" fill="#d0d1de"/><rect width="7.432" height="18.232" transform="translate(324.972 6355.981)" fill="#01c7e2"/><rect width="7.432" height="28.557" transform="translate(311.2 6345.656)" fill="#d0d1de"/><rect width="7.433" height="22.289" transform="translate(297.428 6351.924)" fill="#d0d1de"/><path d="M342.625,6353.835l-14.115-2.81-13.6-13.045-13.518,11.981-.494-.562,14.03-12.435,13.941,13.367,13.428,2.674,13.632-19.261.607.433Z" fill="#110239"/><path d="M302.823,6349.68a1.679,1.679,0,1,1-1.681-1.683h0a1.68,1.68,0,0,1,1.679,1.683" fill="#fd425f"/><path d="M314.823,6335.787a1.684,1.684,0,1,1-1.678,1.685,1.681,1.681,0,0,1,1.678-1.685" fill="#fd425f"/><path d="M330.367,6350.663a1.678,1.678,0,1,1-1.679-1.687,1.682,1.682,0,0,1,1.679,1.687Z" fill="#fd425f"/><path d="M344.139,6353.046a1.679,1.679,0,1,1-1.681-1.683h0a1.681,1.681,0,0,1,1.679,1.683" fill="#fd425f"/><path d="M357.909,6334.29a1.678,1.678,0,1,1-1.679-1.683h0a1.681,1.681,0,0,1,1.677,1.683" fill="#fd425f"/><path d="M314.592,6346.79a3.1,3.1,0,0,0,1.435-.748,1.839,1.839,0,0,1,.575-.491,3.963,3.963,0,0,0,.712-.5,1.559,1.559,0,0,1,.75-.42c.357-.035.168.387,0,.647-.181.284-1.161.674-1.117,1.028s1.206-.192,1.435-.306c.542-.266.578-.719.9-1.161.188-.259.352-.321.468.031.085.263-.094.532-.224.748a3.257,3.257,0,0,1-1.114,1.142,3.839,3.839,0,0,0,1.15-.953c.181-.22.793-1.294,1.162-1.038.742.516-1.3,2.41-1.785,2.558a4.444,4.444,0,0,0,1.219-.887c.222-.2.727-.692.812-.164.126.782-1.392,1.35-2.027,1.727a5.24,5.24,0,0,0,1.309-.583c.567-.286.579.231.05.627a7.323,7.323,0,0,1-.832.474,4.829,4.829,0,0,1-3.1.438c-.441-.049-1.3.333-1.559.048-.5-.552-.238-1.584-.219-2.216" fill="#f88667"/><path d="M314.913,6346.628l.9,2.99s-10.542,2.732-13.107,3.132-8.2-6.066-8.2-6.066-1.922-4.679-.485-4.616c1.107.048,9.18,6.232,9.628,6.471s11.264-1.911,11.264-1.911" fill="#fd425f"/><path d="M287.3,6400.046a10.988,10.988,0,0,0,.266,2.976c.341.949,2.775,2.407,2.775,2.407s-2.2.428-3.048-.226-2.852-4.089-2.721-4.537.739-1.824.739-1.824Z" fill="#f88667"/><path d="M300.415,6398.806a10.987,10.987,0,0,0,.265,2.975c.341.95,2.775,2.408,2.775,2.408s-2.2.429-3.048-.228-2.852-4.088-2.721-4.534.739-1.826.739-1.826Z" fill="#f88667"/><path d="M285.068,6400.046s-1.848.618-1.386,2.24a14.147,14.147,0,0,1,.386,3.714h.539s.114-2.319.461-2.241,1.116,2.241,1.885,2.241h4.35s.462-.463,0-.734-3.411-.155-3.746-.811-2.489-4.408-2.489-4.408" fill="#110239"/><path d="M298.293,6398.754s-1.848.619-1.386,2.24a14.109,14.109,0,0,1,.384,3.714h.539s.116-2.319.462-2.241,1.117,2.241,1.887,2.241h4.35s.461-.463,0-.734-3.411-.155-3.746-.812-2.49-4.408-2.49-4.408" fill="#110239"/><path d="M297.069,6358.428s-5.177,1.827-8.928,0a8.956,8.956,0,0,0-2.633,5.821,21.5,21.5,0,0,0,.153,4.393c.261,2.173.891,7.871.5,11.386-.577,5.146-2.17,20.078-2.17,20.078l3.569.557s3.278-18.023,3.665-20.249,1.635-11.257,1.635-11.257,2.22,6.984,2.79,10.368c.089.519,1.672,19.657,1.672,19.657l3.459-.02s-.194-21.257-.194-20.14c0,.457-.937-14.337-3.518-20.593" fill="#01c7e2"/><path d="M295.272,6371.957a16.068,16.068,0,0,0-2.848-5.67c.163.969.31,1.936.423,2.917l.013-.051s1.9,5.981,2.638,9.556c-.082-3.856.345-5.011-.226-6.751" fill="#00a7cc"/><path d="M293.406,6337.2c-.359-.073-2.074-3.7-2.809-4.414-.351,2.478-1.845,8.363-1.845,8.363,1.813,1.951,5.428.754,5.428.754a12.361,12.361,0,0,1-.774-4.7" fill="#e45940"/><path d="M292.69,6328.552s3.518.8,4.192,1.824.672,3.714,1.046,4.417c.226.428.427.772.54,1.026.1.221-.151.35-.457.458a.533.533,0,0,0-.329.342c-.208.648-.789,2.3-1.371,2.532a4.782,4.782,0,0,1-5.388-2.957c-1.081-3.132-.491-8.315,1.767-7.641" fill="#f88667"/><path d="M289.292,6339.922a44.185,44.185,0,0,0,4.826,1.839s2.841,5.629,3.033,7.2,1.654,12.277,1.654,12.277-5.624,3.587-13.777.742c0,0,1.957-8.43,1.509-11.764s-.054-7.827,2.755-10.3" fill="#fd425f"/><path d="M288.3,6362.815c-.093-3.582.723-6.836.8-10.423.059-2.895-1.13-4.545-2.58-6.322a16.932,16.932,0,0,0,.024,4.148c.443,3.333-1.514,11.763-1.514,11.763a19.51,19.51,0,0,0,3.27.835" fill="#e42244"/><path d="M285.033,6349.835c1.981-1.654,1.172-3.312,3.166-4.88.144-.116.29-.226.434-.338.1-.864-1.972-.418-1.4-1.288.8-1.219,4.162-3.063,4.09-4.251a2.11,2.11,0,0,1,.082-1.111c.173-.917.559-1.092-.159-1.766-.5-.471-.923-.978-.525-1.687.325-.58.847-.749,1.3-.2.118.142.711,1.335.863.664.042-.187-.208-.552-.231-.761a.835.835,0,0,1,.238-.76c.355-.376.879-.58,1.244-.96.458-.476.517-1.1,1.18-1.366a1.726,1.726,0,0,1,1.059-.045c.156.044.825.5.933.452,1.137-.448.628-2.216-.151-2.761a8.537,8.537,0,0,0-4.837-1.635c-2.06.042-3.943,1.641-5.139,3.19-.875,1.111-.812,2.306-1.437,3.519-.57,1.1-1.8,1.652-2.54,2.643a3.823,3.823,0,0,0-.427,3.242,6.15,6.15,0,0,1,.31,2.514c-.175,1.093-1.048,1.9-1.345,2.957a4.69,4.69,0,0,0-.051,3c.521,1.957,1.685,2.49,3.343,1.628" fill="#110239"/><path d="M281.978,6367.664a3,3,0,0,0,.38,1.5,1.778,1.778,0,0,1,.331.644,3.848,3.848,0,0,0,.308.773,1.49,1.49,0,0,1,.227.791c-.047.342-.4.074-.6-.139-.224-.23-.371-1.229-.71-1.266s-.083,1.166-.028,1.405c.128.564.539.7.879,1.093.2.232.219.4-.13.428-.262.023-.472-.2-.644-.371a3.122,3.122,0,0,1-.812-1.291,3.66,3.66,0,0,0,.633,1.281c.164.217,1.024,1.021.707,1.305-.64.581-1.95-1.736-1.98-2.221a4.284,4.284,0,0,0,.555,1.33c.136.251.484.828-.026.793-.751-.052-.946-1.592-1.156-2.266a5,5,0,0,0,.254,1.347c.141.592-.341.49-.591-.09a6.732,6.732,0,0,1-.258-.878,4.649,4.649,0,0,1,.269-2.987c.141-.4-.023-1.286.3-1.466.613-.349,1.511.119,2.092.28" fill="#f88667"/><path d="M282.4,6367.7l-3.246.172s-.039-9.624.822-12.894,7.007-12.073,8.409-12.745c1.684-.8,6.685,1.341,3.021,4.2s-7.142,9.663-7.284,9.935S282.4,6367.7,282.4,6367.7" fill="#fd425f"/><path d="M332,6294.03l-18-31.109h36Z" fill="#ff9e19"/></g></svg>