<svg xmlns="http://www.w3.org/2000/svg" xmlns:xlink="http://www.w3.org/1999/xlink" width="178" height="219" viewBox="0 0 178 219"><defs><clipPath id="a"><rect width="57.959" height="32.083" transform="translate(301.521 6613.022)" fill="none"/></clipPath></defs><g transform="translate(-240 -6613.022)"><path d="M329,6653.394c49.153,0,89,39.988,89,89.314s-39.847,89.314-89,89.314-89-39.988-89-89.314,39.847-89.314,89-89.314" fill="#fff"/><g style="isolation:isolate"><g clip-path="url(#a)"><g style="isolation:isolate"><g clip-path="url(#a)"><text transform="translate(301.521 6630.313)" fill="#222" font-size="20" font-family="LucidaGrande, Lucida Grande"><tspan x="0" y="0">STEP3</tspan></text></g></g></g></g><path d="M341.269,6795.268H320.442l1.712-25.2h17.4Z" fill="#110239"/><path d="M344,6791.233a1.359,1.359,0,0,0-1.13-.6H318.844a1.359,1.359,0,0,0-1.13.6l-3.147,4.717a1.364,1.364,0,0,0,1.13,2.127h30.318a1.367,1.367,0,0,0,1.13-2.127Z" fill="#110239"/><path d="M278.444,6700.276H383.267a4.452,4.452,0,0,1,4.444,4.46v67.575a4.453,4.453,0,0,1-4.444,4.46H278.444a4.453,4.453,0,0,1-4.444-4.46v-67.575a4.452,4.452,0,0,1,4.444-4.46" fill="#110239"/><rect width="103.241" height="65.566" transform="translate(279.235 6705.345)" fill="#01c7e2"/><rect width="5.665" height="21.149" transform="translate(339.459 6749.699)" fill="#d0d1de"/><rect width="5.665" height="6.627" transform="translate(339.458 6749.699)" fill="#9698b5"/><path d="M360.427,6716.9H326.975v34.12h46.756v-20.773a13.322,13.322,0,0,0-13.3-13.347Z" fill="#fd425f"/><path d="M340.412,6751.012H313.536v-20.765a13.324,13.324,0,0,1,13.3-13.348h.268a13.324,13.324,0,0,1,13.3,13.348Z" fill="#fd425f"/><path d="M338.115,6748.095H315.832v-17.216a11.05,11.05,0,0,1,11.03-11.067h.223a11.049,11.049,0,0,1,11.03,11.067h0Z" fill="#110239"/><rect width="25.489" height="2.624" transform="translate(304.69 6748.387)" fill="#fd425f"/><path d="M359.534,6738.385c.8,0,1.6-1.289,1.6-3.143,0-3.712-2.371-6.6-6.4-6.6a6.635,6.635,0,0,0-6.613,6.657,6.211,6.211,0,0,0,6.1,6.323c.1,0,.19,0,.285,0a6.391,6.391,0,0,0,3.655-1.191l.9,1.563a8.181,8.181,0,0,1-4.55,1.443,8.031,8.031,0,0,1-8.3-7.753c-.005-.128-.007-.257-.005-.385a8.4,8.4,0,0,1,8.372-8.431h.167a8.083,8.083,0,0,1,8.3,7.858c.005.152.005.3,0,.456,0,2.911-1.576,4.784-3.734,4.784a2.049,2.049,0,0,1-2.276-1.505l-.038-.233a3.458,3.458,0,0,1-2.9,1.542,4.346,4.346,0,0,1-4.244-4.443c0-.022,0-.045,0-.067,0-2.5,1.558-4.587,3.969-4.587a3.359,3.359,0,0,1,2.606,1.21v-1h2.393v6.539c0,.7.29.958.717.958m-7.06-3.223c0,1.29.721,2.421,1.868,2.421,1.207,0,1.926-1.092,1.926-2.4a1.928,1.928,0,1,0-3.793-.02Z" fill="#fff"/><path d="M332.417,6755.47c.191-5.3,3.8-9.807,5.7-11.819v-1.129h-17.49c-3.568,0-5.689,1.824-7.616,4.838a16.441,16.441,0,0,0-2.794,8.109c-.26,7.2,1.3,10.709-3.376,15.48s-6.752,7.5-5.367,15.285h22.2c-1.385-7.789.692-10.514,5.368-15.285s3.117-8.276,3.375-15.48" fill="#e5e6ed"/><path d="M334.992,6744.176H318.636c-.2.221-.4.461-.617.721h16.356q.322-.39.617-.721" fill="#9a94ab"/><path d="M332.417,6747.608H316.061c-.145.234-.289.475-.429.72h16.357c.14-.245.282-.485.428-.72" fill="#9a94ab"/><path d="M330.706,6751.041H314.348c-.088.236-.17.477-.249.719h16.357c.079-.242.16-.483.25-.719" fill="#9a94ab"/><path d="M329.859,6754.472H313.5c-.028.238-.049.479-.063.72H329.8c.015-.241.036-.482.063-.72" fill="#9a94ab"/><path d="M329.75,6757.9H313.394c0,.244,0,.485.009.719h16.356c0-.234-.006-.475-.009-.719" fill="#9a94ab"/><path d="M329.822,6761.336H313.466c0,.245.005.482.005.719h16.356c0-.237,0-.474-.005-.719" fill="#9a94ab"/><path d="M329.667,6764.768H313.314c-.036.242-.077.481-.127.719h16.356c.047-.238.088-.477.124-.719" fill="#9a94ab"/><path d="M328.52,6768.2H312.16c-.135.237-.281.478-.443.719h16.356a8.391,8.391,0,0,0,.447-.719" fill="#9a94ab"/><path d="M325.742,6771.633H309.386c-.236.244-.462.481-.682.718H325.06c.22-.237.446-.475.682-.718" fill="#9a94ab"/><path d="M322.791,6775.065H306.435c-.167.237-.326.478-.476.718h16.356c.151-.241.309-.481.476-.718" fill="#9a94ab"/><path d="M321.088,6778.495H304.731c-.069.235-.136.474-.19.72H320.9c.054-.246.121-.485.191-.72" fill="#9a94ab"/><path d="M320.621,6781.927H304.265c0,.236,0,.474.009.719H320.63c-.009-.247-.01-.483-.009-.719" fill="#9a94ab"/><path d="M312.238,6750.249c-.153-.232-1.067.521-1.2.72a6.49,6.49,0,0,0-.671.9c-.153.317-.3.619-.454.934a3.945,3.945,0,0,0-.129.566,3.656,3.656,0,0,1-.491.752c-.057.065.041.1-.088.2.36.306.384.586.594,1.009a2.751,2.751,0,0,1,.448-.378c.146-.088,1.064-.444,1.219-.515a4.2,4.2,0,0,0,.89-.512c.1-.079.5-.211.451-.36-.1-.33-.607-.14-.732-.12a2.876,2.876,0,0,1-.992.214.489.489,0,0,1-.3-.622l.006-.016a1.687,1.687,0,0,1,.57-.811c.161-.137.753-.688.921-.837.487-.426.265-.726-.175-.448-.088.058-.789.626-.86.664a2.414,2.414,0,0,1,.185-.2c.275-.332.99-.857.808-1.136" fill="#f88667"/><path d="M292.81,6742.2c.037.062.069.127.108.189a10.21,10.21,0,0,0,1.206,1.652c.285.3.772.561,1.006.859a3.3,3.3,0,0,0,.3.336,28.388,28.388,0,0,0-1.5,4.26s-2.948-.89-3.767-2.353a31.278,31.278,0,0,0,2.647-4.944" fill="#f88667"/><path d="M293.289,6747.587a4.485,4.485,0,0,0-.856-2.574,6.845,6.845,0,0,0-.6-.7,15.9,15.9,0,0,0,.975-2.117c.037.061.069.127.108.189a10.124,10.124,0,0,0,1.206,1.652c.285.3.772.56,1.006.859a3.483,3.483,0,0,0,.3.337,28.4,28.4,0,0,0-1.5,4.258,11.742,11.742,0,0,1-1.154-.435,2.312,2.312,0,0,0,.515-1.473" fill="#e45940"/><path d="M281.876,6796.723s-.446,3,.021,3.431,6.672.872,7.213.328.263-1.5-1.033-1.9c-1.39-.432-2.088-.071-2.954-.465s-.592-1.775-.592-1.775Z" fill="#110239"/><path d="M292.335,6796.723s-.446,3,.021,3.431,6.672.872,7.213.328.262-1.5-1.033-1.9c-1.39-.432-2.088-.071-2.954-.465s-.592-1.775-.592-1.775Z" fill="#110239"/><path d="M280.893,6779.853a91.9,91.9,0,0,1-1.506-17.06,7.728,7.728,0,0,1,3.1.087c1.973.536,3.949,1.034,5.923,1.536a121.429,121.429,0,0,0-2.65,16.224c-.058,2.719-.72,17.049-.72,17.049l-3.589.082c-.309-2.177-.427-17.188-.558-17.919" fill="#fd425f"/><path d="M285.25,6763.654a30.978,30.978,0,0,0,3.167.723,127.762,127.762,0,0,0-2.658,16.192c-.7-1.337-3.362-6.069-4.84-9.666a20.3,20.3,0,0,1-1.53-7.583v-.03a14.434,14.434,0,0,1,5.861.364" fill="#e01f41"/><path d="M282.834,6762.764c1.332.391,3.747.93,5.578,1.505,1.388,3.134,5.243,11.469,5.98,14.795,1.021,4.605,1.023,18.374,1.023,18.374l-3.474.03s-2.379-15.6-2.8-16.68c-1.691-4.371-4.784-7.4-5.989-9.467a25.845,25.845,0,0,1-3.562-9.242c1.034.25,2.13.357,3.244.684" fill="#fd425f"/><path d="M291.333,6750.977c.744-1.491.16-2.549,1.741-2.036,2.593.843,5.079,6.462,6.587,6.824,2.1.505,9.806-2.173,9.806-2.173l.8,1.972s-10.17,4.463-11.836,4.04-6.043-5.2-7.109-6.815a1.757,1.757,0,0,1,.011-1.812" fill="#d0d1de"/><path d="M291.333,6750.977c.744-1.491.16-2.549,1.741-2.036,2.593.843,5.079,6.462,6.587,6.824,2.1.505,9.806-2.173,9.806-2.173l.8,1.972s-10.17,4.463-11.836,4.04-6.043-5.2-7.109-6.815a1.757,1.757,0,0,1,.011-1.812" fill="#b8b9cd"/><path d="M289.818,6766.554a26.906,26.906,0,0,1-6.2-1.166c-2.255-.743-4.194-2.015-4.512-2.985,0,0,3.566-9.322,6.028-12.5a7.611,7.611,0,0,1,5.339-3.243,9.535,9.535,0,0,0,3.635,2.107s-1.6,6.924-2.353,9.657-1.937,8.13-1.937,8.13" fill="#d0d1de"/><path d="M289.083,6756.055c-.022-1.24-.281-3.2.243-4.638.149.12.3.237.441.368a10.012,10.012,0,0,0,2.693,2.074,2.39,2.39,0,0,0,.418.125c-.4,1.678-.826,3.377-1.12,4.442-.756,2.736-1.94,8.128-1.94,8.128s-.885-.046-2.166-.236c1.388-3,1.493-6.826,1.431-10.264" fill="#b8b9cd"/><path d="M293.044,6737.984s2.486-1.748,3.953-.792,2.3,1.758,2.174,2.461a19.142,19.142,0,0,0-.646,3.34c.051.819.45,2.082.28,2.342s-1.1-.136-1.2-.052-1.69,1.793-2.123,1.818-2.71-2.769-2.672-3.9-.766-3.75.234-5.221" fill="#f88667"/><path d="M296.049,6739.927c.2.525.972,1.442,3,1.611s3.4-3.914-.128-5.549-4.049-.341-4.822-.419a2.7,2.7,0,0,0-2.118.536,3.76,3.76,0,0,0-1.166,4.61c.81,2.324,2.011,2.681,2.011,2.681.3-.388.658-1.12.408-1.54a2.784,2.784,0,0,1-.4-.6.754.754,0,0,1,1.246-.754c.346.267.16,1.031.248,1.4.1.39.276.415.431.437.3.041.894-.623.8-1.714-.072-.711.285-1.216.49-.69" fill="#110239"/><path d="M305.678,6766.8a2.08,2.08,0,0,1,.375.113,1.567,1.567,0,0,0,.835.21,3.3,3.3,0,0,1,1.463.2c.21.128,1.436.967.892,1.393-.074.057-.284.11-.324.073l-.451-.4a3.3,3.3,0,0,1,.3.294.779.779,0,0,1,.135.208c.029.146-.179.348-.311.344s-.177-.157-.253-.249l.005.008c.065.111.248.241.012.477-.264.265-.282.027-.4-.058a.946.946,0,0,1-.123-.116,3.379,3.379,0,0,1,.219.262c.083.162-.34.431-.579.3-.145-.079-.423-.443-.52-.451a2.207,2.207,0,0,1-1.164-.623c-.105-.107-.318-.3-.417-.418a2.786,2.786,0,0,1-.381-.52,1.959,1.959,0,0,0,.687-1.047" fill="#f88667"/><path d="M305.082,6768.707l1.61-2.164s-5.83-5.546-8.01-8.28-4.285-8.052-6.115-8.567-3.816.314-3.012,3.031,5.9,6.752,6.891,8.016a110.4,110.4,0,0,0,8.636,7.964" fill="#d0d1de"/><path d="M332,6673.464l-18-31.109h36Z" fill="#ff9e19"/></g></svg>