<svg xmlns="http://www.w3.org/2000/svg" width="100" height="100" viewBox="0 0 100 100"><g transform="translate(0.124)"><circle cx="50" cy="50" r="50" transform="translate(-0.124)" fill="#2c9eff"/><g transform="translate(15.135 28.248)"><g transform="translate(5.381)"><path d="M294.365,711.217H237.239a.567.567,0,0,1-.567-.567V679.236a3.43,3.43,0,0,1,3.426-3.426h51.408a3.43,3.43,0,0,1,3.426,3.426V710.65A.567.567,0,0,1,294.365,711.217Zm-56.559-1.135H293.8V679.236a2.3,2.3,0,0,0-2.292-2.293H240.1a2.3,2.3,0,0,0-2.293,2.293Z" transform="translate(-236.672 -675.81)" fill="#fff" stroke="#fff" stroke-width="0.5"/></g><g transform="translate(8.24 2.86)"><path d="M291.926,708.78H240.518a.567.567,0,0,1-.567-.568V679.656a.567.567,0,0,1,.567-.567h51.408a.567.567,0,0,1,.567.567v28.556A.567.567,0,0,1,291.926,708.78Zm-50.842-1.135h50.274V680.224H241.084Z" transform="translate(-239.951 -679.089)" fill="#fff" stroke="#fff" stroke-width="0.5"/></g><g transform="translate(0 34.272)"><path d="M295.278,723.6H234.75a4.252,4.252,0,0,1-4.248-4.247v-3.672a.567.567,0,0,1,.567-.568h67.889a.567.567,0,0,1,.567.568v3.672A4.252,4.252,0,0,1,295.278,723.6Zm-63.642-7.352v3.105a3.117,3.117,0,0,0,3.114,3.113h60.528a3.116,3.116,0,0,0,3.113-3.113v-3.105Z" transform="translate(-230.502 -715.11)" fill="#fff" stroke="#fff" stroke-width="0.5"/></g><g transform="translate(32.514 36.521)"><path d="M269.779,721.679a2,2,0,1,1,2-1.991A1.995,1.995,0,0,1,269.779,721.679Zm0-2.858a.862.862,0,1,0,.865.867A.863.863,0,0,0,269.779,718.822Z" transform="translate(-267.786 -717.688)" fill="#fff" stroke="#fff" stroke-width="0.5"/></g><g transform="translate(21.911 4.638)"><g transform="translate(1.472 15.808)"><path d="M272.394,701.06a.567.567,0,0,1-.285-1.059l1.165-.672a.568.568,0,0,1,.568.983l-1.165.672A.568.568,0,0,1,272.394,701.06Z" transform="translate(-271.825 -699.255)" fill="#fff" stroke="#fff" stroke-width="0.5"/></g><g transform="translate(0 10.987)"><path d="M272.05,694.861H270.7a.567.567,0,0,1,0-1.134h1.346a.567.567,0,1,1,0,1.134Z" transform="translate(-270.137 -693.727)" fill="#fff" stroke="#fff" stroke-width="0.5"/></g><g transform="translate(1.473 5.493)"><path d="M273.556,689.235a.558.558,0,0,1-.283-.077l-1.165-.673a.567.567,0,0,1,.568-.981l1.165.673a.567.567,0,0,1-.285,1.058Z" transform="translate(-271.826 -687.427)" fill="#fff" stroke="#fff" stroke-width="0.5"/></g><g transform="translate(3.967)"><g transform="translate(0 2.386)"><path d="M285.4,701.965h-6.466a.567.567,0,0,1-.558-.465,6.022,6.022,0,0,0-1.853-3.126,8.39,8.39,0,0,1-2.555-7.008,8.5,8.5,0,0,1,7.453-7.453,4.259,4.259,0,0,1,1.142-.02c.094.008.188.017.29.017a8.5,8.5,0,0,1,7.514,7.454,8.332,8.332,0,0,1-2.555,7.011,6.15,6.15,0,0,0-1.853,3.13A.568.568,0,0,1,285.4,701.965Zm-6.016-1.135h5.569a7.592,7.592,0,0,1,2.072-3.274,7.206,7.206,0,0,0,2.213-6.069,7.343,7.343,0,0,0-6.448-6.447c-.072,0-.2-.008-.329-.02s-.238-.017-.357-.016a3.148,3.148,0,0,0-.53.032,7.37,7.37,0,0,0-6.479,6.453,7.262,7.262,0,0,0,2.212,6.066A7.464,7.464,0,0,1,279.387,700.83Z" transform="translate(-273.922 -683.864)" fill="#fff" stroke="#fff" stroke-width="0.5"/></g><g transform="translate(3.674 20.723)"><path d="M286.72,706.025H278.7a.567.567,0,1,1,0-1.134h8.018a.567.567,0,1,1,0,1.134Z" transform="translate(-278.135 -704.891)" fill="#fff" stroke="#fff" stroke-width="0.5"/></g><g transform="translate(3.674 22.116)"><path d="M286.72,707.623H278.7a.567.567,0,0,1,0-1.135h8.018a.567.567,0,1,1,0,1.135Z" transform="translate(-278.135 -706.488)" fill="#fff" stroke="#fff" stroke-width="0.5"/></g><g transform="translate(3.674 23.5)"><path d="M286.72,709.209H278.7a.567.567,0,0,1,0-1.135h8.018a.567.567,0,1,1,0,1.135Z" transform="translate(-278.135 -708.075)" fill="#fff" stroke="#fff" stroke-width="0.5"/></g><g transform="translate(4.504 13.077)"><path d="M282.827,703.542a.582.582,0,0,1-.217-.044.569.569,0,0,1-.33-.374l-3.132-6.178a.567.567,0,1,1,1.012-.513l2.518,4.966,1.208-4.848a.567.567,0,0,1,1.1.276l-1.6,6.273a.582.582,0,0,1-.559.44Z" transform="translate(-279.087 -696.123)" fill="#fff" stroke="#fff" stroke-width="0.5"/></g><g transform="translate(3.167 11.536)"><path d="M281.646,696.3a1.781,1.781,0,0,1-1.231-.553c-.439-.406-.858-.287-1.58.114a1.5,1.5,0,0,1-.713.263.567.567,0,0,1-.071-1.129,2.514,2.514,0,0,0,.233-.125,2.3,2.3,0,0,1,2.9.047c.4.379.59.29,1.109-.042a2.056,2.056,0,0,1,.968-.4,6.605,6.605,0,0,1,2.383.717.567.567,0,0,1-.507,1.014,5.35,5.35,0,0,0-1.812-.6,1.626,1.626,0,0,0-.422.223A2.375,2.375,0,0,1,281.646,696.3Z" transform="translate(-277.554 -694.356)" fill="#fff" stroke="#fff" stroke-width="0.5"/></g><g transform="translate(4.448 19.352)"><path d="M283.326,709.924h-1a3.307,3.307,0,0,1-3.306-3.3v-2.739a.567.567,0,0,1,.568-.568h6.466a.567.567,0,0,1,.567.568v2.739A3.3,3.3,0,0,1,283.326,709.924Zm-3.168-5.471v2.172a2.17,2.17,0,0,0,2.171,2.164h1a2.165,2.165,0,0,0,2.163-2.164v-2.172Z" transform="translate(-279.023 -703.319)" fill="#fff" stroke="#fff" stroke-width="0.5"/></g><g transform="translate(7.685)"><path d="M283.3,683.609a.567.567,0,0,1-.568-.568v-1.346a.567.567,0,0,1,1.135,0v1.346A.567.567,0,0,1,283.3,683.609Z" transform="translate(-282.735 -681.128)" fill="#fff" stroke="#fff" stroke-width="0.5"/></g><g transform="translate(12.507 1.473)"><path d="M288.83,685.114a.557.557,0,0,1-.283-.077.565.565,0,0,1-.207-.774l.672-1.163a.567.567,0,1,1,.981.567l-.672,1.163A.568.568,0,0,1,288.83,685.114Z" transform="translate(-288.264 -682.817)" fill="#fff" stroke="#fff" stroke-width="0.5"/></g><g transform="translate(16.03 5.493)"><path d="M292.871,689.235a.567.567,0,0,1-.283-1.059l1.172-.673a.567.567,0,0,1,.565.983l-1.172.673A.563.563,0,0,1,292.871,689.235Z" transform="translate(-292.303 -687.427)" fill="#fff" stroke="#fff" stroke-width="0.5"/></g><g transform="translate(17.327 10.987)"><path d="M295.7,694.861h-1.346a.567.567,0,1,1,0-1.134H295.7a.567.567,0,1,1,0,1.134Z" transform="translate(-293.791 -693.727)" fill="#fff" stroke="#fff" stroke-width="0.5"/></g><g transform="translate(16.03 15.808)"><path d="M294.041,701.06a.555.555,0,0,1-.281-.076l-1.172-.672a.566.566,0,0,1,.563-.983l1.172.672a.567.567,0,0,1-.283,1.059Z" transform="translate(-292.303 -699.255)" fill="#fff" stroke="#fff" stroke-width="0.5"/></g><g transform="translate(2.193 1.472)"><path d="M277.677,685.114a.565.565,0,0,1-.491-.284l-.673-1.163a.567.567,0,1,1,.981-.567l.673,1.163a.566.566,0,0,1-.207.774A.559.559,0,0,1,277.677,685.114Z" transform="translate(-276.437 -682.816)" fill="#fff" stroke="#fff" stroke-width="0.5"/></g></g></g></g></g></svg>