<svg xmlns="http://www.w3.org/2000/svg" width="99" height="100" viewBox="0 0 99 100"><g transform="translate(-0.432)"><ellipse cx="49.5" cy="50" rx="49.5" ry="50" transform="translate(0.432)" fill="#2c9eff"/><g transform="translate(24.371 21.978)"><g transform="translate(17.271 43.096)"><path d="M398.059,474.55h-2.222a6.557,6.557,0,0,1-6.55-6.548V461.91a.462.462,0,0,1,.462-.462h14.395a.462.462,0,0,1,.462.462V468A6.554,6.554,0,0,1,398.059,474.55Zm-7.848-12.178V468a5.632,5.632,0,0,0,5.626,5.625h2.222A5.63,5.63,0,0,0,403.682,468v-5.63Z" transform="translate(-389.287 -461.448)" fill="#fff" stroke="#fff" stroke-width="1"/></g><g transform="translate(7.359 5.317)"><path d="M400.1,446.944H385.7a.462.462,0,0,1-.453-.377,14.318,14.318,0,0,0-4.361-7.4,17.827,17.827,0,0,1-5.45-14.953,18.126,18.126,0,0,1,15.88-15.882,8.958,8.958,0,0,1,1.581-.094c.287,0,.55.024.812.049.232.021.464.043.714.043a18.12,18.12,0,0,1,15.938,15.883,17.818,17.818,0,0,1-5.452,14.956,14.335,14.335,0,0,0-4.36,7.4A.462.462,0,0,1,400.1,446.944Zm-14.018-.924H399.72a15.519,15.519,0,0,1,4.552-7.516,16.9,16.9,0,0,0,5.172-14.186,17.179,17.179,0,0,0-15.072-15.065c-.217,0-.486-.021-.747-.045-.234-.021-.47-.043-.727-.043a8.289,8.289,0,0,0-1.454.084,17.2,17.2,0,0,0-15.09,15.07,16.905,16.905,0,0,0,5.171,14.184A15.494,15.494,0,0,1,386.077,446.02Z" transform="translate(-375.327 -408.241)" fill="#fff" stroke="#fff" stroke-width="1"/></g><g transform="translate(15.543 46.14)"><path d="M405.166,466.658h-17.85a.462.462,0,1,1,0-.924h17.85a.462.462,0,1,1,0,.924Z" transform="translate(-386.854 -465.734)" fill="#fff" stroke="#fff" stroke-width="1"/></g><g transform="translate(15.543 49.235)"><path d="M405.166,471.018h-17.85a.462.462,0,1,1,0-.924h17.85a.462.462,0,1,1,0,.924Z" transform="translate(-386.854 -470.094)" fill="#fff" stroke="#fff" stroke-width="1"/></g><g transform="translate(15.543 52.337)"><path d="M405.166,475.386h-17.85a.462.462,0,1,1,0-.924h17.85a.462.462,0,1,1,0,.924Z" transform="translate(-386.854 -474.462)" fill="#fff" stroke="#fff" stroke-width="1"/></g><g transform="translate(17.39 29.117)"><path d="M396.994,456.668a.466.466,0,0,1-.163-.03.458.458,0,0,1-.268-.268L389.5,442.429a.462.462,0,0,1,.824-.418l6.562,12.962,3.219-12.866a.462.462,0,1,1,.9.224l-3.384,13.513-.195.524A.462.462,0,0,1,396.994,456.668Z" transform="translate(-389.455 -441.759)" fill="#fff" stroke="#fff" stroke-width="1"/></g><g transform="translate(14.401 25.697)"><path d="M393.574,439.655a3.215,3.215,0,0,1-2.208-1.011c-1.57-1.468-3.233-.547-4.447.126a2.869,2.869,0,0,1-1.213.486.462.462,0,0,1,0-.924,3.935,3.935,0,0,0,.769-.37c1.212-.67,3.466-1.916,5.524.007,1.393,1.3,2.347.689,3.452-.015a3.849,3.849,0,0,1,1.774-.765c1.627-.071,4.767,1.453,4.9,1.519a.462.462,0,0,1-.412.827c-.836-.416-3.274-1.5-4.438-1.424a3.282,3.282,0,0,0-1.327.622A4.517,4.517,0,0,1,393.574,439.655Z" transform="translate(-385.245 -436.944)" fill="#fff" stroke="#fff" stroke-width="1"/></g><g transform="translate(24.468)"><path d="M399.885,404.673a.461.461,0,0,1-.462-.462v-3a.462.462,0,0,1,.924,0v3A.462.462,0,0,1,399.885,404.673Z" transform="translate(-399.423 -400.752)" fill="#fff" stroke="#fff" stroke-width="1"/></g><g transform="translate(35.202 3.273)"><path d="M415,408.887a.462.462,0,0,1-.4-.692l1.5-2.6a.462.462,0,1,1,.8.46l-1.5,2.6A.461.461,0,0,1,415,408.887Z" transform="translate(-414.541 -405.362)" fill="#fff" stroke="#fff" stroke-width="1"/></g><g transform="translate(43.057 12.233)"><path d="M426.066,420.4a.462.462,0,0,1-.231-.862l2.6-1.5a.462.462,0,0,1,.46.8l-2.6,1.5A.464.464,0,0,1,426.066,420.4Z" transform="translate(-425.604 -417.98)" fill="#fff" stroke="#fff" stroke-width="1"/></g><g transform="translate(45.934 24.462)"><path d="M433.123,436.128h-3a.462.462,0,1,1,0-.924h3a.462.462,0,0,1,0,.924Z" transform="translate(-429.656 -435.204)" fill="#fff" stroke="#fff" stroke-width="1"/></g><g transform="translate(43.057 35.196)"><path d="M428.666,452.743a.463.463,0,0,1-.229-.061l-2.6-1.5a.462.462,0,1,1,.46-.8l2.6,1.5a.461.461,0,0,1-.231.861Z" transform="translate(-425.604 -450.321)" fill="#fff" stroke="#fff" stroke-width="1"/></g><g transform="translate(3.28 35.196)"><path d="M370.044,452.743a.461.461,0,0,1-.231-.861l2.6-1.5a.462.462,0,0,1,.461.8l-2.6,1.5A.465.465,0,0,1,370.044,452.743Z" transform="translate(-369.582 -450.321)" fill="#fff" stroke="#fff" stroke-width="1"/></g><g transform="translate(0 24.462)"><path d="M368.429,436.128h-3a.462.462,0,0,1,0-.924h3a.462.462,0,0,1,0,.924Z" transform="translate(-364.963 -435.204)" fill="#fff" stroke="#fff" stroke-width="1"/></g><g transform="translate(3.28 12.233)"><path d="M372.646,420.4a.467.467,0,0,1-.229-.062l-2.6-1.5a.462.462,0,0,1,.461-.8l2.6,1.5a.462.462,0,0,1-.231.862Z" transform="translate(-369.582 -417.98)" fill="#fff" stroke="#fff" stroke-width="1"/></g><g transform="translate(12.238 3.273)"><path d="M384.159,408.887a.462.462,0,0,1-.4-.231l-1.5-2.6a.462.462,0,1,1,.8-.46l1.5,2.6a.462.462,0,0,1-.4.692Z" transform="translate(-382.198 -405.362)" fill="#fff" stroke="#fff" stroke-width="1"/></g></g></g></svg>