<svg xmlns="http://www.w3.org/2000/svg" width="99" height="99" viewBox="0 0 99 99"><g transform="translate(-0.432 -0.404)"><circle cx="49.5" cy="49.5" r="49.5" transform="translate(0.432 0.404)" fill="#2c9eff"/><g transform="translate(20.375 26.292)"><g transform="translate(18.269 42.054)"><path d="M665.93,465.573H646.294a.468.468,0,0,1-.441-.628l.947-2.628a.469.469,0,0,1,.441-.309H664.97a.469.469,0,0,1,.441.309l.911,2.528a.469.469,0,0,1-.391.729Zm-18.97-.939H665.25l-.61-1.689H647.57Z" transform="translate(-645.824 -462.007)" fill="#fff" stroke="#fff" stroke-width="1"/></g><g transform="translate(35.046 36.803)"><path d="M677.72,470.751H675a.469.469,0,0,1-.441-.31l-5.448-15.085a.469.469,0,0,1,.441-.628h2.759a.468.468,0,0,1,.441.31l5.413,15.085a.47.47,0,0,1-.441.628Zm-2.4-.939h1.729l-5.076-14.147h-1.762Z" transform="translate(-669.079 -454.728)" fill="#fff" stroke="#fff" stroke-width="1"/></g><g transform="translate(12.951 36.803)"><path d="M641.64,470.751h-2.718a.47.47,0,0,1-.441-.628l5.4-15.085a.47.47,0,0,1,.442-.31h2.761a.469.469,0,0,1,.441.628l-5.448,15.085A.468.468,0,0,1,641.64,470.751Zm-2.052-.939h1.723l5.109-14.147h-1.762Z" transform="translate(-638.453 -454.728)" fill="#fff" stroke="#fff" stroke-width="1"/></g><g transform="translate(1.799 5.259)"><path d="M672.087,443.486H627.4a4.368,4.368,0,0,1-4.409-4.419V411.474a.469.469,0,0,1,.469-.469h52.565a.469.469,0,0,1,.469.469v27.594A4.368,4.368,0,0,1,672.087,443.486Zm-48.153-31.543v27.124a3.4,3.4,0,0,0,3.471,3.481h44.682a3.4,3.4,0,0,0,3.473-3.481V411.944Z" transform="translate(-622.995 -411.005)" fill="#fff" stroke="#fff" stroke-width="1"/></g><g transform="translate(0 2.63)"><path d="M677.133,410.928H620.971a.469.469,0,0,1-.469-.47V407.83a.469.469,0,0,1,.469-.47h56.162a.469.469,0,0,1,.469.47v2.629A.469.469,0,0,1,677.133,410.928Zm-55.693-.939h55.224V408.3H621.441Z" transform="translate(-620.502 -407.36)" fill="#fff" stroke="#fff" stroke-width="1"/></g><g transform="translate(26.769)"><path d="M660.7,407.283h-2.622a.469.469,0,0,1-.47-.469V405.5a1.78,1.78,0,1,1,3.56,0v1.318A.469.469,0,0,1,660.7,407.283Zm-2.153-.939h1.683V405.5a.842.842,0,1,0-1.683,0Z" transform="translate(-657.607 -403.715)" fill="#fff" stroke="#fff" stroke-width="1"/></g><g transform="translate(41.585 6.367)"><path d="M691.216,439.571h0l-.94-.007a1.432,1.432,0,0,1-1.413-1.424l.012-1.532a10.655,10.655,0,0,1-2.853-1.134l-1.037,1.026a1.328,1.328,0,0,1-1.006.41,1.4,1.4,0,0,1-1-.422l-1.843-1.864a1.4,1.4,0,0,1-.41-1.006,1.419,1.419,0,0,1,.421-1l.971-.962a10.718,10.718,0,0,1-1.224-2.931l-1.335-.006a1.42,1.42,0,0,1-1.413-1.423l.022-2.634a1.418,1.418,0,0,1,1.425-1.4l1.339.007a10.916,10.916,0,0,1,1.26-2.912l-.965-.972a1.419,1.419,0,0,1,.02-2l1.861-1.847a1.417,1.417,0,0,1,1-.41h.005a1.4,1.4,0,0,1,1,.42l1.025,1.044a10.753,10.753,0,0,1,2.865-1.1l.012-1.524a1.421,1.421,0,0,1,1.424-1.413l.95.007a.469.469,0,0,1-.007.939l-.947-.007a.481.481,0,0,0-.482.478l-.014,1.906a.469.469,0,0,1-.382.457,9.828,9.828,0,0,0-3.257,1.251.471.471,0,0,1-.577-.074l-1.28-1.3a.469.469,0,0,0-.335-.138h0a.483.483,0,0,0-.341.138l-1.863,1.849a.479.479,0,0,0-.145.339.469.469,0,0,0,.135.337l1.229,1.238a.469.469,0,0,1,.057.592,9.988,9.988,0,0,0-1.426,3.293.47.47,0,0,1-.457.362h0l-1.7-.009a.478.478,0,0,0-.484.471l-.022,2.634a.486.486,0,0,0,.478.48l1.708.009a.469.469,0,0,1,.456.372,9.823,9.823,0,0,0,1.383,3.308.469.469,0,0,1-.064.589l-1.237,1.225a.485.485,0,0,0-.144.343.469.469,0,0,0,.138.338l1.845,1.868a.468.468,0,0,0,.335.142h0a.472.472,0,0,0,.336-.139l1.3-1.283a.47.47,0,0,1,.578-.064,9.742,9.742,0,0,0,3.239,1.286.468.468,0,0,1,.377.463l-.014,1.908a.488.488,0,0,0,.483.482l.938.007a.469.469,0,0,1,0,.939Z" transform="translate(-678.144 -412.54)" fill="#fff" stroke="#fff" stroke-width="1"/></g><g transform="translate(49.373 14.169)"><path d="M694.312,434.79h-.035a5.727,5.727,0,0,1,.071-11.433.469.469,0,0,1,.058.936,4.79,4.79,0,0,0-.06,9.561.469.469,0,0,1-.034.937Z" transform="translate(-688.939 -423.354)" fill="#fff" stroke="#fff" stroke-width="1"/></g><g transform="translate(2.002 33.319)"><path d="M675.932,450.838H623.747a.469.469,0,1,1,0-.939h52.185a.469.469,0,0,1,0,.939Z" transform="translate(-623.277 -449.899)" fill="#fff" stroke="#fff" stroke-width="1"/></g><g transform="translate(17.991 11.801)"><path d="M646.169,442.188a.732.732,0,0,1-.374-.1.708.708,0,0,1-.354-.67l.4-4.9a2.023,2.023,0,0,1,.164-.673.416.416,0,0,1,.055-.138l9.412-15.406a.469.469,0,0,1,.644-.156l4.474,2.732a.469.469,0,0,1,.155.645l-9.339,15.288a.474.474,0,0,1-.045.078.436.436,0,0,1-.056.071,2.262,2.262,0,0,1-.592.542l-4.173,2.584A.686.686,0,0,1,646.169,442.188Zm.766-6.114-.013.027a1.2,1.2,0,0,0-.144.48l-.366,4.477,3.812-2.361a1.327,1.327,0,0,0,.359-.336l9.12-14.932-3.673-2.244Z" transform="translate(-645.44 -420.072)" fill="#fff" stroke="#fff" stroke-width="1"/></g><g transform="translate(28.766 8.46)"><path d="M665.293,421.135a.465.465,0,0,1-.244-.069l-4.45-2.716a.471.471,0,0,1-.155-.645l.851-1.392a1.823,1.823,0,0,1,1.557-.87,1.8,1.8,0,0,1,.948.271l2.138,1.3a1.825,1.825,0,0,1,.611,2.5l-.856,1.4A.467.467,0,0,1,665.293,421.135Zm-3.8-3.342,3.65,2.229.608-.993a.885.885,0,0,0-.294-1.211l-2.143-1.305a.9.9,0,0,0-1.215.292Z" transform="translate(-660.375 -415.442)" fill="#fff" stroke="#fff" stroke-width="1"/></g><g transform="translate(27.956 10.492)"><path d="M664.194,423.236a.466.466,0,0,1-.243-.069l-4.474-2.733a.468.468,0,0,1-.154-.646l.8-1.307a.47.47,0,0,1,.29-.214.486.486,0,0,1,.356.056l4.473,2.731a.469.469,0,0,1,.157.643l-.8,1.314A.468.468,0,0,1,664.194,423.236Zm-3.826-3.356,3.672,2.243.311-.511-3.671-2.241Z" transform="translate(-659.253 -418.258)" fill="#fff" stroke="#fff" stroke-width="1"/></g><g transform="translate(18.202 30.078)"><path d="M648.621,447.818a.463.463,0,0,1-.243-.069l-2.42-1.474a.468.468,0,1,1,.488-.8l2.42,1.474a.469.469,0,0,1-.245.869Z" transform="translate(-645.733 -445.406)" fill="#fff" stroke="#fff" stroke-width="1"/></g><g transform="translate(18.537 27.338)"><path d="M651.036,445.221a.472.472,0,0,1-.244-.069l-4.37-2.674a.469.469,0,0,1,.488-.8l4.371,2.674a.469.469,0,0,1-.245.869Z" transform="translate(-646.197 -441.609)" fill="#fff" stroke="#fff" stroke-width="1"/></g><g transform="translate(19.601 12.486)"><path d="M648.14,437.469a.468.468,0,0,1-.4-.714l9.475-15.509a.469.469,0,0,1,.8.489l-9.476,15.509A.469.469,0,0,1,648.14,437.469Z" transform="translate(-647.672 -421.022)" fill="#fff" stroke="#fff" stroke-width="1"/></g><g transform="translate(2.002 29.285)"><path d="M639.947,445.455h-16.2a.469.469,0,1,1,0-.938h16.2a.469.469,0,1,1,0,.938Zm5.2,0a.469.469,0,0,1,0-.938l22.653-.21h0a.469.469,0,0,1,0,.938l-22.653.21Z" transform="translate(-623.277 -444.307)" fill="#fff" stroke="#fff" stroke-width="1"/></g><g transform="translate(1.799 25.678)"><path d="M666.6,440.246H647.4a.469.469,0,0,1,0-.938h19.2a.469.469,0,1,1,0,.938Zm-25.46,0H623.464a.469.469,0,0,1,0-.938h17.672a.469.469,0,0,1,0,.938Z" transform="translate(-622.995 -439.308)" fill="#fff" stroke="#fff" stroke-width="1"/></g><g transform="translate(2.002 21.853)"><path d="M666,434.945H649.868a.469.469,0,1,1,0-.939H666a.469.469,0,1,1,0,.939Zm-22.48,0h-19.77a.469.469,0,1,1,0-.939h19.77a.469.469,0,0,1,0,.939Z" transform="translate(-623.277 -434.006)" fill="#fff" stroke="#fff" stroke-width="1"/></g><g transform="translate(2.002 18.037)"><path d="M663.133,429.655H652.025a.469.469,0,0,1,0-.939h11.108a.469.469,0,1,1,0,.939Zm-17.336,0h-22.05a.469.469,0,1,1,0-.939H645.8a.469.469,0,1,1,0,.939Z" transform="translate(-623.277 -428.716)" fill="#fff" stroke="#fff" stroke-width="1"/></g><g transform="translate(2.002 14.212)"><path d="M666.995,424.353H654.348a.469.469,0,1,1,0-.939h12.647a.469.469,0,0,1,0,.939Zm-18.845,0h-24.4a.469.469,0,1,1,0-.939h24.4a.469.469,0,0,1,0,.939Z" transform="translate(-623.277 -423.414)" fill="#fff" stroke="#fff" stroke-width="1"/></g><g transform="translate(2.002 10.307)"><path d="M623.747,418.955a.469.469,0,1,1,0-.939L650.537,418h0a.469.469,0,1,1,0,.939l-26.791.014Zm43.248,0H655.769a.469.469,0,0,1,0-.939h11.226a.469.469,0,0,1,0,.939Z" transform="translate(-623.277 -418.002)" fill="#fff" stroke="#fff" stroke-width="1"/></g></g></g></svg>