<svg xmlns="http://www.w3.org/2000/svg" width="26.749" height="26.749" viewBox="0 0 26.749 26.749"><circle cx="11.667" cy="11.667" r="11.667" transform="translate(0 23.036) rotate(-80.845)" fill="#ff9e19"/><g transform="translate(5.169 6.424)"><path d="M221.77,153.82a1.574,1.574,0,0,0-2.037-.157l-1.393.892c-.006,0-.9.357-3.307-2.039-2.378-2.388-2.048-3.287-2.051-3.287h0l.892-1.4a1.578,1.578,0,0,0-.145-2.052l-1.329-1.328a1.569,1.569,0,0,0-2.366.168l-.014.021-.667,1.1c-.111.151-2.644,3.778,2.972,9.435l.053.052c2.944,2.924,5.339,3.638,6.976,3.638a4.325,4.325,0,0,0,2.441-.654l1.134-.692a1.57,1.57,0,0,0,.169-2.366Z" transform="translate(-208.689 -143.992)" fill="#fff"/><path d="M226.611,153.288a.258.258,0,0,0,.364,0,2.379,2.379,0,0,0,0-3.36,2.433,2.433,0,0,0-3.36,0,.257.257,0,0,0,.364.364,1.906,1.906,0,0,1,2.632,0,1.863,1.863,0,0,1,0,2.632A.258.258,0,0,0,226.611,153.288Z" transform="translate(-215.518 -146.412)" fill="#fff"/><path d="M226.935,153.151a.26.26,0,0,0,.182-.075,3.721,3.721,0,0,0-5.263-5.263.257.257,0,1,0,.364.364,3.207,3.207,0,0,1,4.535,4.535.257.257,0,0,0,.182.439Z" transform="translate(-214.709 -145.249)" fill="#fff"/><path d="M220.423,146.039a4.578,4.578,0,0,1,6.474,6.473.257.257,0,0,0,.364.364,5.092,5.092,0,0,0-7.2-7.2.257.257,0,0,0,.364.364Z" transform="translate(-213.883 -144.08)" fill="#fff"/></g></svg>