<svg xmlns="http://www.w3.org/2000/svg" xmlns:xlink="http://www.w3.org/1999/xlink" width="242.145" height="220.254" viewBox="0 0 242.145 220.254"><defs><clipPath id="a"><circle cx="7.34" cy="7.34" r="7.34" transform="translate(0 13.195) rotate(-64.013)" fill="none"/></clipPath><clipPath id="b"><path d="M249.142,577.856l-5.245-4.8a1.613,1.613,0,0,1-.082-2.3l13.894-14.672a1.624,1.624,0,0,1,2.262-.081l5.245,4.8a1.613,1.613,0,0,1,.082,2.3L251.4,577.776A1.624,1.624,0,0,1,249.142,577.856Z" transform="translate(-243.373 -555.58)" fill="none"/></clipPath><clipPath id="c"><circle cx="19.401" cy="19.401" r="19.401" transform="translate(0 12.229) rotate(-18.37)" fill="none"/></clipPath><linearGradient id="d" x1="-0.795" y1="1.808" x2="-0.795" y2="2.267" gradientUnits="objectBoundingBox"><stop offset="0" stop-color="#f2f2f2"/><stop offset="0.258" stop-color="#efefef"/><stop offset="0.397" stop-color="#e7e7e7"/><stop offset="0.508" stop-color="#dadada"/><stop offset="0.604" stop-color="#c6c6c6"/><stop offset="0.691" stop-color="#adadad"/><stop offset="0.771" stop-color="#8e8e8e"/><stop offset="0.845" stop-color="#696969"/><stop offset="0.915" stop-color="#3f3f3f"/><stop offset="0.98" stop-color="#101010"/><stop offset="1"/></linearGradient><linearGradient id="e" x1="-0.596" y1="1.702" x2="-0.258" y2="1.702" gradientUnits="objectBoundingBox"><stop offset="0" stop-color="#fff"/><stop offset="0.254" stop-color="#fcfcfc"/><stop offset="0.391" stop-color="#f4f4f4"/><stop offset="0.5" stop-color="#e7e7e7"/><stop offset="0.595" stop-color="#d3d3d3"/><stop offset="0.681" stop-color="#bababa"/><stop offset="0.759" stop-color="#9b9b9b"/><stop offset="0.832" stop-color="#767676"/><stop offset="0.902" stop-color="#4c4c4c"/><stop offset="0.965" stop-color="#1d1d1d"/><stop offset="1"/></linearGradient></defs><g transform="translate(-87.527 -115.775)"><circle cx="82.423" cy="82.423" r="82.423" transform="translate(126.176 171.183)" fill="#32495b" opacity="0.1"/><g transform="translate(133.794 196.991)"><g transform="translate(0)"><path d="M378.887,534.065H356.624s1.8,31.59-9.265,31.59h40.793C377.09,565.655,378.887,534.065,378.887,534.065Z" transform="translate(-292.95 -453.209)" fill="#5f7283"/><path d="M352.479,325.384H211.006a4.069,4.069,0,0,0-4.069,4.069v90.664a3.547,3.547,0,0,0,3.547,3.547H353a3.547,3.547,0,0,0,3.547-3.547V329.453A4.069,4.069,0,0,0,352.479,325.384Z" transform="translate(-206.937 -325.384)" fill="#32495b"/><rect width="139.908" height="75.118" transform="translate(4.851 4.695)" fill="#fff"/><rect width="140.012" height="4.382" transform="translate(4.799 79.187)" fill="#5f7283"/><circle cx="3.678" cy="3.678" r="3.678" transform="translate(71.127 87.064)" fill="#5f7283"/><rect width="41.634" height="1.416" transform="translate(53.988 111.814)" fill="#32495b"/></g><g transform="translate(10.639 20.645)"><g transform="translate(47.526 5.392)"><path d="M11.236,0H22.045A11.236,11.236,0,0,1,33.281,11.236V37.491a0,0,0,0,1,0,0H0a0,0,0,0,1,0,0V11.236A11.236,11.236,0,0,1,11.236,0Z" fill="#32495b"/><rect width="31.359" height="30.333" transform="translate(0.961 6.061)" fill="#fff"/><g transform="translate(1.698 1.885)"><path d="M367.458,397.617a.654.654,0,0,1-.924.925A.654.654,0,0,1,367.458,397.617Z" transform="translate(-364.455 -397.448)" fill="#ffd360"/><path d="M362.7,398.08a.631.631,0,1,1-.631-.631A.631.631,0,0,1,362.7,398.08Z" transform="translate(-361.436 -397.449)" fill="#fc513f"/><path d="M372.386,397.617a.654.654,0,0,1-.924.925A.654.654,0,0,1,372.386,397.617Z" transform="translate(-367.473 -397.448)" fill="#4bd4c0"/></g><path d="M400.6,398.566H379.582a.883.883,0,0,1-.881-.88h0a.883.883,0,0,1,.881-.881H400.6a.883.883,0,0,1,.881.881h0A.883.883,0,0,1,400.6,398.566Z" transform="translate(-370.313 -395.169)" fill="#415b6d"/><g transform="translate(2.539 9.975)"><path d="M378.344,431.012l-.63.388a2.513,2.513,0,0,0-.577-.417l.171-.72a.124.124,0,0,0-.091-.148l-.985-.234a.123.123,0,0,0-.148.091l-.171.72a2.52,2.52,0,0,0-.7.112l-.388-.63a.123.123,0,0,0-.169-.04l-.862.531a.123.123,0,0,0-.04.169l.388.63a2.52,2.52,0,0,0-.417.577l-.72-.171a.123.123,0,0,0-.148.091l-.234.985a.123.123,0,0,0,.091.148l.72.171a2.516,2.516,0,0,0,.112.7l-.63.388a.124.124,0,0,0-.04.169l.531.862a.123.123,0,0,0,.169.04l.63-.388a2.515,2.515,0,0,0,.577.417l-.171.72a.123.123,0,0,0,.091.148l.985.234a.123.123,0,0,0,.148-.091l.171-.72a2.52,2.52,0,0,0,.7-.112l.388.63a.123.123,0,0,0,.169.04l.862-.531a.123.123,0,0,0,.04-.169l-.388-.63a2.52,2.52,0,0,0,.417-.577l.721.171a.123.123,0,0,0,.148-.091l.234-.985a.123.123,0,0,0-.091-.148l-.721-.171a2.5,2.5,0,0,0-.112-.7l.63-.388a.123.123,0,0,0,.04-.169l-.531-.862A.123.123,0,0,0,378.344,431.012Zm-1.58,3.516a1.536,1.536,0,1,1,.5-2.113A1.536,1.536,0,0,1,376.764,434.528Z" transform="translate(-369.124 -425.402)" fill="#32495b"/><path d="M381.832,418.976l-.36.222a1.437,1.437,0,0,0-.33-.238l.1-.412a.07.07,0,0,0-.052-.084l-.563-.134a.07.07,0,0,0-.085.052l-.1.412a1.446,1.446,0,0,0-.4.064l-.222-.36a.07.07,0,0,0-.1-.023l-.493.3a.07.07,0,0,0-.023.1l.222.36a1.436,1.436,0,0,0-.238.33l-.412-.1a.07.07,0,0,0-.085.052l-.134.563a.07.07,0,0,0,.052.085l.412.1a1.432,1.432,0,0,0,.064.4l-.36.222a.07.07,0,0,0-.023.1l.3.493a.07.07,0,0,0,.1.023l.36-.222a1.415,1.415,0,0,0,.33.238l-.1.412a.07.07,0,0,0,.052.085l.563.134a.07.07,0,0,0,.085-.052l.1-.412a1.431,1.431,0,0,0,.4-.064l.222.36a.071.071,0,0,0,.1.023l.493-.3a.07.07,0,0,0,.023-.1l-.222-.36a1.427,1.427,0,0,0,.238-.33l.412.1a.071.071,0,0,0,.085-.052l.134-.563a.071.071,0,0,0-.052-.085l-.411-.1a1.429,1.429,0,0,0-.064-.4l.36-.222a.07.07,0,0,0,.023-.1l-.3-.493A.07.07,0,0,0,381.832,418.976Zm-.9,2.01a.878.878,0,1,1,.287-1.208A.878.878,0,0,1,380.928,420.985Z" transform="translate(-372.764 -418.327)" fill="#32495b"/><path d="M368.13,419.65l-.5.306a1.978,1.978,0,0,0-.456-.329l.135-.569a.1.1,0,0,0-.072-.117l-.778-.185a.1.1,0,0,0-.117.072l-.136.569a1.993,1.993,0,0,0-.555.089l-.306-.5a.1.1,0,0,0-.134-.032l-.681.42a.1.1,0,0,0-.032.134l.307.5a1.989,1.989,0,0,0-.329.456l-.569-.135a.1.1,0,0,0-.117.072l-.185.778a.1.1,0,0,0,.072.117l.569.135a1.98,1.98,0,0,0,.089.555l-.5.307a.1.1,0,0,0-.032.134l.42.681a.1.1,0,0,0,.134.032l.5-.307a1.981,1.981,0,0,0,.456.329l-.135.569a.1.1,0,0,0,.072.117l.778.185a.1.1,0,0,0,.117-.072l.135-.569a2,2,0,0,0,.555-.089l.306.5a.1.1,0,0,0,.134.032l.681-.42a.1.1,0,0,0,.032-.133l-.306-.5a1.989,1.989,0,0,0,.329-.456l.569.135a.1.1,0,0,0,.117-.072l.185-.778a.1.1,0,0,0-.072-.117l-.569-.135a1.98,1.98,0,0,0-.089-.555l.5-.306a.1.1,0,0,0,.032-.134l-.419-.681A.1.1,0,0,0,368.13,419.65Zm-1.248,2.777a1.213,1.213,0,1,1,.4-1.669A1.213,1.213,0,0,1,366.882,422.427Z" transform="translate(-363.605 -418.588)" fill="#4bd4c0"/></g><g transform="translate(15.396 11.024)"><g transform="translate(0.186 0.202)"><path d="M401.6,425.5l-2.621-2.222c-.276.312-1.549,1.749-1.643,1.82l-.069-.087c.073-.056,1.035-1.135,1.663-1.847l.038-.042,2.622,2.223,1.491-1.653.879.745,2.346-2.249,3.1,2.276,2.622-2.908.086.073-2.7,2.991-3.1-2.144-2.346,2.117-.879-.745Z" transform="translate(-397.268 -421.556)" fill="#cecece"/></g><path d="M397.243,430.2A.228.228,0,1,1,397,430,.224.224,0,0,1,397.243,430.2Z" transform="translate(-396.789 -426.525)" fill="#404040"/><path d="M401.484,425.508a.228.228,0,1,1-.242-.205A.224.224,0,0,1,401.484,425.508Z" transform="translate(-399.387 -423.648)" fill="#404040"/><path d="M408.136,431.057a.228.228,0,1,1-.242-.2A.224.224,0,0,1,408.136,431.057Z" transform="translate(-403.461 -427.048)" fill="#404040"/><path d="M411.983,426.79a.228.228,0,1,1-.242-.2A.224.224,0,0,1,411.983,426.79Z" transform="translate(-405.818 -424.434)" fill="#404040"/><path d="M414.4,428.483a.228.228,0,1,1-.242-.2A.224.224,0,0,1,414.4,428.483Z" transform="translate(-407.297 -425.471)" fill="#404040"/><path d="M420.418,423.053a.228.228,0,1,1-.242-.2A.225.225,0,0,1,420.418,423.053Z" transform="translate(-410.984 -422.145)" fill="#404040"/><path d="M435.212,421.239a.228.228,0,1,1-.242-.2A.224.224,0,0,1,435.212,421.239Z" transform="translate(-420.046 -421.034)" fill="#404040"/><path d="M428.377,428.688a.228.228,0,1,1-.242-.2A.225.225,0,0,1,428.377,428.688Z" transform="translate(-415.859 -425.596)" fill="#404040"/></g><path d="M397.107,436.5l2.179-.605,1.3-.6,2.206,1.17,1.256-1.892,2.013.213,1.307-1.778,2.124.477,2.645-1.332v6.285H397.149Z" transform="translate(-381.588 -416.82)" fill="#fc513f"/><g transform="translate(2.538 28.082)"><path d="M378.792,465.5H363.824a.22.22,0,0,1-.219-.219h0a.22.22,0,0,1,.219-.219h14.968a.22.22,0,0,1,.219.219h0A.22.22,0,0,1,378.792,465.5Z" transform="translate(-363.605 -465.058)" fill="#cecece"/><path d="M378.792,467.761H363.824a.22.22,0,0,1-.219-.219h0a.22.22,0,0,1,.219-.22h14.968a.22.22,0,0,1,.219.22h0A.22.22,0,0,1,378.792,467.761Z" transform="translate(-363.605 -466.445)" fill="#cecece"/><g transform="translate(0 3.183)"><path d="M378.792,473.712H363.824a.22.22,0,0,1-.219-.219h0a.22.22,0,0,1,.219-.22h14.968a.22.22,0,0,1,.219.22h0A.22.22,0,0,1,378.792,473.712Z" transform="translate(-363.605 -473.273)" fill="#cecece"/><path d="M378.792,475.977H363.824a.22.22,0,0,1-.219-.22h0a.22.22,0,0,1,.219-.219h14.968a.22.22,0,0,1,.219.219h0A.22.22,0,0,1,378.792,475.977Z" transform="translate(-363.605 -474.66)" fill="#cecece"/></g></g><rect width="9.159" height="6.649" rx="3.325" transform="translate(21.389 27.594)" fill="#cecece"/></g><path d="M11.236,0H30.09A11.236,11.236,0,0,1,41.326,11.236V46.554a0,0,0,0,1,0,0H0a0,0,0,0,1,0,0V11.236A11.236,11.236,0,0,1,11.236,0Z" fill="#32495b"/><rect width="38.94" height="37.667" transform="translate(1.193 7.526)" fill="#fff"/><g transform="translate(2.109 2.342)"><path d="M247.314,384.919a.812.812,0,0,1-1.148,1.148A.812.812,0,0,1,247.314,384.919Z" transform="translate(-243.585 -384.709)" fill="#ffd360"/><path d="M241.4,385.493a.784.784,0,1,1-.784-.784A.784.784,0,0,1,241.4,385.493Z" transform="translate(-239.836 -384.709)" fill="#fc513f"/><path d="M253.433,384.919a.812.812,0,0,1-1.148,1.148A.812.812,0,0,1,253.433,384.919Z" transform="translate(-247.333 -384.709)" fill="#4bd4c0"/></g><path d="M288.469,386.1h-26.1A1.1,1.1,0,0,1,261.275,385h0a1.1,1.1,0,0,1,1.093-1.094h26.1A1.1,1.1,0,0,1,289.562,385h0A1.1,1.1,0,0,1,288.469,386.1Z" transform="translate(-250.86 -381.878)" fill="#415b6d"/><g transform="translate(1.459 8.666)"><g transform="translate(0 0)"><g clip-path="url(#a)"><circle cx="7.34" cy="7.34" r="7.34" transform="translate(0 13.195) rotate(-64.013)" fill="#4bd4c0"/><g transform="translate(3.651 0.293)"><path d="M253.746,411.307l6.509-9.521-12.671,1.647Z" transform="translate(-247.584 -401.787)" fill="#f76666"/><path d="M274.058,422.517l-10.67-3.655,9.783-4.572Z" transform="translate(-257.265 -409.445)" fill="#fff"/><path d="M253.746,411.307l6.509-9.521-12.671,1.647Z" transform="translate(-247.584 -401.787)" fill="#fc513f"/><path d="M274.119,414.859l-10.631-3.551L270,401.787Z" transform="translate(-257.325 -401.787)" fill="#32495b"/></g></g></g><g transform="translate(28.664 7.842)"><rect width="1.74" height="7.832" rx="0.87" transform="translate(2.766 1.481)" fill="#fc513f"/><rect width="1.74" height="6.588" rx="0.87" transform="translate(0 2.724)" fill="#32495b"/><rect width="1.74" height="9.313" rx="0.87" transform="translate(5.532)" fill="#4bd4c0"/></g><path d="M311.122,405.946h-8.181a.562.562,0,0,0-.56.56v3a.562.562,0,0,0,.56.56h5.786c.477.942,1.137,2.139,1.137,2.139v-2.139h1.258a.562.562,0,0,0,.56-.56v-3A.562.562,0,0,0,311.122,405.946Z" transform="translate(-277.497 -404.042)" fill="#cecece"/><g transform="translate(19.597 12.633)"><g transform="translate(0 2.502)"><path d="M295.794,440.766h-6.719a.338.338,0,0,1-.337-.337h0a.338.338,0,0,1,.337-.337h6.719a.338.338,0,0,1,.337.337h0A.338.338,0,0,1,295.794,440.766Z" transform="translate(-288.738 -440.093)" fill="#cecece"/><path d="M295.794,444.241h-6.719a.338.338,0,0,1-.337-.337h0a.338.338,0,0,1,.337-.337h6.719a.338.338,0,0,1,.337.337h0A.338.338,0,0,1,295.794,444.241Z" transform="translate(-288.738 -442.222)" fill="#cecece"/></g><path d="M295.794,434.309h-6.719a.338.338,0,0,1-.337-.337h0a.338.338,0,0,1,.337-.337h6.719a.338.338,0,0,1,.337.337h0A.338.338,0,0,1,295.794,434.309Z" transform="translate(-288.738 -433.636)" fill="#cecece"/><path d="M295.794,437.785h-6.719a.338.338,0,0,1-.337-.337h0a.338.338,0,0,1,.337-.337h6.719a.338.338,0,0,1,.337.337h0A.338.338,0,0,1,295.794,437.785Z" transform="translate(-288.738 -435.765)" fill="#cecece"/></g></g><g transform="translate(6.585 30.171)"><g transform="translate(0)"><path d="M253.045,457.362a.828.828,0,1,1-.828-.828A.828.828,0,0,1,253.045,457.362Z" transform="translate(-251.389 -456.534)" fill="#4bd4c0"/><path d="M261.594,457.362a.828.828,0,1,1-.828-.828A.828.828,0,0,1,261.594,457.362Z" transform="translate(-256.626 -456.534)" fill="#4bd4c0"/><path d="M270.143,457.362a.828.828,0,1,1-.828-.828A.828.828,0,0,1,270.143,457.362Z" transform="translate(-261.862 -456.534)" fill="#4bd4c0"/><path d="M278.693,457.362a.828.828,0,1,1-.828-.828A.828.828,0,0,1,278.693,457.362Z" transform="translate(-267.099 -456.534)" fill="#4bd4c0"/><path d="M287.242,457.362a.828.828,0,1,1-.828-.828A.828.828,0,0,1,287.242,457.362Z" transform="translate(-272.336 -456.534)" fill="#4bd4c0"/><path d="M295.791,457.362a.828.828,0,1,1-.828-.828A.828.828,0,0,1,295.791,457.362Z" transform="translate(-277.572 -456.534)" fill="#4bd4c0"/><path d="M304.34,457.362a.828.828,0,1,1-.828-.828A.828.828,0,0,1,304.34,457.362Z" transform="translate(-282.809 -456.534)" fill="#4bd4c0"/><path d="M312.89,457.362a.828.828,0,1,1-.828-.828A.828.828,0,0,1,312.89,457.362Z" transform="translate(-288.046 -456.534)" fill="#4bd4c0"/><path d="M321.439,457.362a.828.828,0,1,1-.828-.828A.828.828,0,0,1,321.439,457.362Z" transform="translate(-293.283 -456.534)" fill="#cecece"/></g><g transform="translate(0 3.348)"><path d="M253.045,466a.828.828,0,1,1-.828-.828A.828.828,0,0,1,253.045,466Z" transform="translate(-251.389 -465.176)" fill="#fc513f"/><path d="M261.594,466a.828.828,0,1,1-.828-.828A.828.828,0,0,1,261.594,466Z" transform="translate(-256.626 -465.176)" fill="#fc513f"/><path d="M270.143,466a.828.828,0,1,1-.828-.828A.828.828,0,0,1,270.143,466Z" transform="translate(-261.862 -465.176)" fill="#fc513f"/><path d="M278.693,466a.828.828,0,1,1-.828-.828A.828.828,0,0,1,278.693,466Z" transform="translate(-267.099 -465.176)" fill="#fc513f"/><path d="M287.242,466a.828.828,0,1,1-.828-.828A.828.828,0,0,1,287.242,466Z" transform="translate(-272.336 -465.176)" fill="#fc513f"/><path d="M295.791,466a.828.828,0,1,1-.828-.828A.828.828,0,0,1,295.791,466Z" transform="translate(-277.572 -465.176)" fill="#cecece"/><path d="M304.34,466a.828.828,0,1,1-.828-.828A.828.828,0,0,1,304.34,466Z" transform="translate(-282.809 -465.176)" fill="#cecece"/><path d="M312.89,466a.828.828,0,1,1-.828-.828A.828.828,0,0,1,312.89,466Z" transform="translate(-288.046 -465.176)" fill="#cecece"/><path d="M321.439,466a.828.828,0,1,1-.828-.828A.828.828,0,0,1,321.439,466Z" transform="translate(-293.283 -465.176)" fill="#cecece"/></g><g transform="translate(0 6.697)"><circle cx="0.828" cy="0.828" r="0.828" fill="#32495b"/><path d="M261.594,474.647a.828.828,0,1,1-.828-.828A.828.828,0,0,1,261.594,474.647Z" transform="translate(-256.625 -473.819)" fill="#32495b"/><path d="M270.143,474.647a.828.828,0,1,1-.828-.828A.828.828,0,0,1,270.143,474.647Z" transform="translate(-261.862 -473.819)" fill="#32495b"/><path d="M278.693,474.647a.828.828,0,1,1-.828-.828A.828.828,0,0,1,278.693,474.647Z" transform="translate(-267.099 -473.819)" fill="#32495b"/><path d="M287.242,474.647a.828.828,0,1,1-.828-.828A.828.828,0,0,1,287.242,474.647Z" transform="translate(-272.336 -473.819)" fill="#32495b"/><path d="M295.791,474.647a.828.828,0,1,1-.828-.828A.828.828,0,0,1,295.791,474.647Z" transform="translate(-277.572 -473.819)" fill="#32495b"/><path d="M304.34,474.647a.828.828,0,1,1-.828-.828A.828.828,0,0,1,304.34,474.647Z" transform="translate(-282.809 -473.819)" fill="#cecece"/><circle cx="0.828" cy="0.828" r="0.828" transform="translate(23.188)" fill="#cecece"/><circle cx="0.828" cy="0.828" r="0.828" transform="translate(26.5)" fill="#cecece"/></g><g transform="translate(0 10.046)"><circle cx="0.828" cy="0.828" r="0.828" fill="#ffd360"/><path d="M261.594,483.289a.828.828,0,1,1-.828-.828A.828.828,0,0,1,261.594,483.289Z" transform="translate(-256.625 -482.461)" fill="#ffd360"/><path d="M270.143,483.289a.828.828,0,1,1-.828-.828A.828.828,0,0,1,270.143,483.289Z" transform="translate(-261.862 -482.461)" fill="#cecece"/><path d="M278.693,483.289a.828.828,0,1,1-.828-.828A.828.828,0,0,1,278.693,483.289Z" transform="translate(-267.099 -482.461)" fill="#cecece"/><path d="M287.242,483.289a.828.828,0,1,1-.828-.828A.828.828,0,0,1,287.242,483.289Z" transform="translate(-272.336 -482.461)" fill="#cecece"/><path d="M295.791,483.289a.828.828,0,1,1-.828-.828A.828.828,0,0,1,295.791,483.289Z" transform="translate(-277.572 -482.461)" fill="#cecece"/><path d="M304.34,483.289a.828.828,0,1,1-.828-.828A.828.828,0,0,1,304.34,483.289Z" transform="translate(-282.809 -482.461)" fill="#cecece"/><circle cx="0.828" cy="0.828" r="0.828" transform="translate(23.188)" fill="#cecece"/><circle cx="0.828" cy="0.828" r="0.828" transform="translate(26.5)" fill="#cecece"/></g></g><g transform="translate(87.007)"><path d="M11.236,0H30.09A11.236,11.236,0,0,1,41.326,11.236V46.554a0,0,0,0,1,0,0H0a0,0,0,0,1,0,0V11.236A11.236,11.236,0,0,1,11.236,0Z" fill="#32495b"/><rect width="38.94" height="37.667" transform="translate(1.193 7.526)" fill="#fff"/><g transform="translate(2.109 2.342)"><path d="M471.867,384.919a.812.812,0,0,1-1.148,1.148A.812.812,0,0,1,471.867,384.919Z" transform="translate(-468.138 -384.709)" fill="#ffd360"/><path d="M465.957,385.493a.784.784,0,1,1-.784-.784A.783.783,0,0,1,465.957,385.493Z" transform="translate(-464.39 -384.709)" fill="#fc513f"/><path d="M477.987,384.919a.812.812,0,0,1-1.148,1.148A.812.812,0,0,1,477.987,384.919Z" transform="translate(-471.887 -384.709)" fill="#4bd4c0"/></g><path d="M513.022,386.1h-26.1A1.1,1.1,0,0,1,485.828,385h0a1.1,1.1,0,0,1,1.094-1.094h26.1A1.1,1.1,0,0,1,514.115,385h0A1.1,1.1,0,0,1,513.022,386.1Z" transform="translate(-475.413 -381.878)" fill="#415b6d"/><g transform="translate(8.82 23.938)"><rect width="7.756" height="2.331" rx="1.166" transform="translate(0 17.857) rotate(-90)" fill="#fc513f"/><rect width="12.401" height="2.331" rx="1.166" transform="translate(3.559 17.857) rotate(-90)" fill="#32495b"/><rect width="9.565" height="2.331" rx="1.166" transform="translate(7.118 17.857) rotate(-90)" fill="#fc513f"/><rect width="13.806" height="2.331" rx="1.166" transform="translate(10.677 17.857) rotate(-90)" fill="#32495b"/><rect width="12.455" height="2.331" rx="1.166" transform="translate(14.236 17.857) rotate(-90)" fill="#fc513f"/><rect width="16.453" height="2.331" rx="1.166" transform="translate(17.795 17.857) rotate(-90)" fill="#32495b"/><rect width="17.857" height="2.331" rx="1.166" transform="translate(21.354 17.857) rotate(-90)" fill="#fc513f"/></g><g transform="translate(2.305 10.036)"><g transform="translate(0 0.137)"><circle cx="3.047" cy="3.047" r="3.047" transform="matrix(0.231, -0.973, 0.973, 0.231, 0.091, 6.102)" fill="#cecece"/><path d="M468.664,409.035v-4.113a3.767,3.767,0,1,0,3.749,4.113Z" transform="translate(-464.897 -404.922)" fill="#fc513f"/></g><g transform="translate(9.97 0.137)"><circle cx="3.047" cy="3.047" r="3.047" transform="matrix(0.231, -0.973, 0.973, 0.231, 0.091, 6.102)" fill="#cecece"/><path d="M494.4,404.922a3.767,3.767,0,1,0,0,7.534Z" transform="translate(-490.629 -404.922)" fill="#32495b"/></g><g transform="translate(19.941 0.137)"><circle cx="3.047" cy="3.047" r="3.047" transform="translate(0.121 6.149) rotate(-77.409)" fill="#cecece"/><path d="M517.466,411.352l2.663-2.663v-3.767a3.767,3.767,0,0,0-2.663,6.43Z" transform="translate(-516.362 -404.922)" fill="#4bd4c0"/></g><g transform="translate(29.692 0)"><circle cx="3.047" cy="3.047" r="3.047" transform="translate(0 2.321) rotate(-22.387)" fill="#cecece"/><path d="M547.607,404.922a3.755,3.755,0,0,0-2.664,1.1l2.664,2.663Z" transform="translate(-543.62 -404.785)" fill="#ffd360"/></g></g><g transform="translate(2.664 21.642)"><path d="M484.681,435.065H466.094a.273.273,0,0,1-.272-.272h0a.273.273,0,0,1,.272-.272h18.587a.273.273,0,0,1,.272.272h0A.273.273,0,0,1,484.681,435.065Z" transform="translate(-465.822 -434.52)" fill="#cecece"/><path d="M484.681,437.877H466.094a.273.273,0,0,1-.272-.272h0a.273.273,0,0,1,.272-.272h18.587a.273.273,0,0,1,.272.272h0A.273.273,0,0,1,484.681,437.877Z" transform="translate(-465.822 -436.242)" fill="#cecece"/></g></g></g></g><g transform="translate(125.572 234.455)"><g transform="translate(22.145 0)"><circle cx="25.826" cy="25.826" r="25.826" transform="translate(0 36.523) rotate(-45)" fill="#ededed"/><circle cx="19.762" cy="19.762" r="19.762" transform="matrix(0.999, -0.048, 0.048, 0.999, 18.188, 17.596)" fill="#f4f4f4"/><circle cx="8.922" cy="8.922" r="8.922" transform="matrix(0.556, -0.831, 0.831, 0.556, 31.882, 38.528)" fill="#fff"/></g><path d="M251.719,575.135l-5.245-4.8a1.613,1.613,0,0,1-.082-2.3l13.894-14.672a1.624,1.624,0,0,1,2.262-.08l5.246,4.8a1.613,1.613,0,0,1,.082,2.3l-13.894,14.672A1.624,1.624,0,0,1,251.719,575.135Z" transform="translate(-222.611 -502.184)" fill="#fff"/><g transform="translate(22.34 51.729)"><g clip-path="url(#b)"><path d="M309.357,455.058a28.507,28.507,0,0,0-39.816,1.436,27.386,27.386,0,0,0,1.372,39.161,28.507,28.507,0,0,0,39.816-1.436A27.386,27.386,0,0,0,309.357,455.058Zm-32.952,34.8a19.562,19.562,0,0,1-.98-27.972,20.362,20.362,0,0,1,28.44-1.026,19.562,19.562,0,0,1,.98,27.972A20.362,20.362,0,0,1,276.405,489.856Z" transform="translate(-254.761 -489.467)" fill="#1d917e"/></g></g><path d="M213.96,619.756l-11.3-10.354,12.086-12.763,11.3,10.354Z" transform="translate(-196.092 -529.001)" fill="#2c9eff"/><path d="M186.221,635.978a1.8,1.8,0,0,0,.069,2.57l8.624,7.9a1.876,1.876,0,0,0,2.612-.115l6.058-6.4-11.3-10.354Z" transform="translate(-185.716 -549.179)" fill="#2c9eff"/><path d="M251.024,587.292l-8.624-7.9a1.861,1.861,0,0,0-2.591.093l-5.961,6.294,11.305,10.355,5.961-6.295A1.787,1.787,0,0,0,251.024,587.292Z" transform="translate(-215.199 -518.144)" fill="#2c9eff"/><path d="M244.581,607.227l-11.305-10.354.222-.234,11.3,10.354Z" transform="translate(-214.848 -529.001)" fill="#1d917e"/><path d="M213.8,639.734l-11.3-10.354.222-.234,11.3,10.354Z" transform="translate(-195.993 -548.913)" fill="#1d917e"/><path d="M311.819,452.231A28.507,28.507,0,0,0,272,453.667a27.386,27.386,0,0,0,1.372,39.161,28.508,28.508,0,0,0,39.816-1.436A27.386,27.386,0,0,0,311.819,452.231Zm-23.813,42.674a22.841,22.841,0,1,1,26.966-17.784A22.842,22.842,0,0,1,288.006,494.905Z" transform="translate(-233.929 -436.007)" fill="#2c9eff"/><path d="M284.265,496.854a22.742,22.742,0,0,1-1.139-32.484,23.674,23.674,0,0,1,33.027-1.191,22.742,22.742,0,0,1,1.138,32.483A23.673,23.673,0,0,1,284.265,496.854Zm31.136-32.88a22.556,22.556,0,0,0-31.468,1.135,21.669,21.669,0,0,0,1.085,30.95,22.556,22.556,0,0,0,31.468-1.135A21.669,21.669,0,0,0,315.4,463.974Z" transform="translate(-241.54 -443.494)" fill="#1d917e"/><g transform="translate(46.48 31.213)"><path d="M305.973,510.474a4.177,4.177,0,0,0,2.113.6c1.205,0,1.91-.637,1.91-1.558,0-.853-.488-1.341-1.72-1.815-1.49-.528-2.411-1.3-2.411-2.587,0-1.422,1.178-2.479,2.953-2.479a4.149,4.149,0,0,1,2.018.447l-.325.962a3.633,3.633,0,0,0-1.734-.434c-1.246,0-1.72.745-1.72,1.368,0,.853.555,1.273,1.815,1.761,1.544.6,2.33,1.341,2.33,2.682,0,1.408-1.043,2.628-3.2,2.628a4.719,4.719,0,0,1-2.33-.582Z" transform="translate(-305.675 -502.631)" fill="#32495b"/><path d="M328.824,507.865h-3.548v3.292h3.955v.989H324.1v-9.129h4.93V504h-3.752v2.885h3.548Z" transform="translate(-316.959 -502.867)" fill="#32495b"/><path d="M348.241,507.25c0,3.142-1.91,4.808-4.24,4.808-2.411,0-4.1-1.869-4.1-4.632,0-2.9,1.8-4.795,4.24-4.795C346.629,502.631,348.241,504.541,348.241,507.25Zm-7.084.149c0,1.95,1.057,3.7,2.912,3.7s2.926-1.72,2.926-3.793c0-1.815-.948-3.711-2.912-3.711S341.157,505.394,341.157,507.4Z" transform="translate(-326.637 -502.631)" fill="#32495b"/></g></g><g transform="translate(184.258 115.775)"><g transform="translate(0)"><g transform="translate(0)"><g transform="translate(0 23.518)"><rect width="19.232" height="11.236" transform="translate(0 22.049) rotate(-89.893)" fill="#32495b"/><path d="M346.863,176.509l-7.987-.037-1.605,2.816,11.236.021Z" transform="translate(-337.235 -176.472)" fill="#5f7283" fill-rule="evenodd"/></g><g transform="translate(12.324 15.192)"><rect width="27.728" height="11.238" transform="matrix(0.002, -1, 1, 0.002, 0, 30.544)" fill="#fb5547"/><path d="M378.731,155.07l-8-.086-1.608,2.815,11.238.021Z" transform="translate(-369.067 -154.984)" fill="#ff7e78" fill-rule="evenodd"/></g><g transform="translate(24.79)"><rect width="43.057" height="11.235" transform="translate(0 45.87) rotate(-89.893)" fill="#35b4a3"/><path d="M410.974,115.792l-8-.017-1.607,2.813,11.235.021Z" transform="translate(-401.286 -115.775)" fill="#4ad5c0" fill-rule="evenodd"/></g><g transform="translate(37.395 7.608)"><rect width="35.452" height="11.237" transform="translate(0 38.265) rotate(-89.893)" fill="#ffce64"/><path d="M443.462,135.509l-7.993-.1-1.606,2.813,11.237.021Z" transform="translate(-433.796 -135.411)" fill="#fccf6b" fill-rule="evenodd"/></g></g></g></g><g transform="translate(253.702 136.834)"><g transform="translate(0 0)" clip-path="url(#c)"><circle cx="19.401" cy="19.401" r="19.401" transform="translate(0 12.229) rotate(-18.37)" fill="#32495b"/><g transform="translate(10.041 -1.842)"><path d="M570.295,232.724l-6.13,29.222,20.674-3.2Z" transform="translate(-555.701 -206.627)" fill="#686868"/><path d="M556.806,191.741,542.32,169.564l16.256-4.192Z" transform="translate(-542.32 -165.372)" fill="#404040"/><path d="M579.706,191.741l29.61-7.248-27.841-19.121Z" transform="translate(-565.22 -165.372)" fill="#f76666"/><path d="M594.53,258.747l-14.544-26.023,27.321,8.269Z" transform="translate(-565.392 -206.627)" fill="#fff"/><path d="M606.717,230.144l2.6-15.422-29.61,7.248Z" transform="translate(-565.22 -195.6)" fill="#dbdbdb"/><path d="M570.186,233.427l-6.022,28.949,20.674-3.2Z" transform="translate(-555.701 -207.058)" fill="#35b4a3"/><path d="M556.806,191.741,542.32,169.564l16.256-4.192Z" transform="translate(-542.32 -165.372)" fill="#5f7283"/><path d="M579.706,191.741l29.61-7.248-27.841-19.121Z" transform="translate(-565.22 -165.372)" fill="#fb5547"/><path d="M594.359,259.178l-14.653-25.751,27.43,8Z" transform="translate(-565.22 -207.058)" fill="#4ad5c0"/><path d="M606.717,230.144l2.6-15.422-29.61,7.248Z" transform="translate(-565.22 -195.6)" fill="#ffce64"/></g></g></g><g transform="translate(121.071 140.195)"><path d="M207.928,183.985a20.284,20.284,0,1,0,1.557,28.645A20.282,20.282,0,0,0,207.928,183.985Z" transform="translate(-174.1 -178.801)" fill="#f5f7fa"/><path d="M208.653,185.832a19.49,19.49,0,1,0,1.5,27.523A19.489,19.489,0,0,0,208.653,185.832Zm-.069,25.115-5.2-4.667a23.076,23.076,0,0,0,4.144-7,20.489,20.489,0,0,0,4.846,1.289A16.664,16.664,0,0,1,208.584,210.947Zm-1.642-22.088a18.194,18.194,0,0,1-.327,8.377,22.452,22.452,0,0,1-4.507-2.988Zm1.668.9a16.676,16.676,0,0,1,3.712,9.287,19.093,19.093,0,0,1-4.331-1.191A20.084,20.084,0,0,0,208.61,189.76Zm-7.187-1.735a17.73,17.73,0,0,1,4.154-.189l.253.023L201,193.25a22.448,22.448,0,0,1-3.457-4.153A18.917,18.917,0,0,1,201.422,188.025Zm-4.652-.231a19.045,19.045,0,0,1-1.655-4.178,16.682,16.682,0,0,1,9.635,2.683A20.046,20.046,0,0,0,196.771,187.794ZM200,194.363l-4.415,4.923-5.573-5a21.481,21.481,0,0,1,6.146-4.58A23.736,23.736,0,0,0,200,194.363Zm-5.414,6.037-4.413,4.92A23.784,23.784,0,0,0,185.122,202a21.526,21.526,0,0,1,3.886-6.605Zm-5.411,6.034-4.834,5.389a18.193,18.193,0,0,1,.326-8.377A22.451,22.451,0,0,1,189.172,206.433Zm-6.5,4.487a16.676,16.676,0,0,1-3.711-9.286,18.961,18.961,0,0,1,4.331,1.191A20.066,20.066,0,0,0,182.668,210.921Zm7.187,1.735a17.607,17.607,0,0,1-4.154.188c-.089-.005-.171-.014-.253-.021l4.836-5.392a22.433,22.433,0,0,1,3.456,4.153A18.866,18.866,0,0,1,189.856,212.656Zm4.653.232a19.053,19.053,0,0,1,1.654,4.177,16.683,16.683,0,0,1-9.634-2.681A20.081,20.081,0,0,0,194.508,212.887Zm-3.226-6.569L195.7,201.4l5.573,5a21.5,21.5,0,0,1-6.144,4.578A23.752,23.752,0,0,0,191.282,206.318Zm5.412-6.035,4.415-4.922a23.706,23.706,0,0,0,5.048,3.316,21.545,21.545,0,0,1-3.888,6.606Zm-3.095-16.55a20.449,20.449,0,0,0,1.807,4.677,23.084,23.084,0,0,0-6.511,4.878l-5.2-4.665A16.655,16.655,0,0,1,193.6,183.733Zm-10.905,6,5.2,4.666a23.035,23.035,0,0,0-4.143,7,20.567,20.567,0,0,0-4.846-1.289A16.652,16.652,0,0,1,182.694,189.737Zm14.986,27.211a20.584,20.584,0,0,0-1.807-4.677,23.064,23.064,0,0,0,6.509-4.877l5.2,4.666A16.656,16.656,0,0,1,197.68,216.948Z" transform="translate(-175.354 -180.056)" fill="#32495b"/><g transform="translate(0.587 0.587)"><path d="M175.644,201.082a19.633,19.633,0,0,1,5.005-14.218h0a19.633,19.633,0,0,1,13.595-6.518h0a19.635,19.635,0,0,1,14.219,5h0a19.639,19.639,0,0,1,6.517,13.594h0a19.636,19.636,0,0,1-5.007,14.221h0a19.628,19.628,0,0,1-13.592,6.517h0l-.012-.207.012.207a19.628,19.628,0,0,1-14.22-5.005h0a19.631,19.631,0,0,1-6.518-13.593Zm18.621-20.325a19.221,19.221,0,0,0-13.308,6.383h0a19.217,19.217,0,0,0-4.9,13.92h0a19.221,19.221,0,0,0,6.381,13.308h0a19.223,19.223,0,0,0,13.922,4.9h0a19.213,19.213,0,0,0,13.307-6.38h0a19.217,19.217,0,0,0,4.9-13.922h0a19.225,19.225,0,0,0-6.381-13.309h0a19.226,19.226,0,0,0-13.922-4.9Z" transform="translate(-175.615 -180.316)" fill="#f5f7fa"/></g></g><g transform="translate(87.527 174.085)"><g transform="translate(202.403)"><path d="M648.157,278.775,628.945,268.32a3.415,3.415,0,0,0-4.619,1.362l-12.5,22.978a3.415,3.415,0,0,0,1.363,4.619L632.4,307.734a3.416,3.416,0,0,0,4.619-1.363l12.5-22.978A3.415,3.415,0,0,0,648.157,278.775Z" transform="translate(-610.827 -267.272)" fill="url(#d)"/><path d="M648.157,278.775,628.945,268.32a3.415,3.415,0,0,0-4.619,1.362l-12.5,22.978a3.415,3.415,0,0,0,1.363,4.619L632.4,307.734a3.416,3.416,0,0,0,4.619-1.363l12.5-22.978A3.415,3.415,0,0,0,648.157,278.775Z" transform="translate(-610.827 -267.272)" fill="url(#e)" style="mix-blend-mode:multiply;isolation:isolate"/><path d="M648.671,278.634l-22.085-12.019a1.776,1.776,0,0,0-2.4.709l-14.067,25.849a1.775,1.775,0,0,0,.709,2.4l22.084,12.018a1.775,1.775,0,0,0,2.4-.709l14.068-25.85A1.774,1.774,0,0,0,648.671,278.634Z" transform="translate(-609.904 -266.349)" fill="#32495b"/><g transform="translate(9.899)"><path d="M665.1,280.823a1.628,1.628,0,0,0-.65-2.2l-22.342-12.158a1.629,1.629,0,0,0-2.2.65l-4.452,8.181,25.194,13.711Z" transform="translate(-635.452 -266.267)" fill="#415b6d"/></g><path d="M666.3,285.39l-15.856-8.629a2.494,2.494,0,0,0-3.374,1l-.967,1.777a2.5,2.5,0,0,0,1,3.373l15.856,8.629a2.494,2.494,0,0,0,3.374-.995l.967-1.777A2.5,2.5,0,0,0,666.3,285.39Z" transform="translate(-631.892 -272.511)" fill="#ccd1d9"/><path d="M666.646,285.967l-15.585-8.482a2.35,2.35,0,0,0-3.18.939l-.912,1.675a2.35,2.35,0,0,0,.938,3.179l15.585,8.482a2.351,2.351,0,0,0,3.18-.938l.912-1.675A2.352,2.352,0,0,0,666.646,285.967Z" transform="translate(-632.434 -272.965)" fill="#fff"/><g transform="translate(26.295 33.943)"><path d="M677.767,353.871a0,0,0,0,1,0,0A0,0,0,0,0,677.767,353.871Z" transform="translate(-677.767 -353.871)" fill="none"/></g><g transform="translate(2.785 12.33)"><path d="M2.277,0h0A2.277,2.277,0,0,1,4.554,2.277V4.914A2.277,2.277,0,0,1,2.277,7.191h0A2.277,2.277,0,0,1,0,4.914V2.277A2.277,2.277,0,0,1,2.277,0Z" transform="matrix(0.478, -0.878, 0.878, 0.478, 5.627, 4)" fill="#5f7283"/><path d="M2.277,0h0A2.277,2.277,0,0,1,4.554,2.277V4.915A2.277,2.277,0,0,1,2.277,7.192h0A2.276,2.276,0,0,1,0,4.915V2.277A2.277,2.277,0,0,1,2.277,0Z" transform="translate(13.196 8.119) rotate(-61.445)" fill="#5f7283"/><path d="M2.276,0h0A2.277,2.277,0,0,1,4.554,2.277V4.914A2.277,2.277,0,0,1,2.277,7.191h0A2.277,2.277,0,0,1,0,4.914V2.276A2.276,2.276,0,0,1,2.276,0Z" transform="translate(2.796 9.202) rotate(-61.445)" fill="#5f7283"/><path d="M651.764,325.739l-3.124-1.7a1.817,1.817,0,0,0-2.464.726l-.44.809a1.817,1.817,0,0,0,.728,2.465l3.124,1.7a1.818,1.818,0,0,0,2.465-.727l.44-.809A1.817,1.817,0,0,0,651.764,325.739Z" transform="translate(-634.501 -313.849)" fill="#5f7283"/><path d="M2.278,0h0A2.276,2.276,0,0,1,4.554,2.276V4.915A2.276,2.276,0,0,1,2.278,7.192h0A2.278,2.278,0,0,1,0,4.914V2.278A2.278,2.278,0,0,1,2.278,0Z" transform="translate(18.001 17.477) rotate(-61.445)" fill="#5f7283"/><path d="M2.277,0h0A2.276,2.276,0,0,1,4.554,2.276V4.914A2.277,2.277,0,0,1,2.277,7.191h0A2.277,2.277,0,0,1,0,4.914V2.277A2.277,2.277,0,0,1,2.277,0Z" transform="translate(0 14.34) rotate(-61.444)" fill="#5f7283"/><path d="M2.276,0h0A2.276,2.276,0,0,1,4.554,2.276V4.915A2.277,2.277,0,0,1,2.277,7.192h0A2.277,2.277,0,0,1,0,4.915V2.276A2.276,2.276,0,0,1,2.276,0Z" transform="translate(7.569 18.46) rotate(-61.445)" fill="#5f7283"/><path d="M664.252,349.724l-3.124-1.7a1.817,1.817,0,0,0-2.464.727l-.441.809a1.817,1.817,0,0,0,.728,2.465l3.124,1.7a1.817,1.817,0,0,0,2.465-.727l.441-.809A1.817,1.817,0,0,0,664.252,349.724Z" transform="translate(-642.151 -328.541)" fill="#5f7283"/></g><g transform="translate(23.617 20.605)"><path d="M2.278,0h0A2.276,2.276,0,0,1,4.554,2.276V4.915A2.277,2.277,0,0,1,2.277,7.192h0A2.277,2.277,0,0,1,0,4.915V2.278A2.278,2.278,0,0,1,2.278,0Z" transform="translate(0 4) rotate(-61.445)" fill="#fc513f"/></g><g transform="translate(24.112 28.633)"><path d="M.188,0h.2A.187.187,0,0,1,.574.187v1.46a.187.187,0,0,1-.187.187h-.2A.188.188,0,0,1,0,1.646V.188A.188.188,0,0,1,.188,0Z" transform="translate(0 0.731) rotate(-61.444)" fill="#fff"/><path d="M672.888,341.784a.073.073,0,0,1-.03-.1l.807-1.484a.074.074,0,0,1,.1-.029l.376.2a.073.073,0,0,1,.029.1l-.807,1.484a.072.072,0,0,1-.1.028Z" transform="translate(-672.572 -340.165)" fill="#fff"/></g><g transform="translate(6.046 25.849)"><path d="M646.824,344.456a.075.075,0,0,1-.09-.049l-.478-1.62a.073.073,0,0,1,.049-.091l.41-.121a.074.074,0,0,1,.09.049l.478,1.62a.074.074,0,0,1-.049.091Z" transform="translate(-638.215 -338.856)" fill="#fff"/><path d="M.188,0H1.647a.187.187,0,0,1,.187.187v.2a.188.188,0,0,1-.188.188H.187A.187.187,0,0,1,0,.386v-.2A.188.188,0,0,1,.188,0Z" transform="matrix(0.959, -0.283, 0.283, 0.959, 7.594, 4.644)" fill="#fff"/><path d="M625.51,333.552a.072.072,0,0,1,.049-.091l1.62-.478a.074.074,0,0,1,.09.049l.121.41a.073.073,0,0,1-.049.091l-1.62.478a.075.075,0,0,1-.091-.049Z" transform="translate(-625.507 -332.981)" fill="#fff"/></g><g transform="translate(21.321 33.988)"><path d="M.187,0h.2A.187.187,0,0,1,.573.187v1.46a.187.187,0,0,1-.187.187h-.2A.188.188,0,0,1,0,1.646V.187A.187.187,0,0,1,.187,0Z" transform="translate(0 0.503) rotate(-61.444)" fill="#fff"/></g><g transform="translate(26.68 23.172)"><path d="M678.9,326.66a1.16,1.16,0,0,1,.8-.585h0a.226.226,0,0,1,.265.18h0a.226.226,0,0,1-.179.265h0a.705.705,0,0,0-.489.357h0a.707.707,0,0,0,.283.959h0a.708.708,0,0,0,.959-.283h0a.706.706,0,0,0,.034-.605h0a.225.225,0,0,1,.125-.294h0a.226.226,0,0,1,.295.125h0a1.158,1.158,0,0,1-.056.992h0a1.161,1.161,0,0,1-1.574.464h0a1.161,1.161,0,0,1-.465-1.574Z" transform="translate(-678.761 -326.07)" fill="#fff"/><g transform="translate(0.919 0.006)"><path d="M681.16,327.173l.527-.969a.227.227,0,0,1,.308-.09h0a.226.226,0,0,1,.09.307h0l-.527.969a.225.225,0,0,1-.306.09h0a.227.227,0,0,1-.091-.307Z" transform="translate(-681.133 -326.086)" fill="#fff"/></g></g><g transform="translate(8.822 15.303)"><path d="M640.858,307.289l.633-1.164-.435.018.15-.276a1.645,1.645,0,0,0,.707-.107l.114.062-.882,1.622Z" transform="translate(-637.686 -305.762)" fill="#fff"/><path d="M632.672,320.117l.045-.082.922-.475a.83.83,0,0,0,.359-.3c.067-.123.027-.223-.119-.3a.347.347,0,0,0-.367.031l-.11-.258a.537.537,0,0,1,.285-.093.569.569,0,0,1,.313.07.686.686,0,0,1,.326.324.433.433,0,0,1-.031.39,1.02,1.02,0,0,1-.429.36l-.6.323.606.33-.138.255Z" transform="translate(-632.672 -313.65)" fill="#fff"/><path d="M659.922,317.1l.264-.144a.428.428,0,0,0,.2.286.267.267,0,0,0,.413-.108.281.281,0,0,0,.024-.233.347.347,0,0,0-.175-.19l-.05-.027.128-.236.042.023q.248.135.36-.072a.226.226,0,0,0-.113-.342.377.377,0,0,0-.292-.013l-.028-.271a.477.477,0,0,1,.222-.023.636.636,0,0,1,.246.073.662.662,0,0,1,.316.315.427.427,0,0,1-.032.382.449.449,0,0,1-.4.248.475.475,0,0,1,.038.543.5.5,0,0,1-.347.275.735.735,0,0,1-.49-.1A.682.682,0,0,1,659.922,317.1Z" transform="translate(-649.364 -311.877)" fill="#fff"/><path d="M653.375,331.1l-.229.422-.276-.15.229-.422-.735-.4.089-.164,1.448-.553.126.068-.529.972.163.089-.124.227Zm.112-.863-.678.26.414.226Z" transform="translate(-644.734 -320.505)" fill="#fff"/></g></g><g transform="translate(0 5.612)"><rect width="36.092" height="19.087" transform="translate(1.243 18.6) rotate(-25.376)" fill="#5f7283"/><path d="M90.735,328.755l20.395.889L98.915,346Z" transform="translate(-89.492 -310.154)" fill="#32495b"/><path d="M155.587,288.836l-12.215,16.357,20.395.889Z" transform="translate(-121.734 -285.703)" fill="#32495b"/><path d="M90.735,299.35l11.151-18.6,21.459,3.133Z" transform="translate(-89.492 -280.75)" fill="#32495b"/><path d="M88.77,300.16l-1.243-2.621,32.61-15.467,1.243,2.621-12.215,16.357Z" transform="translate(-87.527 -281.559)" fill="#efefef"/><path d="M126.966,297.6l-18.295,8.677a.649.649,0,0,1-.862-.307h0a.649.649,0,0,1,.307-.862l18.295-8.678a.649.649,0,0,1,.862.308h0A.649.649,0,0,1,126.966,297.6Z" transform="translate(-99.913 -290.317)" fill="#cecece"/><path d="M129.923,303.834l-18.295,8.678a.648.648,0,0,1-.862-.307h0a.648.648,0,0,1,.307-.862l18.295-8.678a.649.649,0,0,1,.862.307h0A.649.649,0,0,1,129.923,303.834Z" transform="translate(-101.724 -294.135)" fill="#cecece"/></g></g></g></svg>