<svg xmlns="http://www.w3.org/2000/svg" width="218.759" height="187.606" viewBox="0 0 218.759 187.606"><g transform="translate(-303.988 -247.467)"><g transform="translate(328.783 276.656)"><path d="M380.909,349.361H347.052l2.783-40.813h28.291Z" transform="translate(-271.556 -195.486)" fill="#110239"/><path d="M391.013,323.828a2.213,2.213,0,0,0-1.838-.983H350.12a2.213,2.213,0,0,0-1.837.983l-5.117,7.632a2.213,2.213,0,0,0,1.84,3.444h49.284a2.212,2.212,0,0,0,1.838-3.444Z" transform="translate(-277.223 -176.487)" fill="#110239"/><rect width="184.849" height="123.912" rx="4.091" fill="#32495b"/><rect width="167.828" height="106.21" transform="translate(8.51 8.21)" fill="#fefefe"/><rect width="159.442" height="94.643" transform="translate(12.703 19.776)" fill="#e5e6ed"/><rect width="159.442" height="7.829" transform="translate(12.703 19.776)" fill="#b3eef6"/><rect width="49.516" height="6.536" transform="translate(114.89 53.143)" fill="#fefefe"/><rect width="49.516" height="6.536" transform="translate(114.89 64.698)" fill="#fefefe"/><rect width="49.516" height="6.536" transform="translate(114.89 76.254)" fill="#fefefe"/><rect width="49.517" height="6.536" transform="translate(27.408 35.463)" fill="#fefefe"/><rect width="49.517" height="6.536" transform="translate(27.408 47.018)" fill="#fefefe"/></g><g transform="translate(303.988 247.467)"><g transform="translate(0 78.227)"><path d="M403.4,281.057H309.917a5.928,5.928,0,0,0-5.929,5.927v30.145a5.929,5.929,0,0,0,5.929,5.927h58.567l22.306,18.969L380.2,323.056h23.2a5.929,5.929,0,0,0,5.927-5.927V286.984A5.927,5.927,0,0,0,403.4,281.057Z" transform="translate(-303.988 -281.057)" fill="#2c9eff"/><rect width="63" height="3.627" transform="translate(35.227 8.128)" fill="#fff"/><rect width="63" height="3.627" transform="translate(35.227 15.529)" fill="#fff"/><rect width="63" height="3.627" transform="translate(35.227 22.929)" fill="#fff"/><rect width="41.814" height="3.627" transform="translate(35.227 30.33)" fill="#fff"/><path d="M330.841,296.731a12.153,12.153,0,1,1-12.154-12.154A12.154,12.154,0,0,1,330.841,296.731Z" transform="translate(-300.603 -276.379)" fill="#110239"/><ellipse cx="3.43" cy="3.537" rx="3.43" ry="3.537" transform="translate(14.655 13.2)" fill="#fff"/><path d="M315.325,289.992H315.2a6.089,6.089,0,0,0-6.09,6.088v3.882a11.814,11.814,0,0,0,12.3,0V296.08A6.089,6.089,0,0,0,315.325,289.992Z" transform="translate(-297.179 -269.183)" fill="#fff"/></g><g transform="translate(113.421)"><path d="M452.1,247.467H358.617a5.926,5.926,0,0,0-5.927,5.927v30.145a5.926,5.926,0,0,0,5.927,5.927h27.066l-7.252,18.969L397.4,289.466h54.7a5.927,5.927,0,0,0,5.927-5.927V253.394A5.927,5.927,0,0,0,452.1,247.467Z" transform="translate(-352.69 -247.467)" fill="#d0d1de"/><rect width="63" height="3.627" transform="translate(35.225 8.129)" fill="#fff"/><rect width="63" height="3.627" transform="translate(35.225 15.529)" fill="#fff"/><rect width="63" height="3.627" transform="translate(35.225 22.93)" fill="#fff"/><rect width="41.814" height="3.627" transform="translate(35.225 30.33)" fill="#fff"/><path d="M379.543,263.141a12.153,12.153,0,1,1-12.152-12.154A12.154,12.154,0,0,1,379.543,263.141Z" transform="translate(-349.307 -242.789)" fill="#110239"/><path d="M365.841,256.673a3.431,3.431,0,1,1-3.428-3.538A3.484,3.484,0,0,1,365.841,256.673Z" transform="translate(-344.329 -239.935)" fill="#fff"/><path d="M364.026,256.4H363.9a6.091,6.091,0,0,0-6.09,6.09v3.882a11.828,11.828,0,0,0,12.3,0v-3.882A6.091,6.091,0,0,0,364.026,256.4Z" transform="translate(-345.882 -235.593)" fill="#fff"/></g></g><g transform="translate(448.066 370.067)"><rect width="48" height="15.234" rx="2.345" fill="#fb5547"/></g><g transform="translate(346.49 276.551)"><path d="M363.717,279.491a27.476,27.476,0,0,1-7.5.331,11.064,11.064,0,0,1-2.634-.573c.121,3.123.144,10.443-2.077,13.475,0,0,.8,3.6,7.3,3.705s7.231-4.8,7.231-4.8S363.85,284.1,363.717,279.491Z" transform="translate(-283.342 -234.317)" fill="#f88667"/><path d="M351.542,292.838a2.207,2.207,0,0,0,.1.254l.016.033a3.708,3.708,0,0,0,.2.38l.009.019a4.911,4.911,0,0,0,.331.461l.056.065a5.254,5.254,0,0,0,1.178,1.022l.084.058a7.011,7.011,0,0,0,.88.461c.042.019.089.035.13.054a8.576,8.576,0,0,0,1.141.389,9.146,9.146,0,0,1,1.914-4.613,11.473,11.473,0,0,1,7.317-4.248,44.064,44.064,0,0,1-1.183-7.681,27.476,27.476,0,0,1-7.5.331,11.064,11.064,0,0,1-2.634-.573c.121,3.123.144,10.443-2.077,13.475l.021.077Z" transform="translate(-283.342 -234.317)" fill="#e45940"/><path d="M354.481,272.728s10.65-3.144,12.345-.566,1.388,6.744,2.1,8.58,3.349,3.77,3.631,4.5-1.77,2.138-2.056,2.711-1.358,6.6-3.207,7.93-11.763-2.2-14.22-6.882S351.625,274.27,354.481,272.728Z" transform="translate(-283.109 -245.083)" fill="#f88667"/><path d="M362.6,275.3a10.564,10.564,0,0,1-1.123,5.5c-.636,1.274,2.543,4.66,1.658,6.2-.589,1.025-1.451.766-2.233-1.26a3.086,3.086,0,0,0-1.721-1.47c-2.606-1.127-3.214,2.844-.876,4.024,1.635.824.661,4.967.661,4.967-1.756,1.351-7.562-.28-6.926-4.518.405-2.7.584-3.726-.361-4.383-1.712-1.19-3.938-4.495-1.123-7.294,3.882-3.859.342-5.086,4.83-6.2S363.587,272.5,362.6,275.3Z" transform="translate(-286.382 -245.788)" fill="#110239"/><path d="M351.556,274.7c.251-.978,2.024-2.24,2.9-2.893a12.913,12.913,0,0,1,4.593-2.073,11.832,11.832,0,0,1,5.119-.172c1.456.277,2.676.925,4.166,1.092a4.8,4.8,0,0,0,3.712-.72,9.507,9.507,0,0,1,.184,3.37,10.525,10.525,0,0,1-1.914,3.7c-2.161,3.223-8.037,5.009-12.18,3.3-2-.822-3.8-1.535-4.781-3.274A10.508,10.508,0,0,0,351.556,274.7Z" transform="translate(-283.277 -247.456)" fill="#110239"/><path d="M382.691,274.636l10.3,22.849s-3.014,3.389-4.02,2.636-16.444-19.293-17.951-20.254S382.691,274.636,382.691,274.636Z" transform="translate(-257.576 -240.447)" fill="#110239"/><path d="M365,292.6s.042,6.57,4.059,8.077c0,0,20.59-8.533,24.733-9.35S413,290.379,413,290.379l-15.191-27.118s-7.283,14.563-13.936,19.334S365,292.6,365,292.6Z" transform="translate(-265.412 -255.563)" fill="#fd425f"/><path d="M373.061,284.132c1.63-.647,3.328-1.318,5-1.963a20.935,20.935,0,0,1-4.334-9.292c-1.56.894-3.179,1.758-4.746,2.559A18.9,18.9,0,0,0,373.061,284.132Z" transform="translate(-260.119 -242.786)" fill="#110239"/><path d="M402.134,274.629c4.29,10.342,2.774,20.8-3.384,23.352s-14.628-3.763-18.915-14.106-2.774-20.8,3.384-23.352S397.847,264.284,402.134,274.629Z" transform="translate(-248.94 -259.955)" fill="#01c7e2"/><path d="M399.671,273.527c3.647,8.8,2.357,17.693-2.881,19.863s-12.443-3.2-16.09-12-2.359-17.693,2.878-19.865S396.022,264.726,399.671,273.527Z" transform="translate(-247.306 -258.509)" fill="#110239"/><path d="M376.984,284.746c-.489-.3-.352-2.138-.251-2.615.156-.75.673-1.726.154-2.441-.918-1.267-2.21,2.14-2.378,2.634a3.573,3.573,0,0,0-.235,2.271,8.9,8.9,0,0,0,1.97,2.974c-.1.34-.2.692-.331,1.067a22.374,22.374,0,0,1,2.483,1.258c.994.571.941,1.281,1.873,1.919l.929-2.133C380.806,289.192,377.8,285.24,376.984,284.746Z" transform="translate(-253.222 -234.103)" fill="#f88667"/><path d="M381.576,278.817c-.89-.959-2.275-.592-3.351.2-.787.573-3.051,2.4-2.441,3.731.508,1.106,3.421-1.339,3.421-1.339-1.074.924-3.074,1.663-2.571,2.587.561,1.029,3.1-.438,3.661-.848-.571.147-3.412,1.87-2.273,2.771.78.615,2.867-.678,3.493-1.118-.838.254-1.98,1-1.758,2.161.363.633,1.63.214,2.336-.074,1.067-.431,2.068-.6,2.154-1.921a5.592,5.592,0,0,0,.035-.717,7.2,7.2,0,0,0-.936-2.879A12.511,12.511,0,0,0,381.576,278.817Z" transform="translate(-251.218 -235.653)" fill="#f88667"/><path d="M344.211,293.68a11.688,11.688,0,0,1-1.19-2.532c-.265-.759-.452-1.535-.715-2.292a6.022,6.022,0,0,1-.512-2.245,6.456,6.456,0,0,1,.277-1.372c.151-.582.366-1.148.484-1.737.107-.526.061-1.036.161-1.56a9.3,9.3,0,0,1,.906-2.878,10.809,10.809,0,0,1,1.323-1.821,6.764,6.764,0,0,1,.782-.834,2.067,2.067,0,0,0,.717-.883.845.845,0,0,0-.615-1.139,3.158,3.158,0,0,0-2.918.957c-.775,1.067-1.141,2.373-2.005,3.4-2.641,3.146-5.119-.559-8.2-1.889a18.445,18.445,0,0,1-2.979-1.921c-.55-.415-2.916-2.662-4.034-2.075-.822.431.787,2.32,1.567,2.781.307.182,2.946,2.327,3.291,2.429a16.8,16.8,0,0,1-4.427-2.741c-1.169-.915-2.3-1.816-2.939-1.295-1.961,1.607,5.734,5.284,6.335,5.622-.64.054-6.665-4.211-7.233-2.643-.314.862.936,1.716,1.959,2.273,1.281.7,3.433,1.195,3.917,1.57-.908.31-4.9-2.4-4.9-.747,0,1.083,2.476,1.893,3.407,2.178.962.293,3.782,2.212,4.676,2.636,2.976,1.418,4.206,1.255,5.38,3.037.748,1.139,2.08,7.14,3.16,9.425Z" transform="translate(-322.238 -242.933)" fill="#f88667"/><path d="M393.791,283.02c-2.655,7.73-8.333,21.4-10.205,20.443-3.517-1.8-11.083-7.988-16.735-11.772a39.7,39.7,0,0,0-6.572-3.787l3.933,18.657s18.652,14.167,22.56,12c3.074-1.707,10.638-23.247,13.307-32.174C400.079,286.383,393.835,283.055,393.791,283.02Z" transform="translate(-271.687 -229.305)" fill="#01c7e2"/><path d="M373.751,301.446a126.25,126.25,0,0,0-12.294-12.262l.626,8.85s18.8,14.134,22.963,12.369C381.464,308.1,376.306,304.76,373.751,301.446Z" transform="translate(-270.12 -221.114)" fill="#00a7cc"/><path d="M371.336,294.5s-22.94,9.26-25.436,8.608-10.813-24.3-10.813-24.3l-6.947,2.823s7.42,34.113,12.2,35.706,33.245-6.628,33.245-6.628A48.239,48.239,0,0,0,371.336,294.5Z" transform="translate(-314.394 -234.91)" fill="#01c7e2"/><path d="M341.79,301.949c-2.021.727-4.078,1.439-6.144,2.047,9.73-1.286,27.961-6.549,27.961-6.549a49.778,49.778,0,0,0-.5-8.67C357.461,294.893,349.428,299.208,341.79,301.949Z" transform="translate(-304.42 -221.655)" fill="#00a7cc"/><path d="M388.371,271.633c-1.05-3.235-4.206-5.112-7.052-4.19a4.9,4.9,0,0,0-2.371,1.719,28.337,28.337,0,0,0,1.323,4.038,27.3,27.3,0,0,0,3.54,6.174,4.774,4.774,0,0,0,1.306-.212C387.963,278.24,389.419,274.867,388.371,271.633Z" transform="translate(-246.877 -250.317)" fill="#d0d1de"/><g transform="translate(55.062 56.425)"><path d="M347.8,315.247c-.808,7.962-1.439,24.7-1.917,27.036H383.52c.664-12.5.442-30.606-.177-37.269-1.078-11.607-3.933-18.657-3.933-18.657s-2.811-.89-6.144-2.173c0,0-6.928,4.234-13.38.058,0,0-11.644,2.757-13.051,3.43C345.667,288.229,348.664,306.746,347.8,315.247Z" transform="translate(-345.881 -284.184)" fill="#01c7e2"/><path d="M357.754,318.639a29.734,29.734,0,0,0-2.154-10.857,9.915,9.915,0,0,1-.692-2.438,16.185,16.185,0,0,0-1.593-5.559c-.841-1.272-1.693-2.536-2.524-3.815-.463-.624-.948-1.288-1.484-2.07a35.778,35.778,0,0,1-2.3-4.066c.44,5.845,1.223,13.652.789,17.907-.808,7.962-1.439,24.7-1.917,27.036H363.4c-2.252-2.9-3.6-6.423-4.926-10.725A19.2,19.2,0,0,1,357.754,318.639Z" transform="translate(-345.881 -276.677)" fill="#00a7cc"/></g></g></g></svg>