<svg xmlns="http://www.w3.org/2000/svg" width="226.494" height="160.253" viewBox="0 0 226.494 160.253"><g transform="translate(-22.161 -245.161)"><g transform="translate(54.982 249.645)"><path d="M210.952,386.919H46.622c-4.538,0-8.217-3.31-8.217-7.395V254.773c0-4.083,3.679-7.393,8.217-7.393h164.33c4.54,0,8.219,3.31,8.219,7.393V379.524C219.172,383.609,215.492,386.919,210.952,386.919Z" transform="translate(-38.405 -247.38)" fill="#d0d1de"/><rect width="164.331" height="122.008" transform="translate(8.217 8.765)" fill="#fff"/></g><g transform="translate(73.24 245.161)"><circle cx="53.961" cy="53.961" r="53.961" transform="translate(0 55.261) rotate(-30.8)" fill="#110239"/><path d="M80.208,255.644a53.96,53.96,0,0,1,15.485,106.8Z" transform="translate(-14.004 -235.034)" fill="#32495b"/><path d="M82.319,350.835c-.089-.006-.174-.018-.263-.026l3.764-53.739,45.051-30.137a53.937,53.937,0,0,1-48.552,83.9Z" transform="translate(-12.118 -222.944)" fill="#fb5547"/><path d="M104.183,338.865a54.525,54.525,0,0,0,9.284.441l-2.148-53.929L57.833,278.24A53.962,53.962,0,0,0,104.183,338.865Z" transform="translate(-37.328 -211.404)" fill="#e5e6ed"/></g><path d="M101.813,301.69l-50.053-26.2A56.419,56.419,0,0,0,50.351,325.1Z" transform="translate(23.579 30.948)" fill="#2c9eff"/><path d="M86.733,289.382l54.335-9.838a55.649,55.649,0,0,1,.832,7.092,54.831,54.831,0,0,1-6.235,28.378Z" transform="translate(65.895 35.087)" fill="#ff9e19"/><path d="M52.716,274.911c-.57-.24-2.615.531-3.823,1.317a15.077,15.077,0,0,1-3.366,1.243,12.679,12.679,0,0,1,.249,1.986c0-.03,1.877-.327,2.073-.39.634-.2,1.127-.7,1.857-.5a5.44,5.44,0,0,1,.99.491c.382.206,1.317,1.142,1.78.962.7-.271-.438-1.071-.566-1.3-.188-.333-.113-.942.4-.806.7.186,1.9,1.022,2.659.673.952-.44-2.008-1.289-2.513-1.608.8.41,3.441,1.214,3.655.752.412-.887-2.384-1.354-3.154-1.736a3.8,3.8,0,0,0,2.2.469C56.151,276.123,53.286,275.151,52.716,274.911Z" transform="translate(23.845 30.314)" fill="#f88667"/><path d="M51.12,303.069c-.594.174-2.536-.832-3.645-1.752a15.163,15.163,0,0,0-3.2-1.624,12.681,12.681,0,0,0,.475-1.944c0,.03,1.829.544,2.016.626.606.275,1.039.824,1.784.717a5.426,5.426,0,0,0,1.041-.374c.4-.16,1.441-.98,1.881-.748.661.35-.56,1.012-.713,1.22-.224.309-.222.921.3.847.721-.1,2.01-.8,2.722-.36.893.548-2.146,1.047-2.683,1.305.843-.315,3.558-.806,3.718-.323.305.929-2.526,1.069-3.336,1.358a3.8,3.8,0,0,1,2.243-.208C54.672,302.265,51.714,302.9,51.12,303.069Z" transform="translate(22.569 53.665)" fill="#f88667"/><g transform="translate(39.99 306.129)"><path d="M32.177,297.961a5.272,5.272,0,0,0,6.825-.3c3.14-2.821,8.989-8.044,10.892-9.506,2.645-2.033,14.515-9.47,14.515-9.47l-1.784-3.352s-14.794,6.542-16.885,8.189-14.23,8.939-14.723,11.884A2.707,2.707,0,0,0,32.177,297.961Z" transform="translate(-30.985 -275.336)" fill="#85e2d4"/><path d="M32.177,297.961a5.272,5.272,0,0,0,6.825-.3c3.14-2.821,8.989-8.044,10.892-9.506,2.645-2.033,14.515-9.47,14.515-9.47l-1.784-3.352s-14.794,6.542-16.885,8.189-14.23,8.939-14.723,11.884A2.707,2.707,0,0,0,32.177,297.961Z" transform="translate(-30.985 -275.336)" fill="#85e2d4"/></g><path d="M33.8,279.347c.075.083.145.17.226.249a15.629,15.629,0,0,0,2.382,2.075c.529.352,1.354.582,1.81.952a5.189,5.189,0,0,0,.57.4,43.616,43.616,0,0,0-.818,6.92s-4.754-.335-6.486-2.257A48.34,48.34,0,0,0,33.8,279.347Z" transform="translate(9.519 34.886)" fill="#f88667"/><path d="M38.542,284.5c.1-.59.186-1.107.251-1.475a5.189,5.189,0,0,1-.57-.4c-.457-.37-1.281-.6-1.81-.952a15.629,15.629,0,0,1-2.382-2.075c-.081-.079-.15-.166-.226-.249a48.34,48.34,0,0,1-2.315,8.341,6.264,6.264,0,0,0,2.685,1.515A5.483,5.483,0,0,1,38.542,284.5Z" transform="translate(9.519 34.886)" fill="#e45940"/><path d="M33.937,321.685s.131,4.738.871,5.385,10.169.931,10.979.067.335-2.322-1.687-2.883c-2.17-.6-3.233-.012-4.593-.578s-1-2.707-1-2.707Z" transform="translate(12.017 77.36)" fill="#110239"/><path d="M22.532,321.448s-.727,4.615-.012,5.292,10.319,1.428,11.161.6.424-2.305-1.576-2.944c-2.144-.685-3.182-.251-4.566-.756-1.087-.4-.356-2.594-.356-2.594Z" transform="translate(0.045 77.436)" fill="#110239"/><g transform="translate(22.161 343.591)"><path d="M29.544,321.4a141.423,141.423,0,0,1,1.968-26.349,12.041,12.041,0,0,1,4.708.911c2.877,1.309,5.771,2.564,8.662,3.825-2.348,4.855-7.486,20.708-8.106,24.028-.768,4.126-9.4,25.175-9.4,25.175l-5.219-.655C22.246,344.944,29.562,322.541,29.544,321.4Z" transform="translate(-22.161 -292.676)" fill="#d0d1de"/><path d="M35.784,297.458a48.038,48.038,0,0,0,4.657,1.893c-2.3,4.764-6.506,17.946-7.454,21.447-.731-2.21-4.273-7.553-5.631-13.4a31.211,31.211,0,0,1-.44-11.923l.008-.048A22.441,22.441,0,0,1,35.784,297.458Z" transform="translate(-17.693 -292.295)" fill="#b8b9cd"/><path d="M31.664,298.322c2.035.687,5.734,1.671,8.53,2.669,1.946,4.918,7.7,16.528,8,21.777.329,5.793-1.675,27.735-1.675,27.735H40.542s-.554-24.733-1.39-26.323c-2.76-5.241-5.807-9.393-7.54-12.654a40.706,40.706,0,0,1-4.4-11.543c-.226-1.131-1.214-4.92.705-6.106C29.5,294.327,29.961,297.746,31.664,298.322Z" transform="translate(-17.474 -293.877)" fill="#d0d1de"/></g><g transform="translate(29.408 321.737)"><path d="M43.4,313.221a24.3,24.3,0,0,1-9.957,1.552c-3.659-.352-5.552-.41-7.692-1.564,0,0,2.289-17.829,4.928-23.45s6.971-6.7,6.971-6.7,3.415,1.982,6.2,1.94c0,0-.067,10.953-.281,15.327S43.4,313.221,43.4,313.221Z" transform="translate(-25.748 -283.061)" fill="#85e2d4"/><path d="M37.713,294.917c.016-.483.03-.992.044-1.531l.006-.2c.012-.515.024-1.049.034-1.594l.006-.273c.012-.608.024-1.226.034-1.843v-.028a3.582,3.582,0,0,1-.675-.046,15.5,15.5,0,0,1-4.77-2.2c-.255-.149-.523-.275-.79-.4-.3,2.342.752,5.2,1.206,7.062,1.257,5.15,1.938,11.67.859,16.645a26.682,26.682,0,0,0,3.809-1.1s-.038-8.516.174-12.893c.02-.386.036-.839.055-1.317Z" transform="translate(-19.828 -279.248)" fill="#85e2d4"/></g><path d="M58.813,313.223l2.1-4.154s-10.405-6.661-14.208-10.5-7.916-11.642-10.816-12.133-5.819,1.107-4.138,5.144,10.185,9.385,11.919,11.163S57.111,312.267,58.813,313.223Z" transform="translate(9.282 42.034)" fill="#85e2d4"/><path d="M32.957,275.483s7.678-.879,8.209.412.647,4.926,1.144,5.692,1.4,1.687,1.063,2.182-.707.374-.919.929-.131,3.7-1.146,4.166-6.185.192-8.058-2.754S29.25,275.756,32.957,275.483Z" transform="translate(8.938 30.646)" fill="#f88667"/><path d="M31.887,275.81l5.092,2.356a11.429,11.429,0,0,0,1.305,5.562s-.459.7-.94.305a1.866,1.866,0,0,1-.9-1.352c-.113-.737-.556-2.722-1.891-1.744s.077,2.142.756,2.429c0,0,1.079,3.865-.974,3.59,0,0-1.893-1.2-3.524-5.841S30.618,274.94,31.887,275.81Z" transform="translate(8.083 31.04)" fill="#110239"/><path d="M43.518,275.977s1.82,2.619-2.41,4.368-10.315-2.861-10.315-2.861.156-2.3,3.53-3.279c2.522-.733,4.886-.63,6.173.83C42.684,277.517,43.518,275.977,43.518,275.977Z" transform="translate(8.809 29.184)" fill="#110239"/><g transform="translate(197.761 305.825)"><path d="M129.024,280.2c-.071.083-.135.168-.21.249a15.194,15.194,0,0,1-2.233,2.061c-.5.354-1.285.6-1.713.966a5.109,5.109,0,0,1-.537.4,42.025,42.025,0,0,1,.984,6.629s4.56-.457,6.173-2.354A46.235,46.235,0,0,1,129.024,280.2Z" transform="translate(-93.499 -270.065)" fill="#f88667"/><path d="M129.073,280.53c-.071.083-.135.168-.21.249a15.281,15.281,0,0,1-2.231,2.061c-.5.354-1.287.6-1.713.966a4.873,4.873,0,0,1-.539.4c.065.307.152.735.244,1.212.022,0,.04-.006.061-.006a5.415,5.415,0,0,1,5.469,4.1,4.567,4.567,0,0,0,1.382-1.032A46.421,46.421,0,0,1,129.073,280.53Z" transform="translate(-93.449 -269.731)" fill="#e45940"/><path d="M128.964,321.154s.234,4.554-.428,5.231-9.68,1.661-10.523.893-.5-2.2,1.4-2.891c2.035-.742,3.1-.257,4.36-.9s.754-2.673.754-2.673Z" transform="translate(-100.388 -228.623)" fill="#110239"/><path d="M139.108,320.951s1.265,4.314.665,5.045-9.666,2.639-10.573,1.95-.689-2.148,1.14-3c1.962-.919,3.063-.529,4.263-1.283s.513-2.73.513-2.73Z" transform="translate(-89.062 -228.505)" fill="#110239"/><path d="M140.668,320.732a135.876,135.876,0,0,0-1.233-25.383,11.55,11.55,0,0,0-4.548.758c-2.8,1.188-5.615,2.322-8.425,3.461,2.136,4.728,6.68,20.1,7.193,23.306.636,3.986,3.419,25.814,3.419,25.814l5.144-.174C142.222,345.249,140.624,321.827,140.668,320.732Z" transform="translate(-91.324 -254.609)" fill="#32495b"/><path d="M130.975,297.439a45.961,45.961,0,0,1-4.526,1.705c2.1,4.639,6.591,19.89,7.2,23.256.758-2.105,3.73-9.6,5.183-15.192a29.974,29.974,0,0,0,.719-11.452l0-.046A21.622,21.622,0,0,0,130.975,297.439Z" transform="translate(-91.337 -254.241)" fill="#32495b"/><path d="M140.821,295.838c-1.968.624-5.544,1.507-8.25,2.419-1.958,4.7-7.241,18.235-8.223,23.2-1.364,6.864-3.639,27.21-3.639,27.21l5.8.764s5.829-27.335,6.662-28.848c2.744-4.993,5.746-8.933,7.47-12.04a38.227,38.227,0,0,0,4.991-13.824C144.1,295.119,142.47,295.315,140.821,295.838Z" transform="translate(-97.194 -255.258)" fill="#32495b"/><g transform="translate(4.578 5.796)"><path d="M115.233,278.28c.554.063,1.818,1.566,2.421,2.711a13.577,13.577,0,0,0,2.093,2.449,11.84,11.84,0,0,0-1.065,1.451c.014-.024-1.327-1.081-1.455-1.216-.41-.436-.578-1.041-1.235-1.208a4.631,4.631,0,0,0-.992-.048c-.39-.008-1.534.315-1.816-.028-.428-.519.812-.649,1.01-.768.295-.178.5-.687.042-.806-.632-.164-1.942-.032-2.38-.638-.554-.762,2.14-.129,2.675-.16-.808-.028-3.231-.556-3.194-1.012.065-.877,2.463-.016,3.235.022a3.393,3.393,0,0,1-1.934-.6C112.01,277.724,114.681,278.219,115.233,278.28Z" transform="translate(-111.337 -278.054)" fill="#f88667"/><path d="M147.673,297.051a5.072,5.072,0,0,0-3.572-5.516c-3.867-1.229-11.05-3.538-13.19-4.4-2.976-1.2-14.927-7.423-14.927-7.423l-1.909,3.112s12.632,9.082,15.016,10.014,14.347,7.447,17.031,6.421A2.6,2.6,0,0,0,147.673,297.051Z" transform="translate(-108.543 -276.366)" fill="#01c7e2"/><path d="M147.673,297.051a5.072,5.072,0,0,0-3.572-5.516c-3.867-1.229-11.05-3.538-13.19-4.4-2.976-1.2-14.927-7.423-14.927-7.423l-1.909,3.112s12.632,9.082,15.016,10.014,14.347,7.447,17.031,6.421A2.6,2.6,0,0,0,147.673,297.051Z" transform="translate(-108.543 -276.366)" fill="#fb5547"/></g><g transform="translate(31.762 17.297)"><path d="M126.03,312.908a40.219,40.219,0,0,0,9.4.063c3.508-.44,6.7-1.74,7.439-3.063,0,0-2.572-14.59-5.267-19.92s-6.894-6.241-6.894-6.241-3.227,2-5.912,2.041c0,0,.376,10.531.705,14.731S126.03,312.908,126.03,312.908Z" transform="translate(-124.791 -283.746)" fill="#fb5547"/><path d="M129.912,294.161c.384-1.8,1.315-4.58.958-6.825-.251.133-.507.261-.746.412A14.892,14.892,0,0,1,125.6,290a3.619,3.619,0,0,1-.647.065c.117,2.558.253,5.15.38,6.787.329,4.2.533,12.39.533,12.39s1.305.184,3.231.269C127.916,304.759,128.847,299.152,129.912,294.161Z" transform="translate(-124.627 -280.082)" fill="#fb5547"/></g><path d="M133.848,279.708s-2.119-3.991-4.708-3.718-5.106,1.018-5.411,2.035.065,3.239-.556,4.287-1.867,2.5-1.457,2.908a15.351,15.351,0,0,1,1.172,1.057c.091.184,1.032,3.512,1.59,3.839s5.463-1.829,6.171-3.344S134.183,282.329,133.848,279.708Z" transform="translate(-96.249 -274.377)" fill="#f88667"/><path d="M129.679,276.435s-2.075,5.775-7.237,5.29c0,0-1.267-2.354-.02-4.195C123.391,276.1,126.329,274.766,129.679,276.435Z" transform="translate(-96.007 -274.702)" fill="#110239"/><path d="M143.6,298.026c-.265-2.869-1.691-4.536-3.754-6.379a15.4,15.4,0,0,1-4.987-7.755c-.824-2.97-.422-5.825-3.269-7.882-2.12-1.532-5.5-.663-6.882.434a1.371,1.371,0,0,1-.04.313s-1.915,1.818,1.156,4.4a6.539,6.539,0,0,1,1.7,2.691,1.915,1.915,0,0,1,.649-.731.73.73,0,0,1,1.1.077c.61.624-.3,1.774-.877,1.861-.1.014-.242.156-.4.327a35.245,35.245,0,0,1,1.352,7.8,5.908,5.908,0,0,0,1.5,3.192c.863,1.087,1.491,1.129,2,2.429.546,1.4-.558,4.7,2.079,6.259,1.17.7,3.966.546,4.576.335C143.091,304.158,143.921,301.58,143.6,298.026Z" transform="translate(-93.761 -275.185)" fill="#110239"/><g transform="translate(0 20.829)"><path d="M117.185,295.464a4.074,4.074,0,0,1-2.1.307,2.468,2.468,0,0,0-.99-.079,5.229,5.229,0,0,1-1.142.016,2.024,2.024,0,0,0-1.121.129c-.408.24.117.539.5.689.41.162,1.752-.178,1.976.232s-1.433.721-1.764.78c-.78.133-1.166-.319-1.849-.541-.4-.131-.62-.069-.473.392.109.343.505.491.81.62a4.265,4.265,0,0,0,2.063.352,5.005,5.005,0,0,1-1.956-.127c-.364-.093-1.837-.764-2.033-.208-.4,1.117,3.229,1.562,3.859,1.344a5.848,5.848,0,0,1-1.976,0c-.39-.04-1.305-.178-.992.451.465.927,2.518.362,3.481.275a6.989,6.989,0,0,1-1.841.388c-.824.131-.44.691.426.7a9.5,9.5,0,0,0,1.249-.135,6.374,6.374,0,0,0,3.641-1.917c.432-.39,1.639-.647,1.7-1.148C118.763,297.012,117.69,296.119,117.185,295.464Z" transform="translate(-109.071 -275.321)" fill="#f88667"/><path d="M113.99,309.481l-1.647-3.815s10.739-6.213,14.99-9.529,9.316-10.519,12.248-10.638,5.621,1.837,3.445,5.619-11.276,8-13.218,9.535S115.8,308.751,113.99,309.481Z" transform="translate(-105.732 -285.495)" fill="#fb5547"/></g></g></g></svg>